<svg width="28" height="28" viewBox="0 0 28 28" fill="none" xmlns="http://www.w3.org/2000/svg">
<path d="M10.1667 17.8333L6.704 21.296C6.31862 21.6813 5.82764 21.9436 5.29315 22.0499C4.75866 22.1562 4.20466 22.1017 3.70118 21.8931C3.1977 21.6846 2.76735 21.3315 2.46455 20.8784C2.16175 20.4253 2.00009 19.8926 2 19.3476V17.8333L3.58317 9.91863C3.79462 8.86072 4.36607 7.90875 5.2003 7.22469C6.03453 6.54063 7.08 6.16674 8.15883 6.16663H19.1745C20.2533 6.16674 21.2988 6.54063 22.133 7.22469C22.9673 7.90875 23.5387 8.86072 23.7502 9.91863L25.3333 17.8333V19.3465C25.3332 19.8914 25.1716 20.4241 24.8688 20.8772C24.566 21.3303 24.1356 21.6834 23.6322 21.892C23.1287 22.1005 22.5747 22.1551 22.0402 22.0488C21.5057 21.9425 21.0147 21.6801 20.6293 21.2948L17.1667 17.8333H10.1667Z" stroke="#575962" stroke-width="2" stroke-linecap="round" stroke-linejoin="round"/>
<path d="M10.1667 6L11.3333 8.33333H16L17.1667 6" stroke="#575962" stroke-width="2" stroke-linecap="round" stroke-linejoin="round"/>
</svg>
