<svg width="24" height="24" viewBox="0 0 24 24" fill="none" xmlns="http://www.w3.org/2000/svg">
<path fill-rule="evenodd" clip-rule="evenodd" d="M4.99999 9.9995C4.99999 9.7735 5.07599 9.5465 5.23199 9.3595C5.58499 8.9355 6.21599 8.8785 6.63999 9.2315L12.011 13.7075L17.373 9.3925C17.803 9.0465 18.433 9.1145 18.779 9.5445C19.125 9.9755 19.057 10.6045 18.627 10.9515L12.627 15.7795C12.256 16.0775 11.726 16.0735 11.36 15.7685L5.35999 10.7685C5.12299 10.5705 4.99999 10.2865 4.99999 9.9995Z" fill="white"/>
<mask id="mask0_76:3729" style="mask-type:alpha" maskUnits="userSpaceOnUse" x="5" y="9" width="14" height="8">
<path fill-rule="evenodd" clip-rule="evenodd" d="M4.99999 9.9995C4.99999 9.7735 5.07599 9.5465 5.23199 9.3595C5.58499 8.9355 6.21599 8.8785 6.63999 9.2315L12.011 13.7075L17.373 9.3925C17.803 9.0465 18.433 9.1145 18.779 9.5445C19.125 9.9755 19.057 10.6045 18.627 10.9515L12.627 15.7795C12.256 16.0775 11.726 16.0735 11.36 15.7685L5.35999 10.7685C5.12299 10.5705 4.99999 10.2865 4.99999 9.9995Z" fill="white"/>
</mask>
<g mask="url(#mask0_76:3729)">
</g>
</svg>
