<svg width="15" height="15" viewBox="0 0 15 15" fill="none" xmlns="http://www.w3.org/2000/svg">
<path d="M7.5 0H7.5C3.35786 0 0 3.35786 0 7.5V7.5C0 11.6421 3.35786 15 7.5 15C11.6421 15 15 11.6421 15 7.5C15 3.35786 11.6421 0 7.5 0Z" fill="#0091EB"/>
<path fill-rule="evenodd" clip-rule="evenodd" d="M5.13594 5.2237L4.70189 4.19312H7.22286V5.2237H6.32846V6.88406H7.22286V7.91459H6.32846V9.57495H7.22286V10.6055H4.17188L4.60592 9.57495H5.13594V5.2237ZM9.65891 7.1871C10.2464 7.51937 10.6348 8.09274 10.6348 8.7448C10.6348 9.77245 9.6708 10.6055 8.48162 10.6055H7.75284V9.57496H8.48162C9.01133 9.57496 9.44224 9.20252 9.44224 8.74478C9.44224 8.28703 9.01131 7.9146 8.48162 7.9146H7.75284V6.88401H7.95159C8.48131 6.88401 8.91222 6.51158 8.91222 6.05383C8.91222 5.59609 8.48132 5.2237 7.95161 5.2237H7.75284V4.19312H7.95159C9.14079 4.19312 10.1048 5.0262 10.1048 6.05388C10.1048 6.48045 9.93829 6.87323 9.65891 7.1871Z" fill="white"/>
</svg>
