<svg width="20" height="20" viewBox="0 0 20 20" fill="none" xmlns="http://www.w3.org/2000/svg">
<path d="M10 0H10C4.47715 0 0 4.47715 0 10V10C0 15.5228 4.47715 20 10 20C15.5228 20 20 15.5228 20 10C20 4.47715 15.5228 0 10 0Z" fill="#FFD700"/>
<path d="M5.21111 2.6C4.32746 2.6 3.61111 3.31634 3.61111 4.2C3.605 3.31455 2.88547 2.59998 2 2.6C2.42627 2.60296 2.83609 2.4357 3.13856 2.13532C3.44103 1.83494 3.61112 1.42628 3.61111 1C3.60813 1.42525 3.77574 1.83396 4.07645 2.13466C4.37715 2.43537 4.78586 2.60298 5.21111 2.6Z" fill="white"/>
<path d="M8.21111 17.6C7.32745 17.6 6.61111 18.3163 6.61111 19.2C6.605 18.3145 5.88547 17.6 5 17.6C5.42627 17.603 5.83609 17.4357 6.13856 17.1353C6.44103 16.8349 6.61112 16.4263 6.61111 16C6.60813 16.4253 6.77574 16.834 7.07645 17.1347C7.37715 17.4354 7.78586 17.603 8.21111 17.6Z" fill="white"/>
<path d="M17.2111 6.15566C16.3275 6.15566 15.6111 6.87201 15.6111 7.75566C15.605 6.87021 14.8855 6.15564 14 6.15566C14.4263 6.15862 14.8361 5.99136 15.1386 5.69098C15.441 5.3906 15.6111 4.98194 15.6111 4.55566C15.6081 4.98092 15.7757 5.38962 16.0764 5.69033C16.3772 5.99104 16.7859 6.15865 17.2111 6.15566Z" fill="white"/>
<path d="M3.09999 3.68897C2.82019 3.69487 2.59477 3.92028 2.58888 4.20008C2.58888 3.91781 2.36005 3.68897 2.07777 3.68897C2.34567 3.69552 2.5711 3.48969 2.58888 3.22231C2.61199 3.4871 2.8342 3.68998 3.09999 3.68897Z" fill="white"/>
<path d="M6.09999 18.689C5.82019 18.6949 5.59477 18.9203 5.58888 19.2001C5.58888 18.9178 5.36005 18.689 5.07777 18.689C5.34567 18.6955 5.5711 18.4897 5.58888 18.2223C5.61199 18.4871 5.8342 18.69 6.09999 18.689Z" fill="white"/>
<path d="M4.44435 4.45558C4.16207 4.45558 3.93324 4.68441 3.93324 4.96669C3.92735 4.68689 3.70193 4.46147 3.42213 4.45558C3.70193 4.44969 3.92735 4.22427 3.93324 3.94447C3.93324 4.22675 4.16207 4.45558 4.44435 4.45558Z" fill="white"/>
<path d="M13.4164 1.97601C13.2342 1.806 12.9899 1.70178 12.7211 1.70178C11.5806 1.70178 10.641 2.56154 10.5146 3.66832C10.523 3.668 10.5314 3.66769 10.5399 3.66769C10.8795 3.66769 11.1618 3.91762 11.2126 4.24321H12.262C12.311 3.92883 12.5759 3.68498 12.8998 3.66858C12.8923 3.44415 12.9679 3.23154 13.102 3.065C13.0013 2.94629 12.9404 2.79284 12.9404 2.62536C12.9404 2.32128 13.1408 2.06321 13.4164 1.97601Z" fill="white"/>
<path d="M8.27896 1.70178C8.01017 1.70178 7.76584 1.80599 7.58374 1.97603C7.85934 2.06323 8.05967 2.3213 8.05967 2.62534C8.05967 2.79283 7.99878 2.94626 7.89813 3.06499C8.03214 3.23139 8.10776 3.44382 8.10033 3.66806C8.43317 3.67534 8.70796 3.92245 8.75802 4.24322H9.86719C9.91527 3.93516 10.1706 3.69505 10.4856 3.67005C10.3601 2.56244 9.42012 1.70178 8.27896 1.70178Z" fill="white"/>
<path d="M12.9346 5.02943C12.8178 5.02943 12.7079 4.99986 12.6117 4.94789L11.7624 5.6529C11.7049 5.70059 11.6213 5.69916 11.5655 5.64958L10.8065 4.97499C10.7245 5.01001 10.6344 5.02943 10.5398 5.02943C10.4387 5.02943 10.3428 5.00712 10.2564 4.9674L9.43054 5.65287C9.40253 5.67613 9.36827 5.68771 9.33406 5.68771C9.29813 5.68771 9.26224 5.67494 9.23367 5.64956L8.43002 4.9353C8.32881 4.99499 8.21099 5.02942 8.08521 5.02942V6.399C8.10719 6.3865 8.13256 6.37928 8.15966 6.37928H12.8403C12.878 6.37928 12.9124 6.39322 12.9389 6.41609V5.02932C12.9374 5.02934 12.936 5.02943 12.9346 5.02943Z" fill="white"/>
<path d="M12.8402 6.68147H8.15966C8.13256 6.68147 8.1072 6.67425 8.08521 6.66176V6.76523C8.08521 7.05962 8.32386 7.29825 8.61823 7.29825H12.4058C12.7002 7.29825 12.9389 7.0596 12.9389 6.76521V6.64465C12.9124 6.66754 12.878 6.68147 12.8402 6.68147Z" fill="white"/>
<path d="M9.88542 4.53589H8.7398C8.72007 4.60473 8.68991 4.66919 8.65088 4.72727L9.33749 5.33753L10.0118 4.77783C9.95452 4.70744 9.91108 4.6254 9.88542 4.53589Z" fill="white"/>
<path d="M12.2802 4.53589H11.1944C11.167 4.63162 11.1191 4.71872 11.0558 4.79225L11.6693 5.33754L12.3822 4.74585C12.3369 4.68301 12.302 4.61219 12.2802 4.53589Z" fill="white"/>
<path d="M7.37872 2.24658C7.1699 2.24658 7 2.41648 7 2.62529C7 2.8341 7.16989 3.004 7.37872 3.004C7.58756 3.004 7.75744 2.83413 7.75744 2.62529C7.75742 2.41648 7.58754 2.24658 7.37872 2.24658Z" fill="white"/>
<path d="M13.6213 2.24658C13.4125 2.24658 13.2426 2.41647 13.2426 2.62529C13.2426 2.83412 13.4124 3.004 13.6213 3.004C13.8301 3.004 14 2.8341 14 2.62529C14 2.41648 13.8301 2.24658 13.6213 2.24658Z" fill="white"/>
<path d="M8.08525 3.96985C7.87643 3.96985 7.70654 4.13974 7.70654 4.34856C7.70654 4.55738 7.87642 4.72726 8.08525 4.72726C8.29409 4.72726 8.46398 4.55737 8.46398 4.34856C8.46398 4.13975 8.29408 3.96985 8.08525 3.96985Z" fill="white"/>
<path d="M10.5398 3.96985C10.331 3.96985 10.1611 4.13974 10.1611 4.34856C10.1611 4.55738 10.331 4.72726 10.5398 4.72726C10.7487 4.72726 10.9186 4.55737 10.9186 4.34856C10.9186 4.13975 10.7487 3.96985 10.5398 3.96985Z" fill="white"/>
<path d="M12.9346 3.96985C12.7258 3.96985 12.5559 4.13974 12.5559 4.34856C12.5559 4.55737 12.7258 4.72726 12.9346 4.72726C13.1434 4.72726 13.3133 4.55737 13.3133 4.34856C13.3133 4.13974 13.1434 3.96985 12.9346 3.96985Z" fill="white"/>
<g clip-path="url(#clip0_11:1487)">
<path d="M8.78343 12.6311V14.217C8.78556 14.4726 8.69738 14.7187 8.53822 14.9014C8.46623 14.9972 8.37624 15.0738 8.27473 15.1258C8.17322 15.1777 8.06271 15.2038 7.95116 15.202H7.37894V14.2253H7.68332C7.72398 14.2287 7.76462 14.2186 7.80026 14.1964C7.8359 14.1741 7.86498 14.1407 7.88392 14.1001C7.92955 14.0176 7.95269 13.9218 7.9505 13.8247V9.985H7.37894L7.3195 9.83478C7.27986 9.73463 7.23529 9.62066 7.18576 9.49287C7.15108 9.40384 7.11886 9.31758 7.08912 9.2341C7.05444 9.14506 7.02473 9.06717 7 9.00043H8.78343V12.6311ZM10.0764 9H9.24418V15.202C9.33333 16.0425 9.47204 17.3085 9.66031 19C9.75441 18.1541 9.89312 16.8881 10.0764 15.202V13.4491C10.1208 13.3209 10.1852 13.1345 10.2696 12.8899C10.3885 13.4018 10.5669 14.1725 10.8047 15.202H11.6369C11.4289 14.423 11.1118 13.2544 10.6858 11.6962C10.8887 11.0953 11.1933 10.1966 11.5997 9.00011H10.7675C10.6139 9.6067 10.3835 10.5193 10.0764 11.738L10.0764 9ZM12.0977 9.00833V9.985H12.6253V15.202H13.465V9.985H14V9.00833H12.0977Z" fill="white"/>
</g>
<defs>
<clipPath id="clip0_11:1487">
<rect width="7" height="10" fill="white" transform="translate(7 9)"/>
</clipPath>
</defs>
</svg>
