<svg width="20" height="20" viewBox="0 0 20 20" fill="none" xmlns="http://www.w3.org/2000/svg">
<path d="M10 0H10C4.47715 0 0 4.47715 0 10V10C0 15.5228 4.47715 20 10 20C15.5228 20 20 15.5228 20 10C20 4.47715 15.5228 0 10 0Z" fill="#FFD700"/>
<path d="M10.2946 6.94047C10.0542 7.37833 9.37167 7.82407 9.06044 7.9922C9.01752 8.06089 8.74921 8.08522 8.62043 8.08879C8.4666 8.0566 8.17183 7.85054 8.22334 7.28389C8.27486 6.71724 8.04448 6.15345 7.92285 5.94239C7.38624 5.25554 6.6672 5.10529 6.29158 5.08383C5.91596 5.06236 5.07886 5.23407 4.7247 5.86726C4.44137 6.37381 4.60665 6.96551 4.7247 7.19803C4.79267 7.45203 5.0853 7.96645 5.71205 7.9922C6.49548 8.0244 6.87111 7.26243 6.84964 7.07998C6.83247 6.93403 6.67078 6.94047 6.59207 6.96193C6.36026 7.36545 6.03043 7.42341 5.89449 7.40194C5.73351 7.38048 5.37721 7.24311 5.23984 6.86534C5.06812 6.39313 5.32569 5.99605 5.50814 5.86726C5.69058 5.73848 6.18426 5.50238 6.78525 5.70628C7.26605 5.86941 7.55796 6.71867 7.64381 7.12291C7.64381 8.44294 7.14548 8.86485 6.32377 9.07614C5.19692 9.3659 3.40466 8.73271 3.0827 7.12291C2.70708 5.24481 3.6071 3.52215 5.8623 3.08766C8.20188 2.63692 9.87965 4.02851 10.6488 4.89065C10.9385 5.96385 10.5951 6.39313 10.2946 6.94047Z" fill="white" stroke="white" stroke-width="0.0950202"/>
<path d="M9.20001 8.42148C11.106 7.49423 11.3786 5.99604 11.4645 5.38432C11.516 5.28987 12.7738 6.26434 13.246 6.8868C14.0616 8.07806 13.8001 8.81252 13.7289 9.04394C13.4714 9.88104 12.6961 10.8326 12.3445 11.4479C12.1728 11.7484 12.1191 11.3513 12.0547 13.6158C12.0266 14.6048 11.7542 15.8051 10.7132 16.5993C10.4431 16.8054 10.1981 17.2432 10.8635 17.6296C11.0703 17.7496 11.8401 17.6081 11.3357 16.8998L11.6147 16.771C11.9903 17.2861 11.79 17.626 11.6469 17.7691C11.3428 17.9837 10.6274 18.2413 10.1981 17.5544C9.66149 16.6959 10.2947 16.17 10.8313 15.8051C11.2606 15.5132 11.3786 14.7212 11.325 14.1738C11.1747 13.766 11.0888 12.0167 11.325 11.0079C11.325 11.0079 11.282 10.9757 11.2391 10.965C10.3376 12.0811 10.4771 13.5514 10.5308 14.1738C10.4449 15.3651 9.74734 15.9412 9.14635 15.6119C8.36291 15.1827 8.48097 14.4887 8.68487 14.249L8.95317 14.3885C8.86732 14.5137 8.78576 14.8414 9.14635 15.1505C9.5971 15.5368 10.4298 14.7534 10.0049 13.1006C9.93694 12.818 9.83105 12.1541 9.95125 11.7591C10.0192 11.3227 10.2496 10.4112 10.6274 10.2567L10.4879 10.1493C9.62929 10.5679 9.36099 11.5874 9.40392 12.5962C9.43826 13.4033 8.84585 13.5263 8.54536 13.487C8.08173 13.2809 8.17331 12.8073 8.27706 12.5962L8.45719 12.7189C8.43974 13.1105 8.67794 13.0953 8.80293 13.0363C9.14635 12.9933 9.08196 11.9309 9.00683 11.405C8.93815 10.7439 9.53628 9.88461 9.84393 9.53761V9.46249C9.84393 9.46249 9.30733 8.86149 9.20001 8.42148Z" fill="white" stroke="white" stroke-width="0.0950202"/>
<path fill-rule="evenodd" clip-rule="evenodd" d="M11.6898 8.3356C11.5932 8.23544 11.3098 8.11238 10.9492 8.42146C10.824 8.56098 10.6487 8.90655 10.9492 9.1727C11.0888 9.26571 11.4386 9.36159 11.7219 9.00099C11.7935 8.89367 11.8872 8.61034 11.6898 8.3356ZM11.4322 8.50728C11.3142 8.46435 11.1403 8.47938 11.0459 8.71119C11.0351 8.80778 11.0738 8.99237 11.3142 8.95803C11.5546 8.92368 11.5574 8.72908 11.5288 8.63607C11.5285 8.63501 11.5282 8.6339 11.5279 8.63272C11.5203 8.60594 11.5042 8.5484 11.4322 8.50728Z" fill="#FFD700"/>
<path d="M10.9492 8.42144L10.9181 8.38506L10.9139 8.38971L10.9492 8.42144ZM11.6898 8.33558L11.7287 8.30756L11.724 8.3026L11.6898 8.33558ZM10.9492 9.17268L10.9174 9.20858L10.9229 9.21221L10.9492 9.17268ZM11.722 9.00097L11.7594 9.03041L11.7615 9.02732L11.722 9.00097ZM11.0459 8.71117L11.0001 8.69254L10.9987 8.70592L11.0459 8.71117ZM11.4322 8.50726L11.4561 8.46541L11.4485 8.46261L11.4322 8.50726ZM11.3142 8.95801L11.3209 9.00504H11.3209L11.3142 8.95801ZM11.5288 8.63605L11.4831 8.6491L11.4834 8.65002L11.5288 8.63605ZM11.5279 8.6327L11.5736 8.61986L11.5736 8.61985L11.5279 8.6327ZM10.9802 8.45751C11.1531 8.30928 11.3028 8.26838 11.4168 8.27252C11.532 8.27671 11.6155 8.32702 11.6556 8.36856L11.724 8.3026C11.6674 8.24398 11.5609 8.18268 11.4202 8.17756C11.2783 8.17241 11.106 8.22452 10.9183 8.38537L10.9802 8.45751ZM10.9807 9.13712C10.8439 9.01592 10.8169 8.87985 10.8365 8.75707C10.8566 8.63122 10.9264 8.51803 10.9846 8.45317L10.9139 8.38971C10.8469 8.46436 10.7664 8.59372 10.7427 8.74207C10.7185 8.8935 10.7541 9.06329 10.9177 9.20825L10.9807 9.13712ZM11.6846 8.97162C11.5509 9.14175 11.4048 9.20099 11.2785 9.20953C11.15 9.21821 11.0379 9.17466 10.9756 9.13315L10.9229 9.21221C11.0002 9.26372 11.1327 9.31461 11.2849 9.30433C11.4391 9.29391 11.6097 9.22079 11.7593 9.03032L11.6846 8.97162ZM11.6512 8.36331C11.8336 8.61714 11.7467 8.87817 11.6824 8.97462L11.7615 9.02732C11.8403 8.90912 11.9408 8.60351 11.7283 8.30785L11.6512 8.36331ZM11.0899 8.7291C11.1332 8.62281 11.1919 8.57218 11.2475 8.55044C11.3043 8.52823 11.3651 8.53339 11.416 8.55191L11.4485 8.46261C11.3813 8.4382 11.2961 8.42941 11.2129 8.46194C11.1285 8.49493 11.053 8.56771 11.0019 8.69325L11.0899 8.7291ZM11.3075 8.91097C11.2013 8.92613 11.1507 8.8929 11.1246 8.85615C11.0952 8.81491 11.0885 8.75769 11.0931 8.71642L10.9987 8.70592C10.9925 8.76124 10.9997 8.8446 11.0471 8.91123C11.0977 8.98233 11.1866 9.02422 11.3209 9.00504L11.3075 8.91097ZM11.4834 8.65002C11.4955 8.68931 11.5002 8.74919 11.4786 8.80059C11.4586 8.84802 11.4131 8.89588 11.3075 8.91097L11.3209 9.00504C11.4556 8.98579 11.5318 8.91918 11.5662 8.83746C11.5989 8.75972 11.5908 8.6758 11.5742 8.62207L11.4834 8.65002ZM11.4821 8.64554C11.4825 8.6467 11.4828 8.64792 11.4831 8.6491L11.5745 8.62299C11.5742 8.62206 11.5739 8.62105 11.5736 8.61986L11.4821 8.64554ZM11.4087 8.54851C11.464 8.58011 11.4756 8.62222 11.4821 8.64555L11.5736 8.61985C11.5651 8.58962 11.5444 8.51665 11.4558 8.46601L11.4087 8.54851Z" fill="#FFD700"/>
<path fill-rule="evenodd" clip-rule="evenodd" d="M13.0256 7.94201C12.929 7.84184 12.6457 7.71878 12.2851 8.02786C12.1599 8.16738 11.9846 8.51295 12.2851 8.7791C12.4246 8.87211 12.7744 8.96799 13.0578 8.60739C13.1293 8.50007 13.223 8.21675 13.0256 7.94201ZM12.7646 8.12918C12.6465 8.08625 12.4727 8.10128 12.3782 8.33309C12.3675 8.42967 12.4061 8.61427 12.6465 8.57992C12.8869 8.54558 12.8898 8.35097 12.8612 8.25796C12.8609 8.25691 12.8606 8.25579 12.8602 8.25462C12.8527 8.22784 12.8366 8.1703 12.7646 8.12918Z" fill="#FFD700"/>
<path d="M12.2851 8.02788L12.2539 7.9915L12.2497 7.99615L12.2851 8.02788ZM13.0256 7.94203L13.0646 7.91401L13.0598 7.90905L13.0256 7.94203ZM12.2851 8.77913L12.2533 8.81503L12.2587 8.81866L12.2851 8.77913ZM13.0578 8.60741L13.0952 8.63686L13.0973 8.63377L13.0578 8.60741ZM12.3782 8.33311L12.3325 8.31448L12.331 8.32786L12.3782 8.33311ZM12.7646 8.1292L12.7885 8.08734L12.7808 8.08455L12.7646 8.1292ZM12.6465 8.57995L12.6398 8.53291L12.6465 8.57995ZM12.8612 8.25799L12.8155 8.27104L12.8158 8.27196L12.8612 8.25799ZM12.8602 8.25464L12.906 8.24179L12.906 8.24179L12.8602 8.25464ZM12.316 8.06396C12.4889 7.91572 12.6386 7.87483 12.7526 7.87897C12.8678 7.88316 12.9513 7.93346 12.9914 7.97501L13.0598 7.90905C13.0032 7.85043 12.8968 7.78912 12.756 7.78401C12.6141 7.77885 12.4418 7.83096 12.2541 7.99181L12.316 8.06396ZM12.3166 8.74356C12.1797 8.62237 12.1527 8.48629 12.1723 8.36351C12.1924 8.23766 12.2622 8.12448 12.3204 8.05962L12.2497 7.99615C12.1827 8.07081 12.1022 8.20017 12.0785 8.34852C12.0543 8.49994 12.0899 8.66973 12.2536 8.81469L12.3166 8.74356ZM13.0204 8.57806C12.8867 8.74819 12.7407 8.80743 12.6143 8.81597C12.4858 8.82465 12.3737 8.7811 12.3114 8.7396L12.2587 8.81866C12.336 8.87016 12.4685 8.92105 12.6207 8.91078C12.775 8.90035 12.9455 8.82723 13.0951 8.63677L13.0204 8.57806ZM12.987 7.96976C13.1694 8.22359 13.0825 8.48462 13.0182 8.58106L13.0973 8.63377C13.1761 8.51557 13.2766 8.20995 13.0641 7.9143L12.987 7.96976ZM12.4222 8.35104C12.4655 8.24475 12.5242 8.19412 12.5799 8.17238C12.6367 8.15017 12.6974 8.15533 12.7484 8.17385L12.7808 8.08455C12.7137 8.06014 12.6285 8.05135 12.5453 8.08388C12.4609 8.11687 12.3854 8.18965 12.3342 8.31518L12.4222 8.35104ZM12.6398 8.53291C12.5337 8.54807 12.4831 8.51484 12.4569 8.47808C12.4276 8.43685 12.4209 8.37963 12.4255 8.33836L12.331 8.32786C12.3249 8.38318 12.3321 8.46654 12.3795 8.53317C12.4301 8.60427 12.519 8.64616 12.6533 8.62698L12.6398 8.53291ZM12.8158 8.27196C12.8279 8.31125 12.8326 8.37113 12.811 8.42253C12.791 8.46996 12.7455 8.51782 12.6398 8.53291L12.6533 8.62698C12.788 8.60773 12.8641 8.54112 12.8985 8.4594C12.9313 8.38166 12.9231 8.29773 12.9066 8.24401L12.8158 8.27196ZM12.8145 8.26748C12.8148 8.26864 12.8152 8.26986 12.8155 8.27104L12.9069 8.24493C12.9066 8.244 12.9063 8.24299 12.906 8.24179L12.8145 8.26748ZM12.741 8.17045C12.7963 8.20205 12.8079 8.24416 12.8145 8.26748L12.906 8.24179C12.8975 8.21156 12.8768 8.13859 12.7882 8.08795L12.741 8.17045Z" fill="#FFD700"/>
<path d="M5.21111 2.6C4.32746 2.6 3.61111 3.31634 3.61111 4.2C3.605 3.31455 2.88547 2.59998 2 2.6C2.42627 2.60296 2.83609 2.4357 3.13856 2.13532C3.44103 1.83494 3.61112 1.42628 3.61111 1C3.60813 1.42525 3.77574 1.83396 4.07645 2.13466C4.37715 2.43537 4.78586 2.60298 5.21111 2.6Z" fill="white"/>
<path d="M8.21111 17.6C7.32745 17.6 6.61111 18.3163 6.61111 19.2C6.605 18.3145 5.88547 17.6 5 17.6C5.42627 17.603 5.83609 17.4357 6.13856 17.1353C6.44103 16.8349 6.61112 16.4263 6.61111 16C6.60813 16.4253 6.77574 16.834 7.07645 17.1347C7.37715 17.4354 7.78586 17.603 8.21111 17.6Z" fill="white"/>
<path d="M17.2111 6.15566C16.3275 6.15566 15.6111 6.87201 15.6111 7.75566C15.605 6.87021 14.8855 6.15564 14 6.15566C14.4263 6.15862 14.8361 5.99136 15.1386 5.69098C15.441 5.3906 15.6111 4.98194 15.6111 4.55566C15.6081 4.98092 15.7757 5.38962 16.0764 5.69033C16.3772 5.99104 16.7859 6.15865 17.2111 6.15566Z" fill="white"/>
<path d="M3.09999 3.68897C2.82019 3.69487 2.59477 3.92028 2.58888 4.20008C2.58888 3.91781 2.36005 3.68897 2.07777 3.68897C2.34567 3.69552 2.5711 3.48969 2.58888 3.22231C2.61199 3.4871 2.8342 3.68998 3.09999 3.68897V3.68897Z" fill="white"/>
<path d="M6.09999 18.689C5.82019 18.6949 5.59477 18.9203 5.58888 19.2001C5.58888 18.9178 5.36005 18.689 5.07777 18.689C5.34567 18.6955 5.5711 18.4897 5.58888 18.2223C5.61199 18.4871 5.8342 18.69 6.09999 18.689V18.689Z" fill="white"/>
<path d="M4.44435 4.45558C4.16207 4.45558 3.93324 4.68441 3.93324 4.96669C3.92735 4.68689 3.70193 4.46147 3.42213 4.45558C3.70193 4.44969 3.92735 4.22427 3.93324 3.94447C3.93324 4.22675 4.16207 4.45558 4.44435 4.45558V4.45558Z" fill="white"/>
</svg>
