<svg width="34" height="34" viewBox="0 0 34 34" fill="none" xmlns="http://www.w3.org/2000/svg">
<path fill-rule="evenodd" clip-rule="evenodd" d="M23.0852 13.6077L16.6138 22.1077C16.3475 22.4577 15.9353 22.6645 15.4961 22.6673H15.4862C15.0513 22.6673 14.6404 22.4662 14.3713 22.1233L10.9259 17.7217C10.4443 17.1069 10.5519 16.2158 11.1682 15.7341C11.783 15.2511 12.6755 15.3587 13.1572 15.9764L15.4706 18.9316L20.8313 11.8922C21.3044 11.2702 22.1927 11.1484 22.8174 11.623C23.4393 12.0976 23.5598 12.9858 23.0852 13.6077ZM17.0006 2.83398C9.17634 2.83398 2.83392 9.1764 2.83392 17.0007C2.83392 24.8235 9.17634 31.1673 17.0006 31.1673C24.8248 31.1673 31.1673 24.8235 31.1673 17.0007C31.1673 9.1764 24.8248 2.83398 17.0006 2.83398Z" fill="#CD2A16"/>
<mask id="mask0_19:4038" style="mask-type:alpha" maskUnits="userSpaceOnUse" x="2" y="2" width="30" height="30">
<path fill-rule="evenodd" clip-rule="evenodd" d="M23.0852 13.6077L16.6138 22.1077C16.3475 22.4577 15.9353 22.6645 15.4961 22.6673H15.4862C15.0513 22.6673 14.6404 22.4662 14.3713 22.1233L10.9259 17.7217C10.4443 17.1069 10.5519 16.2158 11.1682 15.7341C11.783 15.2511 12.6755 15.3587 13.1572 15.9764L15.4706 18.9316L20.8313 11.8922C21.3044 11.2702 22.1927 11.1484 22.8174 11.623C23.4393 12.0976 23.5598 12.9858 23.0852 13.6077ZM17.0006 2.83398C9.17634 2.83398 2.83392 9.1764 2.83392 17.0007C2.83392 24.8235 9.17634 31.1673 17.0006 31.1673C24.8248 31.1673 31.1673 24.8235 31.1673 17.0007C31.1673 9.1764 24.8248 2.83398 17.0006 2.83398Z" fill="white"/>
</mask>
<g mask="url(#mask0_19:4038)">
</g>
</svg>
