<svg width="48" height="48" viewBox="0 0 48 48" fill="none" xmlns="http://www.w3.org/2000/svg">
<circle cx="24" cy="24" r="24" fill="#CD2A16"/>
<path fill-rule="evenodd" clip-rule="evenodd" d="M22.6667 28H17.3334C16.6 28 16 27.4 16 26.6666C16 25.9333 16.6 25.3333 17.3334 25.3333H22.6667C23.4 25.3333 24 25.9333 24 26.6666C24 27.4 23.4 28 22.6667 28ZM30.6667 28H28C27.2667 28 26.6667 27.4 26.6667 26.6666C26.6667 25.9333 27.2667 25.3333 28 25.3333H30.6667C31.4 25.3333 32 25.9333 32 26.6666C32 27.4 31.4 28 30.6667 28ZM34.6667 29.3333C34.6667 30.068 34.0694 30.6666 33.3334 30.6666H14.6667C13.9307 30.6666 13.3334 30.068 13.3334 29.3333V22.6666H34.6667V29.3333ZM13.3334 18.6666C13.3334 17.932 13.9307 17.3333 14.6667 17.3333H33.3334C34.0694 17.3333 34.6667 17.932 34.6667 18.6666V20H13.3334V18.6666ZM33.3334 14.6666H14.6667C12.4614 14.6666 10.6667 16.4613 10.6667 18.6666V29.3333C10.6667 31.5386 12.4614 33.3333 14.6667 33.3333H33.3334C35.5387 33.3333 37.3334 31.5386 37.3334 29.3333V18.6666C37.3334 16.4613 35.5387 14.6666 33.3334 14.6666Z" fill="white"/>
<mask id="mask0_76:5183" style="mask-type:alpha" maskUnits="userSpaceOnUse" x="10" y="14" width="28" height="20">
<path fill-rule="evenodd" clip-rule="evenodd" d="M22.6667 28H17.3334C16.6 28 16 27.4 16 26.6666C16 25.9333 16.6 25.3333 17.3334 25.3333H22.6667C23.4 25.3333 24 25.9333 24 26.6666C24 27.4 23.4 28 22.6667 28ZM30.6667 28H28C27.2667 28 26.6667 27.4 26.6667 26.6666C26.6667 25.9333 27.2667 25.3333 28 25.3333H30.6667C31.4 25.3333 32 25.9333 32 26.6666C32 27.4 31.4 28 30.6667 28ZM34.6667 29.3333C34.6667 30.068 34.0694 30.6666 33.3334 30.6666H14.6667C13.9307 30.6666 13.3334 30.068 13.3334 29.3333V22.6666H34.6667V29.3333ZM13.3334 18.6666C13.3334 17.932 13.9307 17.3333 14.6667 17.3333H33.3334C34.0694 17.3333 34.6667 17.932 34.6667 18.6666V20H13.3334V18.6666ZM33.3334 14.6666H14.6667C12.4614 14.6666 10.6667 16.4613 10.6667 18.6666V29.3333C10.6667 31.5386 12.4614 33.3333 14.6667 33.3333H33.3334C35.5387 33.3333 37.3334 31.5386 37.3334 29.3333V18.6666C37.3334 16.4613 35.5387 14.6666 33.3334 14.6666Z" fill="white"/>
</mask>
<g mask="url(#mask0_76:5183)">
</g>
</svg>
