<svg width="99" height="99" viewBox="0 0 99 99" fill="none" xmlns="http://www.w3.org/2000/svg">
<path fill-rule="evenodd" clip-rule="evenodd" d="M49.5 99C76.8381 99 99 76.8381 99 49.5C99 22.1619 76.8381 0 49.5 0C22.1619 0 0 22.1619 0 49.5C0 76.8381 22.1619 99 49.5 99Z" fill="#CD2A16"/>
<g clip-path="url(#clip0_1327_2932)">
<path d="M63.5409 15.2307C62.6641 14.4122 61.4878 13.9104 60.1937 13.9104C54.7023 13.9104 50.1785 18.0498 49.5704 23.3785C49.6107 23.3769 49.6512 23.3754 49.692 23.3754C51.3272 23.3754 52.6862 24.5788 52.9309 26.1463H57.983C58.2192 24.6327 59.4945 23.4587 61.054 23.3797C61.0176 22.2992 61.3817 21.2756 62.0274 20.4738C61.5427 19.9022 61.2496 19.1634 61.2496 18.357C61.2495 16.893 62.2141 15.6505 63.5409 15.2307Z" fill="#191A1E"/>
<path d="M38.8063 13.9104C37.5122 13.9104 36.3359 14.4121 35.4592 15.2308C36.7861 15.6506 37.7506 16.8931 37.7506 18.357C37.7506 19.1633 37.4574 19.9021 36.9728 20.4737C37.618 21.2748 37.9821 22.2976 37.9463 23.3772C39.5488 23.4123 40.8718 24.602 41.1128 26.1464H46.453C46.6845 24.6632 47.9139 23.5072 49.4306 23.3868C48.8263 18.0541 44.3006 13.9104 38.8063 13.9104Z" fill="#191A1E"/>
<path d="M61.2218 29.9316C60.6597 29.9316 60.1303 29.7892 59.6675 29.539L55.578 32.9333C55.3013 33.1629 54.8987 33.1561 54.6301 32.9173L50.9758 29.6695C50.5813 29.8381 50.1474 29.9316 49.6919 29.9316C49.2051 29.9316 48.7432 29.8242 48.3275 29.633L44.3513 32.9332C44.2164 33.0452 44.0515 33.1009 43.8868 33.1009C43.7138 33.1009 43.541 33.0394 43.4034 32.9173L39.5342 29.4784C39.0469 29.7658 38.4796 29.9315 37.874 29.9315V36.5255C37.9799 36.4653 38.102 36.4306 38.2325 36.4306H60.7676C60.9493 36.4306 61.115 36.4977 61.2425 36.6078V29.9311C61.2356 29.9311 61.2287 29.9316 61.2218 29.9316Z" fill="#191A1E"/>
<path d="M60.7674 37.8855H38.2324C38.1019 37.8855 37.9798 37.8508 37.8739 37.7906V38.2888C37.8739 39.7062 39.0229 40.8551 40.4402 40.8551H58.6759C60.0933 40.8551 61.2423 39.706 61.2423 38.2887V37.7083C61.1148 37.8184 60.9491 37.8855 60.7674 37.8855Z" fill="#191A1E"/>
<path d="M46.5407 27.5552H41.025C40.9301 27.8866 40.7849 28.197 40.5969 28.4766L43.9027 31.4147L47.1494 28.72C46.8734 28.3811 46.6643 27.9861 46.5407 27.5552Z" fill="#191A1E"/>
<path d="M58.0705 27.5553H52.843C52.7109 28.0162 52.4805 28.4356 52.1756 28.7896L55.1295 31.4149L58.5617 28.5662C58.3435 28.2636 58.1758 27.9227 58.0705 27.5553Z" fill="#191A1E"/>
<path d="M34.4723 16.5333C33.4669 16.5333 32.6489 17.3513 32.6489 18.3567C32.6489 19.362 33.4669 20.18 34.4723 20.18C35.4778 20.18 36.2957 19.3621 36.2957 18.3567C36.2956 17.3513 35.4777 16.5333 34.4723 16.5333Z" fill="#191A1E"/>
<path d="M64.5278 16.5333C63.5225 16.5333 62.7045 17.3513 62.7045 18.3567C62.7045 19.3621 63.5224 20.18 64.5278 20.18C65.5332 20.18 66.3511 19.362 66.3511 18.3567C66.3511 17.3513 65.5331 16.5333 64.5278 16.5333Z" fill="#191A1E"/>
<path d="M37.8741 24.8301C36.8687 24.8301 36.0507 25.648 36.0507 26.6534C36.0507 27.6588 36.8686 28.4767 37.8741 28.4767C38.8795 28.4767 39.6975 27.6588 39.6975 26.6534C39.6975 25.6481 38.8795 24.8301 37.8741 24.8301Z" fill="#191A1E"/>
<path d="M49.6919 24.8301C48.6865 24.8301 47.8685 25.648 47.8685 26.6534C47.8685 27.6588 48.6865 28.4767 49.6919 28.4767C50.6973 28.4767 51.5153 27.6588 51.5153 26.6534C51.5153 25.6481 50.6973 24.8301 49.6919 24.8301Z" fill="#191A1E"/>
<path d="M61.2217 24.8302C60.2163 24.8302 59.3983 25.6481 59.3983 26.6535C59.3983 27.6589 60.2163 28.4768 61.2217 28.4768C62.227 28.4768 63.0449 27.6589 63.0449 26.6535C63.0449 25.6481 62.227 24.8302 61.2217 24.8302Z" fill="#191A1E"/>
</g>
<g clip-path="url(#clip1_1327_2932)">
<path d="M41.2354 60.8507V67.648C41.2456 68.7435 40.8211 69.7985 40.0548 70.5816C39.7082 70.9919 39.275 71.3202 38.7862 71.543C38.2975 71.7657 37.7654 71.8773 37.2284 71.8698H34.4734V67.6837H35.9388C36.1346 67.698 36.3303 67.6549 36.5019 67.5595C36.6734 67.4642 36.8134 67.3208 36.9046 67.147C37.1243 66.7931 37.2358 66.3828 37.2252 65.9664V49.5092H34.4734L34.1872 48.8653C33.9964 48.436 33.7817 47.9476 33.5433 47.3999C33.3763 47.0182 33.2212 46.6485 33.078 46.2907C32.911 45.9091 32.768 45.5752 32.6489 45.2892H41.2354V60.8507ZM47.4608 45.2874H43.4537V71.8698C43.883 75.4723 44.5508 80.8985 45.4572 88.1484C45.9103 84.523 46.5781 79.0968 47.4608 71.8698V64.3567C47.6745 63.8072 47.9845 63.0082 48.3908 61.9598C48.9633 64.154 49.8219 67.4573 50.9668 71.8698H54.9738C53.9721 68.5307 52.4457 63.522 50.3944 56.8436C51.3713 54.2678 52.8381 50.4159 54.7948 45.2878H50.7877C50.0483 47.8877 48.9392 51.7994 47.4603 57.0227L47.4608 45.2874ZM57.1921 45.3231V49.5092H59.7324V71.8698H63.7751V49.5092H66.3511V45.3231H57.1921Z" fill="#191A1E"/>
</g>
<g clip-path="url(#clip2_1327_2932)">
<path d="M83.5313 68.0625H83.5312C74.9881 68.0625 68.0625 74.9881 68.0625 83.5312V83.5313C68.0625 92.0744 74.9881 99 83.5313 99C92.0744 99 99 92.0744 99 83.5312C99 74.9881 92.0744 68.0625 83.5313 68.0625Z" fill="#0091EB"/>
<path fill-rule="evenodd" clip-rule="evenodd" d="M78.6554 78.8363L77.7601 76.7107H82.9596V78.8363H81.115V82.2608H82.9596V84.3862H81.115V87.8107H82.9596V89.9363H76.667L77.5622 87.8107H78.6554V78.8363ZM87.984 82.8858C89.1957 83.5711 89.9968 84.7537 89.9968 86.0985C89.9968 88.2181 88.0085 89.9363 85.5558 89.9363H84.0527V87.8107H85.5558C86.6484 87.8107 87.5371 87.0426 87.5371 86.0985C87.5371 85.1544 86.6483 84.3863 85.5558 84.3863H84.0527V82.2607H84.4627C85.5552 82.2607 86.4439 81.4925 86.4439 80.5484C86.4439 79.6043 85.5552 78.8363 84.4627 78.8363H84.0527V76.7107H84.4627C86.9154 76.7107 88.9036 78.4289 88.9036 80.5485C88.9036 81.4283 88.5602 82.2384 87.984 82.8858Z" fill="white"/>
</g>
<defs>
<clipPath id="clip0_1327_2932">
<rect width="33.7021" height="33.7021" fill="white" transform="translate(32.6489 10.5316)"/>
</clipPath>
<clipPath id="clip1_1327_2932">
<rect width="33.7021" height="42.861" fill="white" transform="translate(32.6489 45.2874)"/>
</clipPath>
<clipPath id="clip2_1327_2932">
<rect width="30.9375" height="30.9375" fill="white" transform="translate(68.0625 68.0625)"/>
</clipPath>
</defs>
</svg>
