<svg width="34" height="34" viewBox="0 0 34 34" fill="none" xmlns="http://www.w3.org/2000/svg">
<circle cx="17" cy="17" r="17" fill="#191A1E"/>
<path fill-rule="evenodd" clip-rule="evenodd" d="M12 12C12 11.447 12.448 11 13 11C13.552 11 14 11.447 14 12C14 12.553 13.552 13 13 13C12.448 13 12 12.553 12 12ZM16 12C16 11.447 16.448 11 17 11C17.552 11 18 11.447 18 12C18 12.553 17.552 13 17 13C16.448 13 16 12.553 16 12ZM10 14V11C10 10.448 10.449 10 11 10H23C23.551 10 24 10.448 24 11V14H10ZM24 23C24 23.552 23.551 24 23 24H11C10.449 24 10 23.552 10 23V16H24V23ZM23 8H11C9.346 8 8 9.346 8 11V14V16V23C8 24.654 9.346 26 11 26H23C24.654 26 26 24.654 26 23V16V14V11C26 9.346 24.654 8 23 8V8Z" fill="white"/>
<mask id="mask0_76:3468" style="mask-type:alpha" maskUnits="userSpaceOnUse" x="8" y="8" width="18" height="18">
<path fill-rule="evenodd" clip-rule="evenodd" d="M12 12C12 11.447 12.448 11 13 11C13.552 11 14 11.447 14 12C14 12.553 13.552 13 13 13C12.448 13 12 12.553 12 12ZM16 12C16 11.447 16.448 11 17 11C17.552 11 18 11.447 18 12C18 12.553 17.552 13 17 13C16.448 13 16 12.553 16 12ZM10 14V11C10 10.448 10.449 10 11 10H23C23.551 10 24 10.448 24 11V14H10ZM24 23C24 23.552 23.551 24 23 24H11C10.449 24 10 23.552 10 23V16H24V23ZM23 8H11C9.346 8 8 9.346 8 11V14V16V23C8 24.654 9.346 26 11 26H23C24.654 26 26 24.654 26 23V16V14V11C26 9.346 24.654 8 23 8V8Z" fill="white"/>
</mask>
<g mask="url(#mask0_76:3468)">
</g>
</svg>
