<svg width="24" height="24" viewBox="0 0 24 24" fill="none" xmlns="http://www.w3.org/2000/svg">
<path d="M16.5933 17.3333H21.8333C21.3933 11.5267 18.8933 7.92 15.6866 5.78667L17.1466 2.60001C17.1908 2.49889 17.2091 2.3884 17.2 2.27844C17.191 2.16849 17.1547 2.0625 17.0946 1.97C17.0345 1.87749 16.9523 1.80136 16.8555 1.74842C16.7587 1.69548 16.6503 1.66739 16.54 1.66667H7.39997C7.28964 1.66739 7.18122 1.69548 7.08442 1.74842C6.98762 1.80136 6.90548 1.87749 6.84535 1.97C6.78522 2.0625 6.74899 2.16849 6.73991 2.27844C6.73082 2.3884 6.74917 2.49889 6.7933 2.60001L7.59331 4.33334H14.34L13.74 5.66667H12.5066C12.8833 6.6795 13.1602 7.72669 13.3333 8.79334C13.4455 9.45499 13.5167 10.1229 13.5466 10.7933L12.4933 11.5333C12.4962 10.671 12.4248 9.81007 12.28 8.96C12.0958 7.82865 11.778 6.72315 11.3333 5.66667H10.6666C10.0514 6.44405 9.49856 7.26884 9.01331 8.13334C8.62204 8.87491 8.2899 9.64619 8.01997 10.44L7.10664 9.83334C7.37323 9.0661 7.70095 8.32149 8.08664 7.60667C8.47635 6.93636 8.9037 6.28866 9.36664 5.66667H8.19997L8.2533 5.78C4.71997 8.13334 2.0333 12.2667 2.0333 19.1667C2.0243 19.3117 2.04412 19.4571 2.09162 19.5944C2.13913 19.7318 2.21337 19.8583 2.31008 19.9668C2.40678 20.0753 2.52401 20.1635 2.65501 20.2265C2.78602 20.2894 2.92818 20.3257 3.0733 20.3333H8.40664C8.17763 20.095 8.01951 19.7976 7.94999 19.4745C7.88047 19.1513 7.9023 18.8152 8.01303 18.5038C8.12377 18.1923 8.31903 17.9179 8.57694 17.7112C8.83485 17.5044 9.14523 17.3736 9.4733 17.3333C9.31365 17.0626 9.22854 16.7543 9.22664 16.44C9.22664 15.9626 9.41628 15.5048 9.75385 15.1672C10.0914 14.8296 10.5492 14.64 11.0266 14.64H15.0266C15.504 14.64 15.9619 14.8296 16.2994 15.1672C16.637 15.5048 16.8266 15.9626 16.8266 16.44C16.8301 16.7533 16.7495 17.0618 16.5933 17.3333Z" fill="#FFD700"/>
<path d="M14.4 19C14.4 18.8232 14.3297 18.6536 14.2047 18.5286C14.0797 18.4036 13.9101 18.3333 13.7333 18.3333H9.73332C9.55651 18.3333 9.38694 18.4036 9.26191 18.5286C9.13689 18.6536 9.06665 18.8232 9.06665 19C9.06665 19.1768 9.13689 19.3464 9.26191 19.4714C9.38694 19.5964 9.55651 19.6667 9.73332 19.6667H13.7333C13.9101 19.6667 14.0797 19.5964 14.2047 19.4714C14.3297 19.3464 14.4 19.1768 14.4 19Z" fill="#FFCE00"/>
<path d="M15.0267 15.6667H11.0267C10.8498 15.6667 10.6803 15.7369 10.5552 15.8619C10.4302 15.987 10.36 16.1565 10.36 16.3333C10.36 16.5101 10.4302 16.6797 10.5552 16.8047C10.6803 16.9298 10.8498 17 11.0267 17H15.0267C15.2035 17 15.373 16.9298 15.4981 16.8047C15.6231 16.6797 15.6933 16.5101 15.6933 16.3333C15.6933 16.1565 15.6231 15.987 15.4981 15.8619C15.373 15.7369 15.2035 15.6667 15.0267 15.6667Z" fill="#FFCE00"/>
<path d="M14.6667 21H10.6667C10.4899 21 10.3203 21.0702 10.1953 21.1953C10.0702 21.3203 10 21.4899 10 21.6667C10 21.8435 10.0702 22.013 10.1953 22.1381C10.3203 22.2631 10.4899 22.3333 10.6667 22.3333H14.6667C14.8435 22.3333 15.013 22.2631 15.1381 22.1381C15.2631 22.013 15.3333 21.8435 15.3333 21.6667C15.3333 21.4899 15.2631 21.3203 15.1381 21.1953C15.013 21.0702 14.8435 21 14.6667 21Z" fill="#FFCE00"/>
<path d="M21.8 21H17.1333C16.9565 21 16.787 21.0702 16.6619 21.1953C16.5369 21.3203 16.4667 21.4899 16.4667 21.6667C16.4667 21.8435 16.5369 22.013 16.6619 22.1381C16.787 22.2631 16.9565 22.3333 17.1333 22.3333H21.8C21.9768 22.3333 22.1464 22.2631 22.2714 22.1381C22.3964 22.013 22.4667 21.8435 22.4667 21.6667C22.4667 21.4899 22.3964 21.3203 22.2714 21.1953C22.1464 21.0702 21.9768 21 21.8 21Z" fill="#FFCE00"/>
<path d="M22.4667 18.3333H17.8C17.6232 18.3333 17.4536 18.4036 17.3286 18.5286C17.2036 18.6536 17.1334 18.8232 17.1334 19C17.1334 19.1768 17.2036 19.3464 17.3286 19.4714C17.4536 19.5964 17.6232 19.6667 17.8 19.6667H22.4667C22.6435 19.6667 22.8131 19.5964 22.9381 19.4714C23.0631 19.3464 23.1334 19.1768 23.1334 19C23.1334 18.8232 23.0631 18.6536 22.9381 18.5286C22.8131 18.4036 22.6435 18.3333 22.4667 18.3333Z" fill="#FFCE00"/>
<path d="M17.0867 9.00001C16.558 9.00364 16.1303 9.43133 16.1267 9.96001C16.1231 9.43133 15.6954 9.00364 15.1667 9.00001C15.6969 9.00001 16.1267 8.5702 16.1267 8.04001C16.1267 8.5702 16.5565 9.00001 17.0867 9.00001Z" fill="white"/>
<path d="M7.12667 15.2933C6.59798 15.297 6.1703 15.7247 6.16667 16.2533C6.16303 15.7247 5.73535 15.297 5.20667 15.2933C5.73686 15.2933 6.16667 14.8635 6.16667 14.3333C6.16667 14.8635 6.59647 15.2933 7.12667 15.2933Z" fill="white"/>
<path d="M14.96 9.99999C14.7764 10.0013 14.6279 10.1498 14.6267 10.3333C14.6254 10.1498 14.4769 10.0013 14.2933 9.99999C14.4774 9.99999 14.6267 9.85075 14.6267 9.66666C14.6267 9.85075 14.7759 9.99999 14.96 9.99999Z" fill="white"/>
<path d="M5.66667 16C5.4831 16.0013 5.33459 16.1498 5.33333 16.3333C5.33207 16.1498 5.18357 16.0013 5 16C5.18409 16 5.33333 15.8508 5.33333 15.6667C5.33333 15.8508 5.48257 16 5.66667 16Z" fill="white"/>
<path d="M15.6667 10.6667C15.4831 10.6679 15.3346 10.8164 15.3333 11C15.3321 10.8164 15.1836 10.6679 15 10.6667C15.1841 10.6667 15.3333 10.5174 15.3333 10.3333C15.3333 10.5174 15.4826 10.6667 15.6667 10.6667Z" fill="white"/>
<path d="M7.00004 16.6667C6.81647 16.6679 6.66797 16.8164 6.66671 17C6.66545 16.8164 6.51694 16.6679 6.33337 16.6667C6.51747 16.6667 6.66671 16.5174 6.66671 16.3333C6.66671 16.5174 6.81595 16.6667 7.00004 16.6667Z" fill="white"/>
<path d="M7.58669 5.96C7.05801 5.96363 6.63032 6.39132 6.62669 6.92C6.62305 6.39132 6.19537 5.96363 5.66669 5.96C6.19688 5.96 6.62669 5.53019 6.62669 5C6.62669 5.53019 7.05649 5.96 7.58669 5.96Z" fill="white"/>
<path d="M16.3334 15.92C15.7827 15.9238 15.3372 16.3693 15.3334 16.92C15.3296 16.3693 14.8841 15.9238 14.3334 15.92C14.8857 15.92 15.3334 15.4723 15.3334 14.92C15.3334 15.4723 15.7811 15.92 16.3334 15.92Z" fill="white"/>
</svg>
