<svg width="43" height="42" viewBox="0 0 43 42" fill="none" xmlns="http://www.w3.org/2000/svg">
<g clip-path="url(#clip0_167:2935)">
<rect opacity="0.1" x="0.416504" width="42" height="42" rx="21" fill="#CD2A16"/>
<path d="M28.0936 18.0835C28.7186 17.6147 29.2811 17.0522 29.7186 16.396C29.1561 16.646 28.4999 16.8335 27.8436 16.896C28.5311 16.4897 29.0311 15.8647 29.2811 15.0835C28.6561 15.4585 27.9374 15.7397 27.2186 15.896C26.5936 15.2397 25.7499 14.8647 24.8124 14.8647C22.9999 14.8647 21.5311 16.3335 21.5311 18.146C21.5311 18.396 21.5624 18.646 21.6249 18.896C18.9061 18.7397 16.4686 17.4272 14.8436 15.4585C14.5624 15.9272 14.4061 16.4897 14.4061 17.1147C14.4061 18.2397 14.9686 19.2397 15.8749 19.8335C15.3436 19.8022 14.8124 19.6772 14.3749 19.4272V19.4585C14.3749 21.0522 15.4999 22.3647 16.9999 22.6772C16.7499 22.7397 16.4374 22.8022 16.1561 22.8022C15.9374 22.8022 15.7499 22.771 15.5311 22.7397C15.9374 24.0522 17.1561 24.9897 18.5936 25.021C17.4686 25.896 16.0624 26.4272 14.5311 26.4272C14.2499 26.4272 13.9999 26.396 13.7499 26.3647C15.1874 27.3022 16.9061 27.8335 18.7811 27.8335C24.8124 27.8335 28.0936 22.8647 28.0936 18.521C28.0936 18.3647 28.0936 18.2397 28.0936 18.0835Z" fill="#CD2A16"/>
</g>
<defs>
<clipPath id="clip0_167:2935">
<rect width="42" height="42" fill="white" transform="translate(0.416504)"/>
</clipPath>
</defs>
</svg>
