<svg width="43" height="42" viewBox="0 0 43 42" fill="none" xmlns="http://www.w3.org/2000/svg">
<g clip-path="url(#clip0_167:2938)">
<rect opacity="0.1" x="0.143921" width="42" height="42" rx="21" fill="#CD2A16"/>
<path d="M15.2789 17.448C15.2881 17.3567 15.2758 17.2645 15.2429 17.1788C15.2101 17.0931 15.1577 17.0163 15.0899 16.9545L13.6889 15.2543V15H18.0374L21.3989 22.4288L24.3539 15H28.4999V15.2543L27.3021 16.41C27.2514 16.4492 27.2122 16.5014 27.1888 16.5611C27.1655 16.6208 27.1587 16.6858 27.1694 16.749V25.2495C27.1587 25.3127 27.1655 25.3777 27.1888 25.4374C27.2122 25.4971 27.2514 25.5493 27.3021 25.5885L28.4721 26.745V27H22.5891V26.7457L23.8011 25.5607C23.9204 25.4407 23.9204 25.4055 23.9204 25.2225V18.351L20.5514 26.9715H20.0969L16.1744 18.351V24.129C16.1421 24.3713 16.2224 24.6165 16.3919 24.792L17.9676 26.718V26.9715H13.4999V26.718L15.0749 24.792C15.1582 24.705 15.2201 24.5998 15.2555 24.4847C15.2909 24.3696 15.2989 24.2478 15.2789 24.129V17.448Z" fill="#CD2A16"/>
</g>
<defs>
<clipPath id="clip0_167:2938">
<rect width="42" height="42" fill="white" transform="translate(0.143921)"/>
</clipPath>
</defs>
</svg>
