<svg width="34" height="34" viewBox="0 0 34 34" fill="none" xmlns="http://www.w3.org/2000/svg">
<circle cx="17" cy="17" r="17" fill="#191A1E"/>
<path d="M10.571 13.079C10.2845 11.192 11.615 9.49698 13.6475 8.87598C14.0082 8.76571 14.3973 8.7971 14.7357 8.96376C15.074 9.13042 15.3361 9.41982 15.4685 9.77298L16.121 11.513C16.226 11.7929 16.245 12.0978 16.1755 12.3886C16.1061 12.6794 15.9512 12.9428 15.731 13.145L13.79 14.9225C13.6943 15.0103 13.623 15.1214 13.5831 15.2449C13.5431 15.3685 13.5359 15.5003 13.562 15.6275L13.58 15.7055L13.6265 15.9005C13.8679 16.8479 14.2357 17.7586 14.72 18.608C15.2476 19.5105 15.9023 20.3325 16.664 21.0485L16.724 21.1025C16.8209 21.1885 16.9384 21.2479 17.0651 21.275C17.1918 21.3021 17.3234 21.2959 17.447 21.257L19.9565 20.4665C20.2417 20.3769 20.5471 20.3746 20.8337 20.4599C21.1202 20.5452 21.3747 20.7141 21.5645 20.945L22.7525 22.3865C23.2475 22.9865 23.1875 23.8685 22.619 24.398C21.0635 25.8485 18.9245 26.1455 17.4365 24.95C15.6125 23.4787 14.0749 21.6843 12.9005 19.6565C11.7165 17.6302 10.9257 15.3986 10.5695 13.079H10.571ZM15.1355 15.7265L16.7435 14.2505C17.1843 13.8463 17.4941 13.3196 17.6334 12.738C17.7726 12.1564 17.7349 11.5465 17.525 10.9865L16.874 9.24648C16.6075 8.53585 16.0801 7.95357 15.3992 7.61829C14.7183 7.28301 13.9352 7.21996 13.2095 7.44198C10.685 8.21448 8.6585 10.478 9.0875 13.3055C9.3875 15.2795 10.079 17.7905 11.6045 20.4125C12.8716 22.599 14.5302 24.5337 16.4975 26.12C18.7295 27.9125 21.7085 27.3005 23.6435 25.4975C24.7925 24.4265 24.9095 22.6475 23.912 21.4355L22.724 19.9925C22.344 19.5312 21.8348 19.194 21.2618 19.024C20.6888 18.854 20.0781 18.8591 19.508 19.0385L17.4245 19.694C16.8866 19.1393 16.4154 18.5236 16.0205 17.8595C15.6391 17.188 15.3418 16.4721 15.1355 15.728V15.7265Z" fill="white"/>
</svg>
