<svg width="14" height="14" viewBox="0 0 14 14" fill="none" xmlns="http://www.w3.org/2000/svg">
<path d="M8.33336 13.6666H1.66669C1.48994 13.6728 1.31382 13.6425 1.14927 13.5777C0.984724 13.5128 0.835275 13.4148 0.710218 13.2898C0.58516 13.1647 0.487168 13.0153 0.422336 12.8507C0.357503 12.6862 0.327216 12.51 0.333358 12.3333V5.66663C0.327216 5.48988 0.357503 5.31375 0.422336 5.14921C0.487168 4.98466 0.58516 4.83521 0.710218 4.71016C0.835275 4.5851 0.984724 4.48711 1.14927 4.42227C1.31382 4.35744 1.48994 4.32716 1.66669 4.3333H4.33336V1.66663C4.32722 1.48988 4.3575 1.31375 4.42234 1.14921C4.48717 0.984663 4.58516 0.835214 4.71022 0.710157C4.83528 0.585099 4.98472 0.487107 5.14927 0.422275C5.31382 0.357442 5.48994 0.327155 5.66669 0.333297H12.3334C12.5101 0.327155 12.6862 0.357442 12.8508 0.422275C13.0153 0.487107 13.1648 0.585099 13.2898 0.710157C13.4149 0.835214 13.5129 0.984663 13.5777 1.14921C13.6425 1.31375 13.6728 1.48988 13.6667 1.66663V8.3333C13.6727 8.51002 13.6424 8.6861 13.5775 8.85061C13.5126 9.01511 13.4146 9.16452 13.2896 9.28955C13.1646 9.41459 13.0152 9.51258 12.8507 9.57745C12.6862 9.64232 12.5101 9.67267 12.3334 9.66663H9.66669V12.3333C9.67274 12.51 9.64238 12.6861 9.57751 12.8506C9.51265 13.0151 9.41465 13.1645 9.28961 13.2896C9.16458 13.4146 9.01517 13.5126 8.85067 13.5775C8.68616 13.6423 8.51008 13.6727 8.33336 13.6666ZM1.66669 5.66663V12.3333H8.33336V9.66663H5.66669C5.48997 9.67267 5.31389 9.64232 5.14938 9.57745C4.98488 9.51258 4.83547 9.41459 4.71044 9.28955C4.5854 9.16452 4.4874 9.01511 4.42254 8.85061C4.35767 8.6861 4.32732 8.51002 4.33336 8.3333V5.66663H1.66669ZM5.66669 1.66663V8.3333H12.3334V1.66663H5.66669Z" fill="#575962"/>
</svg>
