<svg width="34" height="34" viewBox="0 0 34 34" fill="none" xmlns="http://www.w3.org/2000/svg">
<circle cx="17" cy="17" r="17" fill="#191A1E"/>
<path d="M11.9583 7.83337C11.7152 7.83337 11.4821 7.92995 11.3101 8.10186C11.1382 8.27377 11.0417 8.50693 11.0417 8.75004V8.85271C10.1304 9.06074 9.31677 9.57196 8.73392 10.3027C8.15107 11.0334 7.83355 11.9403 7.83333 12.875V13.227C7.83325 14.0751 8.07411 14.9058 8.52787 15.6223C8.98162 16.3388 9.6296 16.9116 10.3963 17.2741L11.0417 17.5785V23.2068C10.633 23.0284 10.2853 22.7348 10.0411 22.3618C9.79683 21.9887 9.66671 21.5526 9.66666 21.1067V20.3321C9.66666 20.089 9.57008 19.8559 9.39818 19.6839C9.22627 19.512 8.99311 19.4155 8.74999 19.4155C8.50688 19.4155 8.27372 19.512 8.10181 19.6839C7.92991 19.8559 7.83333 20.089 7.83333 20.3321V21.1067C7.83334 22.0416 8.15077 22.9487 8.73363 23.6796C9.3165 24.4105 10.1303 24.9219 11.0417 25.13V25.2436C11.0417 25.4867 11.1382 25.7199 11.3101 25.8918C11.4821 26.0637 11.7152 26.1603 11.9583 26.1603C12.2014 26.1603 12.4346 26.0637 12.6065 25.8918C12.7784 25.7199 12.875 25.4867 12.875 25.2436V25.13C13.7864 24.9219 14.6002 24.4105 15.183 23.6796C15.7659 22.9487 16.0833 22.0416 16.0833 21.1067V20.7657C16.0835 19.919 15.8431 19.0897 15.3901 18.3743C14.9372 17.659 14.2903 17.087 13.5249 16.725L12.875 16.418V10.774C13.2838 10.9524 13.6316 11.2463 13.8759 11.6195C14.1201 11.9927 14.2501 12.429 14.25 12.875V13.668C14.25 13.9111 14.3466 14.1442 14.5185 14.3161C14.6904 14.488 14.9235 14.5846 15.1667 14.5846C15.4098 14.5846 15.6429 14.488 15.8148 14.3161C15.9868 14.1442 16.0833 13.9111 16.0833 13.668V12.875C16.0831 11.9403 15.7656 11.0334 15.1827 10.3027C14.5999 9.57196 13.7863 9.06074 12.875 8.85271V8.75004C12.875 8.50693 12.7784 8.27377 12.6065 8.10186C12.4346 7.92995 12.2014 7.83337 11.9583 7.83337ZM9.66666 12.875C9.66653 12.429 9.79656 11.9927 10.0408 11.6195C10.285 11.2463 10.6329 10.9524 11.0417 10.774V15.5462C10.6255 15.3186 10.2782 14.9831 10.0363 14.5751C9.79437 14.167 9.6667 13.7014 9.66666 13.227V12.875ZM12.875 23.2068V18.4502C13.7183 18.9095 14.25 19.7959 14.25 20.7648V21.1058C14.2501 21.5518 14.1201 21.9882 13.8759 22.3614C13.6316 22.7346 13.2838 23.0284 12.875 23.2068Z" fill="white"/>
<path d="M19.75 17C19.75 16.6957 19.7637 16.3977 19.7894 16.1062H20.6667C20.9098 16.1062 21.1429 16.0097 21.3148 15.8378C21.4868 15.6659 21.5833 15.4327 21.5833 15.1896C21.5833 14.9465 21.4868 14.7133 21.3148 14.5414C21.1429 14.3695 20.9098 14.2729 20.6667 14.2729H20.1377C20.3385 13.5827 20.641 12.9262 21.0352 12.325C21.8143 11.1627 22.7915 10.5833 23.7503 10.5833C24.0968 10.5833 24.4699 10.6906 24.7284 10.8675C24.8277 10.9373 24.9398 10.9867 25.0583 11.0128C25.1767 11.0389 25.2992 11.0412 25.4186 11.0196C25.538 10.9981 25.6519 10.953 25.7538 10.8871C25.8556 10.8211 25.9433 10.7356 26.0119 10.6355C26.0805 10.5354 26.1285 10.4227 26.1531 10.3039C26.1778 10.1852 26.1786 10.0627 26.1556 9.94354C26.1325 9.82442 26.0861 9.71107 26.0189 9.61004C25.9517 9.50901 25.8652 9.42232 25.7642 9.355C25.162 8.9425 24.4158 8.75 23.7503 8.75C21.9931 8.75 20.5117 9.81242 19.5126 11.3038C18.9452 12.1499 18.5097 13.1601 18.2384 14.2729H17C16.7569 14.2729 16.5237 14.3695 16.3518 14.5414C16.1799 14.7133 16.0833 14.9465 16.0833 15.1896C16.0833 15.4327 16.1799 15.6659 16.3518 15.8378C16.5237 16.0097 16.7569 16.1062 17 16.1062H17.9497C17.9277 16.3996 17.9167 16.6984 17.9167 17V17.0248H17C16.7569 17.0248 16.5237 17.1213 16.3518 17.2932C16.1799 17.4651 16.0833 17.6983 16.0833 17.9414C16.0833 18.1845 16.1799 18.4177 16.3518 18.5896C16.5237 18.7615 16.7569 18.8581 17 18.8581H18.0633C18.2971 20.3138 18.8003 21.6356 19.5117 22.6962C20.5127 24.1867 21.994 25.25 23.7503 25.25C24.3892 25.25 25.1574 25.0905 25.7872 24.6358C25.9842 24.4934 26.1166 24.2785 26.1552 24.0384C26.1938 23.7983 26.1354 23.5528 25.993 23.3557C25.8505 23.1587 25.6356 23.0263 25.3955 22.9877C25.1554 22.9491 24.9099 23.0075 24.7128 23.1499C24.48 23.3177 24.1225 23.4167 23.7503 23.4167C22.7915 23.4167 21.8143 22.8373 21.0352 21.675C20.5282 20.9197 20.1368 19.9553 19.9242 18.8562H20.6667C20.9098 18.8562 21.1429 18.7597 21.3148 18.5878C21.4868 18.4159 21.5833 18.1827 21.5833 17.9396C21.5833 17.6965 21.4868 17.4633 21.3148 17.2914C21.1429 17.1195 20.9098 17.0229 20.6667 17.0229H19.75V17Z" fill="white"/>
</svg>
