<svg width="36" height="36" viewBox="0 0 36 36" fill="none" xmlns="http://www.w3.org/2000/svg">
<circle cx="18" cy="18" r="15" fill="#CD2A16"/>
<path fill-rule="evenodd" clip-rule="evenodd" d="M22.9099 15.3483L20.2583 18L22.9099 20.6517C23.6391 21.3809 23.6391 22.5741 22.9099 23.3033C22.1807 24.0325 20.9875 24.0325 20.2583 23.3033L17.6066 20.6517L14.955 23.3033C14.2257 24.0325 13.0325 24.0325 12.3033 23.3033C11.5741 22.5741 11.5741 21.3809 12.3033 20.6517L14.955 18L12.3033 15.3483C11.5741 14.6191 11.5741 13.4259 12.3033 12.6967C13.0325 11.9675 14.2257 11.9675 14.955 12.6967L17.6066 15.3483L20.2583 12.6967C20.9875 11.9675 22.1807 11.9675 22.9099 12.6967C23.6391 13.4259 23.6391 14.6191 22.9099 15.3483" fill="white"/>
</svg>
