<svg width="36" height="36" viewBox="0 0 36 36" fill="none" xmlns="http://www.w3.org/2000/svg">
<circle cx="18" cy="18" r="15" fill="#26A17B"/>
<path fill-rule="evenodd" clip-rule="evenodd" d="M18.0004 24.0004C17.6164 24.0004 17.2324 23.8534 16.9399 23.5609L10.9399 17.5609C10.3534 16.9744 10.3534 16.0264 10.9399 15.4399C11.5264 14.8534 12.4744 14.8534 13.0609 15.4399L18.0184 20.3974L22.9579 15.6274C23.5564 15.0529 24.5029 15.0694 25.0789 15.6649C25.6549 16.2604 25.6384 17.2114 25.0429 17.7859L19.0429 23.5789C18.7504 23.8609 18.3754 24.0004 18.0004 24.0004Z" fill="white"/>
<mask id="mask0_76:5710" style="mask-type:alpha" maskUnits="userSpaceOnUse" x="10" y="15" width="16" height="10">
<path fill-rule="evenodd" clip-rule="evenodd" d="M18.0004 24.0004C17.6164 24.0004 17.2324 23.8534 16.9399 23.5609L10.9399 17.5609C10.3534 16.9744 10.3534 16.0264 10.9399 15.4399C11.5264 14.8534 12.4744 14.8534 13.0609 15.4399L18.0184 20.3974L22.9579 15.6274C23.5564 15.0529 24.5029 15.0694 25.0789 15.6649C25.6549 16.2604 25.6384 17.2114 25.0429 17.7859L19.0429 23.5789C18.7504 23.8609 18.3754 24.0004 18.0004 24.0004Z" fill="white"/>
</mask>
<g mask="url(#mask0_76:5710)">
</g>
</svg>
