<svg width="15" height="15" viewBox="0 0 15 15" fill="none" xmlns="http://www.w3.org/2000/svg">
<path d="M7.5 0H7.5C3.35786 0 0 3.35786 0 7.5V7.5C0 11.6421 3.35786 15 7.5 15C11.6421 15 15 11.6421 15 7.5C15 3.35786 11.6421 0 7.5 0Z" fill="#F0B90B"/>
<g clip-path="url(#clip0_452:1965)">
<path d="M7.63375 4.0332L8.52591 4.94413L6.27937 7.18395L5.38721 6.29445L7.63375 4.0332Z" fill="white"/>
<path d="M8.98812 5.3833L9.88029 6.29423L6.27937 9.88437L5.38721 8.99487L8.98812 5.3833Z" fill="white"/>
<path d="M4.92506 6.73389L5.81723 7.64482L4.92506 8.53431L4.0329 7.64482L4.92506 6.73389Z" fill="white"/>
<path d="M10.3427 6.73389L11.2348 7.64482L7.63393 11.235L6.74176 10.3455L10.3427 6.73389Z" fill="white"/>
</g>
<defs>
<clipPath id="clip0_452:1965">
<rect width="7.23214" height="7.23214" fill="white" transform="translate(4.01788 4.01807)"/>
</clipPath>
</defs>
</svg>
