<svg width="34" height="34" viewBox="0 0 34 34" fill="none" xmlns="http://www.w3.org/2000/svg">
<circle cx="17" cy="17" r="17" fill="#191A1E"/>
<path d="M11.75 10.25C9.275 10.25 7.25 12.275 7.25 14.75C7.25 16.238 7.98275 17.5625 9.10175 18.383C7.124 19.364 5.75 21.398 5.75 23.75H7.25C7.25 21.257 9.257 19.25 11.75 19.25C14.243 19.25 16.25 21.257 16.25 23.75H17.75C17.75 21.257 19.757 19.25 22.25 19.25C24.743 19.25 26.75 21.257 26.75 23.75H28.25C28.25 21.3973 26.876 19.364 24.8983 18.383C25.4709 17.9657 25.937 17.4193 26.2588 16.788C26.5805 16.1568 26.7488 15.4585 26.75 14.75C26.75 12.275 24.725 10.25 22.25 10.25C19.775 10.25 17.75 12.275 17.75 14.75C17.75 16.238 18.4827 17.5625 19.6017 18.383C18.5059 18.9218 17.5989 19.7796 17 20.8438C16.4011 19.7796 15.4941 18.9218 14.3983 18.383C14.9709 17.9657 15.437 17.4193 15.7588 16.788C16.0805 16.1568 16.2488 15.4585 16.25 14.75C16.25 12.275 14.225 10.25 11.75 10.25ZM11.75 11.75C13.4173 11.75 14.75 13.0827 14.75 14.75C14.75 16.4173 13.4173 17.75 11.75 17.75C10.0827 17.75 8.75 16.4173 8.75 14.75C8.75 13.0827 10.0827 11.75 11.75 11.75ZM22.25 11.75C23.9172 11.75 25.25 13.0827 25.25 14.75C25.25 16.4173 23.9172 17.75 22.25 17.75C20.5828 17.75 19.25 16.4173 19.25 14.75C19.25 13.0827 20.5828 11.75 22.25 11.75Z" fill="white"/>
</svg>
