<svg width="24" height="25" viewBox="0 0 24 25" fill="none" xmlns="http://www.w3.org/2000/svg">
<circle cx="12" cy="12.808" r="12" fill="#191A1E"/>
<path fill-rule="evenodd" clip-rule="evenodd" d="M18 6.80798L14.6667 10.1413L12 6.80798L9.33333 10.1413L6 6.80798V15.4747H18V6.80798ZM7.33333 19.4747H16.6667C17.403 19.4747 18 18.8777 18 18.1413V16.808H6V18.1413C6 18.8777 6.59695 19.4747 7.33333 19.4747Z" fill="#FFD700"/>
<path d="M17.42 10.808C16.8913 10.8116 16.4636 11.2393 16.46 11.768C16.4564 11.2393 16.0287 10.8116 15.5 10.808C16.0302 10.808 16.46 10.3782 16.46 9.84798C16.46 10.3782 16.8898 10.808 17.42 10.808Z" fill="white"/>
<path d="M7.46001 17.1013C6.93133 17.105 6.50364 17.5326 6.50001 18.0613C6.49637 17.5326 6.06869 17.105 5.54001 17.1013C6.0702 17.1013 6.50001 16.6715 6.50001 16.1413C6.50001 16.6715 6.92982 17.1013 7.46001 17.1013Z" fill="white"/>
<path d="M15.2933 11.808C15.1098 11.8092 14.9613 11.9577 14.96 12.1413C14.9588 11.9577 14.8102 11.8092 14.6267 11.808C14.8108 11.808 14.96 11.6587 14.96 11.4746C14.96 11.6587 15.1093 11.808 15.2933 11.808Z" fill="white"/>
<path d="M6.00001 17.808C5.81644 17.8092 5.66794 17.9577 5.66668 18.1413C5.66542 17.9577 5.51691 17.8092 5.33334 17.808C5.51744 17.808 5.66668 17.6587 5.66668 17.4746C5.66668 17.6587 5.81592 17.808 6.00001 17.808Z" fill="white"/>
<path d="M16 12.4747C15.8164 12.4759 15.6679 12.6244 15.6667 12.808C15.6654 12.6244 15.5169 12.4759 15.3333 12.4747C15.5174 12.4747 15.6667 12.3254 15.6667 12.1413C15.6667 12.3254 15.8159 12.4747 16 12.4747Z" fill="white"/>
<path d="M7.33332 18.4747C7.14975 18.4759 7.00125 18.6244 6.99999 18.808C6.99873 18.6244 6.85023 18.4759 6.66666 18.4747C6.85075 18.4747 6.99999 18.3254 6.99999 18.1413C6.99999 18.3254 7.14923 18.4747 7.33332 18.4747Z" fill="white"/>
<path d="M7.92 7.76798C7.39132 7.77162 6.96363 8.1993 6.96 8.72798C6.95637 8.1993 6.52868 7.77162 6 7.76798C6.53019 7.76798 6.96 7.33818 6.96 6.80798C6.96 7.33818 7.38981 7.76798 7.92 7.76798Z" fill="white"/>
<path d="M16.6667 17.728C16.1159 17.7318 15.6704 18.1773 15.6667 18.728C15.6629 18.1773 15.2174 17.7318 14.6667 17.728C15.2189 17.728 15.6667 17.2803 15.6667 16.728C15.6667 17.2803 16.1144 17.728 16.6667 17.728Z" fill="white"/>
</svg>
