<svg width="34" height="34" viewBox="0 0 34 34" fill="none" xmlns="http://www.w3.org/2000/svg">
<path fill-rule="evenodd" clip-rule="evenodd" d="M17 34C26.3888 34 34 26.3888 34 17C34 7.61116 26.3888 0 17 0C7.61116 0 0 7.61116 0 17C0 26.3888 7.61116 34 17 34Z" fill="#CD2A16"/>
<g clip-path="url(#clip0_337:3516)">
<path d="M21.8221 5.2309C21.521 4.94979 21.117 4.77747 20.6726 4.77747C18.7867 4.77747 17.233 6.19907 17.0242 8.02912C17.038 8.0286 17.0519 8.02808 17.0659 8.02808C17.6275 8.02808 18.0943 8.44135 18.1783 8.9797H19.9134C19.9945 8.45989 20.4324 8.05668 20.968 8.02955C20.9555 7.65847 21.0806 7.30692 21.3023 7.03155C21.1359 6.83526 21.0352 6.58152 21.0352 6.30459C21.0352 5.80181 21.3664 5.37509 21.8221 5.2309Z" fill="#191A1E"/>
<path d="M13.3275 4.77747C12.883 4.77747 12.479 4.94977 12.1779 5.23093C12.6336 5.37511 12.9649 5.80183 12.9649 6.30457C12.9649 6.5815 12.8642 6.83521 12.6978 7.03153C12.9193 7.30667 13.0444 7.65793 13.0321 8.02869C13.5825 8.04074 14.0368 8.44933 14.1196 8.97972H15.9536C16.0331 8.47035 16.4553 8.07332 16.9762 8.03199C16.7686 6.20056 15.2144 4.77747 13.3275 4.77747Z" fill="#191A1E"/>
<path d="M21.0257 10.2797C20.8326 10.2797 20.6508 10.2308 20.4919 10.1448L19.0874 11.3106C18.9924 11.3894 18.8541 11.3871 18.7619 11.3051L17.5069 10.1897C17.3714 10.2475 17.2224 10.2797 17.0659 10.2797C16.8987 10.2797 16.7401 10.2428 16.5973 10.1771L15.2318 11.3105C15.1855 11.349 15.1288 11.3681 15.0722 11.3681C15.0128 11.3681 14.9535 11.347 14.9062 11.305L13.5774 10.124C13.4101 10.2227 13.2152 10.2796 13.0073 10.2796V12.5442C13.0436 12.5236 13.0856 12.5116 13.1304 12.5116H20.8697C20.9321 12.5116 20.989 12.5347 21.0328 12.5725V10.2795C21.0304 10.2795 21.0281 10.2797 21.0257 10.2797Z" fill="#191A1E"/>
<path d="M20.8696 13.0113H13.1303C13.0855 13.0113 13.0436 12.9994 13.0072 12.9787V13.1498C13.0072 13.6366 13.4018 14.0312 13.8886 14.0312H20.1513C20.6381 14.0312 21.0327 13.6365 21.0327 13.1498V12.9504C20.9889 12.9883 20.932 13.0113 20.8696 13.0113Z" fill="#191A1E"/>
<path d="M15.9837 9.4635H14.0894C14.0568 9.57732 14.0069 9.68391 13.9424 9.77994L15.0777 10.789L16.1927 9.86354C16.0979 9.74717 16.0261 9.6115 15.9837 9.4635Z" fill="#191A1E"/>
<path d="M19.9434 9.46362H18.1481C18.1027 9.62191 18.0236 9.76594 17.9189 9.88752L18.9334 10.7891L20.1121 9.81079C20.0371 9.70689 19.9796 9.58979 19.9434 9.46362Z" fill="#191A1E"/>
<path d="M11.839 5.67822C11.4937 5.67822 11.2128 5.95915 11.2128 6.30442C11.2128 6.64969 11.4937 6.93062 11.839 6.93062C12.1843 6.93062 12.4652 6.64973 12.4652 6.30442C12.4652 5.95915 12.1843 5.67822 11.839 5.67822Z" fill="#191A1E"/>
<path d="M22.161 5.67822C21.8158 5.67822 21.5349 5.95913 21.5349 6.30442C21.5349 6.64971 21.8158 6.93062 22.161 6.93062C22.5063 6.93062 22.7872 6.64969 22.7872 6.30442C22.7872 5.95915 22.5063 5.67822 22.161 5.67822Z" fill="#191A1E"/>
<path d="M13.0072 8.52759C12.6619 8.52759 12.381 8.80849 12.381 9.15378C12.381 9.49907 12.6619 9.77996 13.0072 9.77996C13.3526 9.77996 13.6335 9.49905 13.6335 9.15378C13.6335 8.80852 13.3525 8.52759 13.0072 8.52759Z" fill="#191A1E"/>
<path d="M17.0659 8.52759C16.7206 8.52759 16.4397 8.80849 16.4397 9.15378C16.4397 9.49907 16.7206 9.77996 17.0659 9.77996C17.4112 9.77996 17.6921 9.49905 17.6921 9.15378C17.6921 8.80852 17.4112 8.52759 17.0659 8.52759Z" fill="#191A1E"/>
<path d="M21.0256 8.52771C20.6803 8.52771 20.3994 8.80862 20.3994 9.15391C20.3994 9.49917 20.6803 9.78008 21.0256 9.78008C21.3709 9.78008 21.6518 9.49917 21.6518 9.15391C21.6518 8.80862 21.3709 8.52771 21.0256 8.52771Z" fill="#191A1E"/>
</g>
<g clip-path="url(#clip1_337:3516)">
<path d="M14.1617 20.8982V23.2326C14.1652 23.6089 14.0194 23.9712 13.7562 24.2401C13.6372 24.381 13.4884 24.4938 13.3205 24.5703C13.1527 24.6468 12.97 24.6851 12.7855 24.6825H11.8394V23.2449H12.3426C12.4099 23.2498 12.4771 23.235 12.536 23.2023C12.5949 23.1695 12.643 23.1203 12.6743 23.0606C12.7498 22.939 12.788 22.7981 12.7844 22.6551V17.0031H11.8394L11.7411 16.782C11.6755 16.6346 11.6018 16.4668 11.5199 16.2787C11.4626 16.1477 11.4093 16.0207 11.3601 15.8978C11.3028 15.7667 11.2537 15.6521 11.2128 15.5539H14.1617V20.8982ZM16.2997 15.5532H14.9235V24.6825C15.0709 25.9198 15.3003 27.7833 15.6116 30.2732C15.7672 29.0281 15.9965 27.1645 16.2997 24.6825V22.1023C16.3731 21.9136 16.4795 21.6392 16.6191 21.2791C16.8157 22.0327 17.1106 23.1671 17.5038 24.6825H18.8799C18.5359 23.5358 18.0116 21.8156 17.3072 19.522C17.6427 18.6374 18.1464 17.3145 18.8184 15.5534H17.4423C17.1883 16.4463 16.8074 17.7897 16.2995 19.5835L16.2997 15.5532ZM19.6417 15.5655V17.0031H20.5141V24.6825H21.9026V17.0031H22.7872V15.5655H19.6417Z" fill="#191A1E"/>
</g>
<defs>
<clipPath id="clip0_337:3516">
<rect width="11.5745" height="11.5745" fill="white" transform="translate(11.2128 3.61707)"/>
</clipPath>
<clipPath id="clip1_337:3516">
<rect width="11.5745" height="14.72" fill="white" transform="translate(11.2128 15.5532)"/>
</clipPath>
</defs>
</svg>
