<svg width="14" height="14" viewBox="0 0 14 14" fill="none" xmlns="http://www.w3.org/2000/svg">
<path d="M8.00078 13.3341H1.33411C1.15736 13.3403 0.981235 13.31 0.816689 13.2451C0.652143 13.1803 0.502694 13.0823 0.377637 12.9573C0.25258 12.8322 0.154588 12.6827 0.0897552 12.5182C0.0249226 12.3537 -0.00536433 12.1775 0.000777838 12.0008V5.33411C-0.00536433 5.15736 0.0249226 4.98124 0.0897552 4.81669C0.154588 4.65214 0.25258 4.50269 0.377637 4.37764C0.502694 4.25258 0.652143 4.15459 0.816689 4.08976C0.981235 4.02492 1.15736 3.99464 1.33411 4.00078H4.00078V1.33411C3.99464 1.15736 4.02492 0.981235 4.08976 0.816689C4.15459 0.652143 4.25258 0.502694 4.37764 0.377637C4.50269 0.25258 4.65214 0.154588 4.81669 0.0897552C4.98124 0.0249226 5.15736 -0.00536433 5.33411 0.000777838H12.0008C12.1775 -0.00536433 12.3537 0.0249226 12.5182 0.0897552C12.6827 0.154588 12.8322 0.25258 12.9573 0.377637C13.0823 0.502694 13.1803 0.652143 13.2451 0.816689C13.31 0.981235 13.3403 1.15736 13.3341 1.33411V8.00078C13.3402 8.1775 13.3098 8.35358 13.2449 8.51809C13.1801 8.68259 13.0821 8.832 12.957 8.95703C12.832 9.08207 12.6826 9.18007 12.5181 9.24493C12.3536 9.3098 12.1775 9.34015 12.0008 9.33411H9.33411V12.0008C9.34015 12.1775 9.3098 12.3536 9.24493 12.5181C9.18007 12.6826 9.08207 12.832 8.95703 12.957C8.832 13.0821 8.68259 13.1801 8.51809 13.2449C8.35358 13.3098 8.1775 13.3402 8.00078 13.3341ZM1.33411 5.33411V12.0008H8.00078V9.33411H5.33411C5.15739 9.34015 4.9813 9.3098 4.8168 9.24493C4.6523 9.18007 4.50289 9.08207 4.37786 8.95703C4.25282 8.832 4.15482 8.68259 4.08996 8.51809C4.02509 8.35358 3.99473 8.1775 4.00078 8.00078V5.33411H1.33411ZM5.33411 1.33411V8.00078H12.0008V1.33411H5.33411Z" fill="#575962"/>
</svg>
