<svg width="16" height="16" viewBox="0 0 16 16" fill="none" xmlns="http://www.w3.org/2000/svg">
<path d="M4.58199 11.4195C3.35199 10.5462 2.37865 9.41016 1.82865 8.69283C1.67486 8.49481 1.59137 8.25122 1.59137 8.0005C1.59137 7.74977 1.67486 7.50618 1.82865 7.30816C2.82399 6.00883 5.21199 3.3335 7.99999 3.3335C9.25065 3.3335 10.42 3.8715 11.42 4.58283" stroke="white" stroke-width="1.5" stroke-linecap="round" stroke-linejoin="round"/>
<path d="M9.41999 6.59141C9.23485 6.40319 9.01428 6.25349 8.771 6.15094C8.52771 6.04839 8.26653 5.99502 8.00252 5.99391C7.73851 5.99281 7.47689 6.04399 7.23276 6.14449C6.98862 6.245 6.7668 6.39285 6.58009 6.57952C6.39339 6.76618 6.24548 6.98796 6.14492 7.23207C6.04435 7.47619 5.99311 7.73779 5.99416 8.0018C5.9952 8.26582 6.04851 8.52701 6.151 8.77032C6.25349 9.01362 6.40314 9.23423 6.59132 9.41941" stroke="white" stroke-width="1.5" stroke-linecap="round" stroke-linejoin="round"/>
<path d="M2.66666 13.3334L13.3333 2.66675" stroke="white" stroke-width="1.5" stroke-linecap="round" stroke-linejoin="round"/>
<path d="M6.66666 12.4693C7.09946 12.5982 7.54842 12.6646 7.99999 12.6667C10.788 12.6667 13.176 9.99133 14.1713 8.692C14.3251 8.49381 14.4085 8.25006 14.4084 7.99922C14.4082 7.74838 14.3246 7.50471 14.1707 7.30667C13.8209 6.85033 13.4456 6.41408 13.0467 6" stroke="white" stroke-width="1.5" stroke-linecap="round" stroke-linejoin="round"/>
</svg>
