<svg width="20" height="20" viewBox="0 0 20 20" fill="none" xmlns="http://www.w3.org/2000/svg">
<path d="M11.9998 19.9988H2.00093C1.73584 20.008 1.47168 19.9626 1.22489 19.8654C0.9781 19.7681 0.753954 19.6212 0.566389 19.4336C0.378825 19.246 0.231855 19.0219 0.134617 18.7751C0.0373795 18.5283 -0.00804556 18.2642 0.00116662 17.9991V8.00023C-0.00804556 7.73514 0.0373795 7.47098 0.134617 7.22419C0.231855 6.9774 0.378825 6.75325 0.566389 6.56569C0.753954 6.37813 0.9781 6.23116 1.22489 6.13392C1.47168 6.03668 1.73584 5.99126 2.00093 6.00047H6.00047V2.00093C5.99125 1.73584 6.03668 1.47168 6.13392 1.22489C6.23115 0.9781 6.37813 0.753954 6.56569 0.56639C6.75325 0.378825 6.9774 0.231855 7.22419 0.134617C7.47098 0.0373795 7.73514 -0.00804556 8.00023 0.00116662H17.9991C18.2642 -0.00804556 18.5283 0.0373795 18.7751 0.134617C19.0219 0.231855 19.246 0.378825 19.4336 0.56639C19.6212 0.753954 19.7681 0.9781 19.8654 1.22489C19.9626 1.47168 20.008 1.73584 19.9988 2.00093V11.9998C20.0079 12.2648 19.9624 12.5289 19.8651 12.7756C19.7678 13.0224 19.6208 13.2464 19.4333 13.434C19.2457 13.6215 19.0217 13.7685 18.7749 13.8658C18.5282 13.9631 18.2641 14.0086 17.9991 13.9995H13.9995V17.9991C14.0086 18.2641 13.9631 18.5282 13.8658 18.7749C13.7685 19.0217 13.6215 19.2458 13.434 19.4333C13.2464 19.6208 13.0224 19.7678 12.7756 19.8651C12.5289 19.9624 12.2648 20.0079 11.9998 19.9988ZM2.00093 8.00023V17.9991H11.9998V13.9995H8.00023C7.73518 14.0086 7.47109 13.9631 7.22436 13.8658C6.97764 13.7685 6.75355 13.6215 6.56602 13.434C6.37848 13.2464 6.23151 13.0224 6.13422 12.7756C6.03693 12.5289 5.9914 12.2648 6.00047 11.9998V8.00023H2.00093ZM8.00023 2.00093V11.9998H17.9991V2.00093H8.00023Z" fill="white"/>
</svg>
