<svg width="8" height="8" viewBox="0 0 8 8" fill="none" xmlns="http://www.w3.org/2000/svg">
<path fill-rule="evenodd" clip-rule="evenodd" d="M3.99999 3.00002C3.81599 3.00002 3.66666 2.85069 3.66666 2.66669C3.66666 2.48269 3.81599 2.33335 3.99999 2.33335C4.18399 2.33335 4.33332 2.48269 4.33332 2.66669C4.33332 2.85069 4.18399 3.00002 3.99999 3.00002ZM4.33332 5.33335C4.33332 5.51735 4.18399 5.66669 3.99999 5.66669C3.81599 5.66669 3.66666 5.51735 3.66666 5.33335V3.66669C3.66666 3.48269 3.81599 3.33335 3.99999 3.33335C4.18399 3.33335 4.33332 3.48269 4.33332 3.66669V5.33335ZM3.99999 0.666687C2.15899 0.666687 0.666656 2.15902 0.666656 4.00002C0.666656 5.84102 2.15899 7.33335 3.99999 7.33335C5.84066 7.33335 7.33332 5.84102 7.33332 4.00002C7.33332 2.15902 5.84066 0.666687 3.99999 0.666687Z" fill="white"/>
<mask id="mask0_90:1861" style="mask-type:alpha" maskUnits="userSpaceOnUse" x="0" y="0" width="8" height="8">
<path fill-rule="evenodd" clip-rule="evenodd" d="M3.99999 3.00002C3.81599 3.00002 3.66666 2.85069 3.66666 2.66669C3.66666 2.48269 3.81599 2.33335 3.99999 2.33335C4.18399 2.33335 4.33332 2.48269 4.33332 2.66669C4.33332 2.85069 4.18399 3.00002 3.99999 3.00002ZM4.33332 5.33335C4.33332 5.51735 4.18399 5.66669 3.99999 5.66669C3.81599 5.66669 3.66666 5.51735 3.66666 5.33335V3.66669C3.66666 3.48269 3.81599 3.33335 3.99999 3.33335C4.18399 3.33335 4.33332 3.48269 4.33332 3.66669V5.33335ZM3.99999 0.666687C2.15899 0.666687 0.666656 2.15902 0.666656 4.00002C0.666656 5.84102 2.15899 7.33335 3.99999 7.33335C5.84066 7.33335 7.33332 5.84102 7.33332 4.00002C7.33332 2.15902 5.84066 0.666687 3.99999 0.666687Z" fill="white"/>
</mask>
<g mask="url(#mask0_90:1861)">
</g>
</svg>
