<svg width="94" height="94" viewBox="0 0 94 94" fill="none" xmlns="http://www.w3.org/2000/svg">
<path fill-rule="evenodd" clip-rule="evenodd" d="M47 94C72.9574 94 94 72.9574 94 47C94 21.0426 72.9574 0 47 0C21.0426 0 0 21.0426 0 47C0 72.9574 21.0426 94 47 94Z" fill="#CD2A16"/>
<path d="M60.3318 14.4615C59.4993 13.6843 58.3824 13.2079 57.1537 13.2079C51.9396 13.2079 47.6443 17.1382 47.0669 22.1978C47.1052 22.1963 47.1436 22.1949 47.1823 22.1949C48.735 22.1949 50.0254 23.3374 50.2577 24.8258H55.0546C55.2789 23.3887 56.4898 22.2739 57.9705 22.1989C57.936 21.173 58.2817 20.2011 58.8948 19.4398C58.4346 18.8971 58.1563 18.1956 58.1563 17.4299C58.1561 16.0399 59.072 14.8601 60.3318 14.4615Z" fill="#191A1E"/>
<path d="M36.8463 13.2079C35.6176 13.2079 34.5007 13.6843 33.6682 14.4616C34.9281 14.8602 35.8439 16.0399 35.8439 17.4299C35.8439 18.1955 35.5655 18.8969 35.1054 19.4397C35.718 20.2004 36.0637 21.1715 36.0298 22.1966C37.5513 22.2299 38.8075 23.3595 39.0363 24.8259H44.1068C44.3267 23.4176 45.494 22.3199 46.934 22.2057C46.3602 17.1423 42.0631 13.2079 36.8463 13.2079Z" fill="#191A1E"/>
<path d="M58.1297 28.4203C57.5961 28.4203 57.0934 28.2851 56.6539 28.0476L52.771 31.2704C52.5083 31.4884 52.1261 31.4819 51.871 31.2552L48.4012 28.1714C48.0267 28.3315 47.6147 28.4203 47.1822 28.4203C46.72 28.4203 46.2814 28.3183 45.8867 28.1367L42.1113 31.2703C41.9832 31.3766 41.8266 31.4296 41.6702 31.4296C41.506 31.4296 41.3419 31.3712 41.2113 31.2552L37.5375 27.99C37.0748 28.2629 36.5362 28.4202 35.9612 28.4202V34.6812C36.0617 34.6241 36.1777 34.5911 36.3016 34.5911H57.6986C57.8711 34.5911 58.0284 34.6547 58.1494 34.7593V28.4198C58.1429 28.4199 58.1364 28.4203 58.1297 28.4203Z" fill="#191A1E"/>
<path d="M57.6984 35.9725H36.3016C36.1777 35.9725 36.0617 35.9395 35.9612 35.8824V36.3554C35.9612 37.7012 37.0522 38.7921 38.3979 38.7921H55.7126C57.0584 38.7921 58.1494 37.7011 58.1494 36.3553V35.8042C58.0283 35.9088 57.8709 35.9725 57.6984 35.9725Z" fill="#191A1E"/>
<path d="M44.1903 26.1638H38.9531C38.8629 26.4785 38.7251 26.7732 38.5466 27.0387L41.6854 29.8284L44.7681 27.2698C44.5061 26.9481 44.3076 26.573 44.1903 26.1638Z" fill="#191A1E"/>
<path d="M55.1377 26.1637H50.1742C50.0488 26.6013 49.83 26.9995 49.5405 27.3356L52.3453 29.8284L55.6041 27.1235C55.3969 26.8363 55.2377 26.5125 55.1377 26.1637Z" fill="#191A1E"/>
<path d="M32.7313 15.6986C31.7767 15.6986 31 16.4753 31 17.4299C31 18.3844 31.7766 19.1611 32.7313 19.1611C33.686 19.1611 34.4626 18.3845 34.4626 17.4299C34.4625 16.4753 33.6859 15.6986 32.7313 15.6986Z" fill="#191A1E"/>
<path d="M61.2688 15.6986C60.3143 15.6986 59.5376 16.4752 59.5376 17.4299C59.5376 18.3845 60.3142 19.1611 61.2688 19.1611C62.2235 19.1611 63 18.3844 63 17.4299C63 16.4753 62.2234 15.6986 61.2688 15.6986Z" fill="#191A1E"/>
<path d="M35.9612 23.5764C35.0066 23.5764 34.23 24.353 34.23 25.3077C34.23 26.2623 35.0065 27.0389 35.9612 27.0389C36.9159 27.0389 37.6925 26.2622 37.6925 25.3077C37.6925 24.3531 36.9159 23.5764 35.9612 23.5764Z" fill="#191A1E"/>
<path d="M47.1822 23.5764C46.2276 23.5764 45.4509 24.353 45.4509 25.3077C45.4509 26.2623 46.2276 27.0389 47.1822 27.0389C48.1368 27.0389 48.9135 26.2622 48.9135 25.3077C48.9135 24.3531 48.1368 23.5764 47.1822 23.5764Z" fill="#191A1E"/>
<path d="M58.1297 23.5763C57.1751 23.5763 56.3984 24.3529 56.3984 25.3075C56.3984 26.2621 57.1751 27.0387 58.1297 27.0387C59.0843 27.0387 59.8609 26.2621 59.8609 25.3075C59.8609 24.3529 59.0843 23.5763 58.1297 23.5763Z" fill="#191A1E"/>
<g clip-path="url(#clip0_337:3383)">
<path d="M39.1528 57.7773V64.2313C39.1625 65.2715 38.7594 66.2732 38.0319 67.0167C37.7028 67.4063 37.2914 67.7181 36.8273 67.9296C36.3633 68.1411 35.8581 68.2471 35.3482 68.2399H32.7323V64.2652H34.1237C34.3096 64.2788 34.4954 64.2379 34.6583 64.1473C34.8213 64.0568 34.9542 63.9206 35.0408 63.7556C35.2494 63.4196 35.3552 63.03 35.3451 62.6346V47.0086H32.7323L32.4606 46.3972C32.2794 45.9897 32.0756 45.5259 31.8492 45.0058C31.6906 44.6435 31.5434 44.2924 31.4074 43.9527C31.2489 43.5903 31.1131 43.2734 31 43.0017H39.1528V57.7773ZM45.0638 43H41.2591V68.2399C41.6667 71.6605 42.3008 76.8126 43.1614 83.6964C43.5916 80.2541 44.2257 75.1019 45.0638 68.2399V61.1063C45.2667 60.5845 45.561 59.8259 45.9469 58.8304C46.4904 60.9138 47.3057 64.0503 48.3927 68.2399H52.1974C51.2463 65.0695 49.7969 60.3137 47.8492 53.9726C48.7768 51.5269 50.1695 47.8695 52.0274 43.0004H48.2227C47.5206 45.469 46.4675 49.1831 45.0633 54.1426L45.0638 43ZM54.3036 43.0339V47.0086H56.7156V68.2399H60.5541V47.0086H63V43.0339H54.3036Z" fill="#191A1E"/>
</g>
<defs>
<clipPath id="clip0_337:3383">
<rect width="32" height="40.6964" fill="white" transform="translate(31 43)"/>
</clipPath>
</defs>
</svg>
