<svg width="122" height="40" viewBox="0 0 122 40" fill="none" xmlns="http://www.w3.org/2000/svg">
<g clip-path="url(#clip0_338:3651)">
<path d="M8.01333 14.6578V21.0013C8.02287 22.0238 7.62666 23.0083 6.91155 23.7391C6.58809 24.122 6.18375 24.4285 5.72763 24.6364C5.27152 24.8442 4.77498 24.9484 4.27378 24.9413H1.70267V21.0347H3.07028C3.25298 21.0481 3.43562 21.0078 3.59574 20.9188C3.75587 20.8298 3.88651 20.696 3.97162 20.5338C4.17666 20.2036 4.28065 19.8206 4.27079 19.432V4.07334H1.70267L1.43556 3.47244C1.25749 3.07185 1.05719 2.61598 0.834669 2.10484C0.678819 1.74869 0.53408 1.40365 0.400453 1.06973C0.244603 0.713578 0.111118 0.40202 0 0.135051H8.01333V14.6578ZM10.0836 4.07334C10.0778 3.04175 10.4728 2.04821 11.1853 1.30222C11.5167 0.931174 11.9234 0.635036 12.3782 0.433553C12.8331 0.232069 13.3256 0.12987 13.8231 0.133769H15.5595C16.0569 0.129931 16.5494 0.23216 17.0042 0.433641C17.459 0.635123 17.8656 0.931228 18.1969 1.30222C18.9094 2.04821 19.3045 3.04175 19.2987 4.07334V20.9667C19.3208 21.4723 19.2372 21.9769 19.0532 22.4483C18.8692 22.9197 18.5889 23.3476 18.2302 23.7045C17.4934 24.3837 16.5561 24.8055 15.5591 24.9067C15.4607 24.9275 15.3605 24.9387 15.26 24.9401H15.1266C14.839 24.8956 14.5462 24.8956 14.2586 24.9401C14.1133 24.9392 13.9682 24.9281 13.8244 24.9067C12.8275 24.8056 11.8902 24.3839 11.1533 23.7049C10.7946 23.348 10.5143 22.9202 10.3303 22.4487C10.1463 21.9773 10.0627 21.4727 10.0848 20.9672V4.07334H10.0836ZM13.8231 20.9667C13.822 21.0851 13.8451 21.2024 13.891 21.3115C13.937 21.4206 14.0048 21.5191 14.0902 21.601C14.1691 21.6789 14.2631 21.7398 14.3665 21.78C14.4698 21.8202 14.5803 21.8389 14.6911 21.8347C14.8019 21.8389 14.9124 21.8202 15.0158 21.78C15.1191 21.7398 15.2131 21.6789 15.292 21.601C15.3775 21.5191 15.4453 21.4206 15.4912 21.3115C15.5371 21.2024 15.5603 21.0851 15.5591 20.9667V4.07334C15.5603 3.95499 15.5371 3.83765 15.4912 3.72858C15.4453 3.6195 15.3775 3.52098 15.292 3.43911C15.128 3.2888 14.9136 3.20541 14.6911 3.20541C14.4686 3.20541 14.2542 3.2888 14.0902 3.43911C14.0048 3.52098 13.937 3.6195 13.891 3.72858C13.8451 3.83765 13.822 3.95499 13.8231 4.07334V20.9667ZM25.1084 0.13206H21.3689V24.9413H25.1084V17.9298C25.3079 17.4169 25.5972 16.6713 25.9765 15.6929C26.5107 17.7406 27.312 20.8234 28.3805 24.9413H32.12C31.1852 21.8252 29.7606 17.1508 27.8462 10.9182C28.758 8.51436 30.1269 4.91955 31.9529 0.133769H28.2133C27.5233 2.56014 26.4882 6.21065 25.108 11.0853L25.1084 0.13206ZM41.7027 0.166677H34.1902V24.9413H41.7027C41.3243 24.0732 40.7567 22.7599 40 21.0013H37.9298V13.9898H40.5342V10.2502H37.9298V4.07334H41.7027V0.166677ZM48.3471 0.133341H49.0151C49.5348 0.124908 50.051 0.221059 50.5328 0.416076C51.0146 0.611094 51.4523 0.900998 51.8199 1.26855C52.1875 1.63611 52.4774 2.07381 52.6724 2.55565C52.8674 3.03748 52.9635 3.5536 52.9551 4.07334V10.2169C52.9436 10.9631 52.8313 11.7043 52.6213 12.4205C52.3766 13.2219 51.7533 13.745 50.7515 13.9898L51.3191 15.6591C51.6975 16.772 52.1315 18.0519 52.6213 19.4987L53.6231 22.3702C53.957 23.3273 54.2464 24.1732 54.4911 24.908H50.7515L50.2502 23.2387C49.9163 22.1258 49.5379 20.8459 49.1151 19.3991C48.8256 18.4421 48.5363 17.4733 48.2471 16.4929C47.9576 15.5359 47.7012 14.7012 47.4778 13.9889V24.908H43.7383V0.133341H48.3458H48.3471ZM47.4791 10.2169H48.3471C48.5736 10.2053 48.7877 10.1102 48.9481 9.94983C49.1084 9.78949 49.2036 9.57536 49.2151 9.34889V4.90801C49.2183 4.79426 49.1959 4.68125 49.1497 4.57726C49.1035 4.47328 49.0346 4.38097 48.948 4.30711C48.8691 4.22918 48.7751 4.16823 48.6718 4.12803C48.5684 4.08782 48.4579 4.06921 48.3471 4.07334H47.4791V10.2169ZM63.5725 24.808C63.3277 23.9843 63.0495 23.0271 62.7378 21.9364C62.4261 20.868 62.1033 19.7884 61.7694 18.6978C61.3018 17.0737 60.8899 15.638 60.5338 14.3907L59.9662 12.4876V24.808C59.8548 25.8098 59.7214 26.9895 59.5658 28.3471C59.4099 29.6828 59.2652 31.0184 59.1316 32.3538C58.9091 34.357 58.7088 36.1378 58.5307 37.696L58.2636 40C58.1522 38.9982 58.0187 37.8301 57.8631 36.4955C57.7073 35.1376 57.5625 33.7909 57.4289 32.4555C57.1842 30.4522 56.9839 28.6715 56.828 27.1133L56.5609 24.8093V0H59.9667C60.2114 1.04622 60.4896 2.23704 60.8013 3.57245L61.7364 7.64579C62.2262 9.67127 62.6492 11.4742 63.0053 13.0547L63.5729 15.392C63.7954 14.368 64.0736 13.1772 64.4076 11.8196C64.7193 10.4616 65.031 9.11497 65.3427 7.77956C65.8102 5.73156 66.2332 3.9286 66.6115 2.37066L67.1458 0H70.5849V24.808C70.4512 25.8098 70.3178 26.9895 70.1844 28.3471L69.7169 32.3538C69.4943 34.357 69.2941 36.1378 69.116 37.696L68.8489 40C68.7375 38.9982 68.604 37.8301 68.4484 36.4955C68.3148 35.1376 68.17 33.7909 68.0142 32.4555C67.7917 30.4522 67.5914 28.6715 67.4133 27.1133L67.1462 24.8093V12.4871C66.79 13.7123 66.4785 14.7918 66.2115 15.7258C65.9445 16.6598 65.6997 17.4833 65.4769 18.1965C65.321 18.7529 65.1763 19.2538 65.0426 19.6991C64.9312 20.1219 64.8315 20.4892 64.7435 20.8009C64.3651 22.0919 64.1426 22.8375 64.0759 23.0378C64.0295 23.2162 63.8616 23.8062 63.5725 24.808ZM72.6209 24.8747H76.0267C76.2492 23.7396 76.5942 22.0367 77.0618 19.7662H80.4658C80.6884 20.9013 81.0334 22.6042 81.501 24.8747H84.9067C83.9272 19.3757 82.4469 11.1175 80.4658 0.100006H77.0601C76.0594 5.59808 74.5797 13.8563 72.6209 24.8747ZM78.7645 10.1836C79.0762 11.7418 79.532 14.079 80.1321 17.1951H77.3943C77.7066 15.6369 78.1633 13.2997 78.7645 10.1836ZM86.9782 24.9413H90.384V11.9529C91.0293 14.8468 91.9971 19.1763 93.2872 24.9413H97.2272V0.166677H93.9885V13.3222C93.4543 10.4064 92.653 6.02133 91.5845 0.167104H86.9782V24.9413ZM99.2987 4.07334C99.2929 3.04175 99.6879 2.04821 100.4 1.30222C100.732 0.931174 101.138 0.635036 101.593 0.433553C102.048 0.232069 102.541 0.12987 103.038 0.133769H104.775C105.272 0.12987 105.765 0.232069 106.22 0.433553C106.674 0.635036 107.081 0.931174 107.412 1.30222C108.125 2.04821 108.52 3.04175 108.514 4.07334V20.9667C108.536 21.4723 108.453 21.9769 108.269 22.4483C108.085 22.9197 107.804 23.3476 107.446 23.7045C106.709 24.3837 105.772 24.8055 104.775 24.9067C104.676 24.9275 104.576 24.9387 104.476 24.9401H104.342C104.055 24.8956 103.762 24.8956 103.474 24.9401C103.329 24.9392 103.184 24.9281 103.04 24.9067C102.043 24.8056 101.106 24.3839 100.369 23.7049C100.01 23.348 99.7298 22.9202 99.5458 22.4487C99.3619 21.9773 99.2783 21.4727 99.3004 20.9672V4.07334H99.2987ZM103.038 20.968C103.037 21.0864 103.06 21.2037 103.106 21.3128C103.152 21.4219 103.22 21.5204 103.305 21.6022C103.384 21.6802 103.478 21.7411 103.582 21.7813C103.685 21.8215 103.795 21.8401 103.906 21.836C104.017 21.8401 104.128 21.8215 104.231 21.7813C104.334 21.7411 104.428 21.6802 104.507 21.6022C104.593 21.5204 104.66 21.4219 104.706 21.3128C104.752 21.2037 104.775 21.0864 104.774 20.968V4.07334C104.775 3.95499 104.752 3.83765 104.706 3.72858C104.66 3.6195 104.593 3.52098 104.507 3.43911C104.343 3.2888 104.129 3.20541 103.906 3.20541C103.684 3.20541 103.469 3.2888 103.305 3.43911C103.22 3.52098 103.152 3.6195 103.106 3.72858C103.06 3.83765 103.037 3.95499 103.038 4.07334V20.9667V20.968ZM115.192 0.133341H115.86C116.38 0.124908 116.896 0.221059 117.378 0.416076C117.86 0.611094 118.297 0.900998 118.665 1.26855C119.032 1.63611 119.322 2.07381 119.517 2.55565C119.712 3.03748 119.808 3.5536 119.8 4.07334V10.2169C119.788 10.9631 119.676 11.7043 119.466 12.4205C119.221 13.2219 118.598 13.745 117.596 13.9898L118.164 15.6591C118.542 16.772 118.976 18.0519 119.466 19.4987L120.468 22.3702C120.802 23.3273 121.091 24.1732 121.336 24.908H117.596L117.096 23.2387C116.762 22.1258 116.383 20.8459 115.96 19.3991C115.671 18.4421 115.382 17.4733 115.092 16.4929C114.803 15.5359 114.547 14.7012 114.323 13.9889V24.908H110.584V0.133341H115.191H115.192ZM114.324 10.2169H115.192C115.418 10.2053 115.633 10.1102 115.793 9.94983C115.953 9.78949 116.048 9.57536 116.06 9.34889V4.90801C116.063 4.79426 116.041 4.68125 115.995 4.57726C115.948 4.47328 115.879 4.38097 115.793 4.30711C115.714 4.22918 115.62 4.16823 115.517 4.12803C115.413 4.08782 115.303 4.06921 115.192 4.07334H114.324V10.2169Z" fill="#CD2A16"/>
</g>
<defs>
<clipPath id="clip0_338:3651">
<rect width="121.335" height="40" fill="white"/>
</clipPath>
</defs>
</svg>
