<svg width="34" height="34" viewBox="0 0 34 34" fill="none" xmlns="http://www.w3.org/2000/svg">
<circle cx="17" cy="17" r="17" fill="#191A1E"/>
<path d="M8.81818 13.7273H25.1818M17 26C21.9705 26 26 21.9705 26 17C26 12.0295 21.9705 8 17 8C12.0295 8 8 12.0295 8 17C8 21.9705 12.0295 26 17 26ZM17 26C19.4545 26 20.2727 21.9091 20.2727 17C20.2727 12.0909 19.4545 8 17 8C14.5455 8 13.7273 12.0909 13.7273 17C13.7273 21.9091 14.5455 26 17 26ZM8.81818 20.2727H25.1818H8.81818Z" stroke="white" stroke-width="1.5"/>
</svg>
