<svg width="24" height="25" viewBox="0 0 24 25" fill="none" xmlns="http://www.w3.org/2000/svg">
<path fill-rule="evenodd" clip-rule="evenodd" d="M19 11.192H7.135L10.768 6.83202C11.122 6.40802 11.064 5.77702 10.64 5.42402C10.215 5.07002 9.585 5.12802 9.232 5.55202L4.232 11.552C4.193 11.599 4.173 11.654 4.144 11.706C4.12 11.748 4.091 11.784 4.073 11.83C4.028 11.945 4.001 12.066 4.001 12.188C4.001 12.189 4 12.191 4 12.192C4 12.193 4.001 12.195 4.001 12.196C4.001 12.318 4.028 12.439 4.073 12.554C4.091 12.6 4.12 12.636 4.144 12.678C4.173 12.73 4.193 12.785 4.232 12.832L9.232 18.832C9.43 19.069 9.714 19.192 10 19.192C10.226 19.192 10.453 19.116 10.64 18.96C11.064 18.607 11.122 17.976 10.768 17.552L7.135 13.192H19C19.552 13.192 20 12.744 20 12.192C20 11.64 19.552 11.192 19 11.192Z" fill="white"/>
<mask id="mask0_471:1052" style="mask-type:alpha" maskUnits="userSpaceOnUse" x="4" y="5" width="16" height="15">
<path fill-rule="evenodd" clip-rule="evenodd" d="M19 11.192H7.135L10.768 6.83202C11.122 6.40802 11.064 5.77702 10.64 5.42402C10.215 5.07002 9.585 5.12802 9.232 5.55202L4.232 11.552C4.193 11.599 4.173 11.654 4.144 11.706C4.12 11.748 4.091 11.784 4.073 11.83C4.028 11.945 4.001 12.066 4.001 12.188C4.001 12.189 4 12.191 4 12.192C4 12.193 4.001 12.195 4.001 12.196C4.001 12.318 4.028 12.439 4.073 12.554C4.091 12.6 4.12 12.636 4.144 12.678C4.173 12.73 4.193 12.785 4.232 12.832L9.232 18.832C9.43 19.069 9.714 19.192 10 19.192C10.226 19.192 10.453 19.116 10.64 18.96C11.064 18.607 11.122 17.976 10.768 17.552L7.135 13.192H19C19.552 13.192 20 12.744 20 12.192C20 11.64 19.552 11.192 19 11.192Z" fill="white"/>
</mask>
<g mask="url(#mask0_471:1052)">
</g>
</svg>
