<svg width="34" height="34" viewBox="0 0 34 34" fill="none" xmlns="http://www.w3.org/2000/svg">
<path fill-rule="evenodd" clip-rule="evenodd" d="M17 34C26.3888 34 34 26.3888 34 17C34 7.61116 26.3888 0 17 0C7.61116 0 0 7.61116 0 17C0 26.3888 7.61116 34 17 34Z" fill="#CD2A16"/>
<path fill-rule="evenodd" clip-rule="evenodd" d="M22.9932 12.0488C22.9932 11.4998 22.5492 11.0528 21.9992 11.0498L14.0062 10.9998H14.0002C13.4502 10.9998 13.0042 11.4438 13.0002 11.9938C12.9962 12.5458 13.4412 12.9968 13.9942 12.9998L19.5522 13.0348L11.2932 21.2928C10.9022 21.6838 10.9022 22.3168 11.2932 22.7068C11.4882 22.9028 11.7442 22.9998 12.0002 22.9998C12.2562 22.9998 12.5122 22.9028 12.7072 22.7068L20.9952 14.4188L21.0002 20.0008C21.0002 20.5528 21.4482 20.9998 22.0002 20.9998H22.0012C22.5532 20.9998 23.0002 20.5508 23.0002 19.9988L22.9932 12.0488Z" fill="white"/>
<mask id="mask0_76:6246" style="mask-type:alpha" maskUnits="userSpaceOnUse" x="11" y="10" width="13" height="13">
<path fill-rule="evenodd" clip-rule="evenodd" d="M22.9932 12.0488C22.9932 11.4998 22.5492 11.0528 21.9992 11.0498L14.0062 10.9998H14.0002C13.4502 10.9998 13.0042 11.4438 13.0002 11.9938C12.9962 12.5458 13.4412 12.9968 13.9942 12.9998L19.5522 13.0348L11.2932 21.2928C10.9022 21.6838 10.9022 22.3168 11.2932 22.7068C11.4882 22.9028 11.7442 22.9998 12.0002 22.9998C12.2562 22.9998 12.5122 22.9028 12.7072 22.7068L20.9952 14.4188L21.0002 20.0008C21.0002 20.5528 21.4482 20.9998 22.0002 20.9998H22.0012C22.5532 20.9998 23.0002 20.5508 23.0002 19.9988L22.9932 12.0488Z" fill="white"/>
</mask>
<g mask="url(#mask0_76:6246)">
</g>
</svg>
