<svg width="34" height="34" viewBox="0 0 34 34" fill="none" xmlns="http://www.w3.org/2000/svg">
<path fill-rule="evenodd" clip-rule="evenodd" d="M17 34C26.3888 34 34 26.3888 34 17C34 7.61116 26.3888 0 17 0C7.61116 0 0 7.61116 0 17C0 26.3888 7.61116 34 17 34Z" fill="#CD2A16"/>
<path fill-rule="evenodd" clip-rule="evenodd" d="M22.707 11.293C22.316 10.902 21.684 10.902 21.293 11.293L13 19.586V14C13 13.448 12.553 13 12 13C11.447 13 11 13.448 11 14V22C11 22.552 11.447 23 12 23H20C20.553 23 21 22.552 21 22C21 21.448 20.553 21 20 21H14.414L22.707 12.707C23.098 12.316 23.098 11.684 22.707 11.293Z" fill="white"/>
<mask id="mask0_76:6506" style="mask-type:alpha" maskUnits="userSpaceOnUse" x="11" y="10" width="13" height="13">
<path fill-rule="evenodd" clip-rule="evenodd" d="M22.707 11.293C22.316 10.902 21.684 10.902 21.293 11.293L13 19.586V14C13 13.448 12.553 13 12 13C11.447 13 11 13.448 11 14V22C11 22.552 11.447 23 12 23H20C20.553 23 21 22.552 21 22C21 21.448 20.553 21 20 21H14.414L22.707 12.707C23.098 12.316 23.098 11.684 22.707 11.293Z" fill="white"/>
</mask>
<g mask="url(#mask0_76:6506)">
</g>
</svg>
