<svg width="24" height="24" viewBox="0 0 24 24" fill="none" xmlns="http://www.w3.org/2000/svg">
<path fill-rule="evenodd" clip-rule="evenodd" d="M21 3L16 8L12 3L8 8L3 3V16H21V3ZM5 22H19C20.1046 22 21 21.1046 21 20V18H3V20C3 21.1046 3.89543 22 5 22Z" fill="#96979B"/>
<path d="M20.13 9.00006C19.337 9.00551 18.6955 9.64704 18.69 10.4401C18.6845 9.64704 18.043 9.00551 17.25 9.00006C18.0453 9.00006 18.69 8.35535 18.69 7.56006C18.69 8.35535 19.3347 9.00006 20.13 9.00006Z" fill="white"/>
<path d="M5.19 18.44C4.39698 18.4455 3.75545 19.087 3.75 19.88C3.74455 19.087 3.10302 18.4455 2.31 18.44C3.10529 18.44 3.75 17.7953 3.75 17C3.75 17.7953 4.39471 18.44 5.19 18.44Z" fill="white"/>
<path d="M16.94 10.5C16.6646 10.5019 16.4419 10.7246 16.44 11C16.4381 10.7246 16.2154 10.5019 15.94 10.5C16.2161 10.5 16.44 10.2761 16.44 10C16.44 10.2761 16.6639 10.5 16.94 10.5Z" fill="white"/>
<path d="M3 19.5C2.72465 19.5019 2.50189 19.7246 2.5 20C2.49811 19.7246 2.27535 19.5019 2 19.5C2.27614 19.5 2.5 19.2761 2.5 19C2.5 19.2761 2.72386 19.5 3 19.5Z" fill="white"/>
<path d="M18 11.5C17.7246 11.5019 17.5019 11.7246 17.5 12C17.4981 11.7246 17.2754 11.5019 17 11.5C17.2761 11.5 17.5 11.2761 17.5 11C17.5 11.2761 17.7239 11.5 18 11.5Z" fill="white"/>
<path d="M5 20.5C4.72465 20.5019 4.50189 20.7246 4.5 21C4.49811 20.7246 4.27535 20.5019 4 20.5C4.27614 20.5 4.5 20.2761 4.5 20C4.5 20.2761 4.72386 20.5 5 20.5Z" fill="white"/>
<path d="M5.88 4.44C5.08698 4.44545 4.44545 5.08698 4.44 5.88C4.43455 5.08698 3.79302 4.44545 3 4.44C3.79529 4.44 4.44 3.79529 4.44 3C4.44 3.79529 5.08471 4.44 5.88 4.44Z" fill="white"/>
<path d="M19 19.38C18.1739 19.3857 17.5057 20.0539 17.5 20.88C17.4943 20.0539 16.8261 19.3857 16 19.38C16.8284 19.38 17.5 18.7084 17.5 17.88C17.5 18.7084 18.1716 19.38 19 19.38Z" fill="white"/>
</svg>
