<svg width="169" height="23" viewBox="0 0 169 23" fill="none" xmlns="http://www.w3.org/2000/svg">
<path d="M1.29555 17.875C0.777328 17.875 0.51822 17.7454 0.25911 17.6159C0.129556 17.3568 0 17.0977 0 16.709V2.19887C0 1.8102 0.129556 1.42154 0.25911 1.29199C0.51822 1.03288 0.777328 0.90332 1.29555 0.90332H7.38462C9.7166 0.90332 11.4008 1.42154 12.5668 2.32842C13.6032 3.36486 14.251 4.78996 14.251 6.73328C14.251 8.6766 13.7328 10.1017 12.5668 11.1381C11.5304 12.045 9.7166 12.5632 7.38462 12.5632H5.05263V16.5794C5.05263 16.9681 4.92308 17.3568 4.79352 17.4863C4.53441 17.7454 4.27531 17.7454 3.75709 17.7454H1.29555V17.875ZM6.99595 8.93571C7.64373 8.93571 8.16194 8.80616 8.55061 8.4175C8.93927 8.02883 9.06883 7.51061 9.06883 6.73328C9.06883 5.95595 8.93927 5.43774 8.55061 5.04907C8.16194 4.66041 7.64373 4.53086 6.99595 4.53086H5.05263V8.93571H6.99595V8.93571Z" fill="#979797"/>
<path d="M20.0809 18.2634C18.5262 18.2634 17.2307 17.7452 16.3238 16.7088C15.4169 15.6723 14.8987 14.2472 14.8987 12.4335C14.8987 11.0084 15.1578 9.84236 15.8056 8.80592C16.4533 7.76949 17.3602 6.99216 18.5262 6.34438C19.6922 5.82616 21.1173 5.4375 22.5424 5.4375C23.838 5.4375 24.8744 5.56706 25.9108 5.82617C26.9473 6.08528 27.7246 6.47394 28.6315 6.99216V16.9679C28.6315 17.227 28.6315 17.4861 28.5019 17.6156C28.3724 17.7452 28.1133 17.7452 27.8541 17.7452H25.2631C25.1335 17.7452 24.8744 17.7452 24.8744 17.6156C24.7448 17.4861 24.7448 17.4861 24.6153 17.3565L24.2266 16.5792C23.7084 17.0974 23.1902 17.4861 22.5424 17.7452C21.8946 18.1339 20.9878 18.2634 20.0809 18.2634ZM21.8946 14.895C22.5424 14.895 23.0606 14.7654 23.4493 14.3768C23.838 14.1177 23.9675 13.5994 23.9675 13.0812V9.19459C23.7084 9.06503 23.1902 8.93548 22.8015 8.93548C21.8946 8.93548 21.2469 9.19459 20.7286 9.84236C20.2104 10.4901 19.9513 11.2675 19.9513 12.4335C19.9513 13.9881 20.5991 14.895 21.8946 14.895Z" fill="#979797"/>
<path d="M32.1295 17.8751C31.6113 17.8751 31.3522 17.7455 31.0931 17.616C30.834 17.3569 30.834 17.0978 30.834 16.7091V6.60382C30.834 6.34471 30.834 6.0856 30.9635 5.95605C31.0931 5.82649 31.3522 5.82649 31.6113 5.82649H34.2024C34.4615 5.82649 34.5911 5.82649 34.5911 5.95605C34.7206 5.95605 34.7206 6.0856 34.8502 6.21516L34.9797 6.99248C35.4979 6.47426 36.0162 6.21516 36.7935 5.95605C37.5708 5.69694 38.3482 5.56738 39.3846 5.56738C40.6801 5.56738 41.8461 5.95604 42.6235 6.73337C43.4008 7.5107 43.919 8.54714 43.919 10.1018V16.7091C43.919 17.0978 43.7894 17.4864 43.6599 17.616C43.5303 17.8751 43.1417 17.8751 42.6235 17.8751H40.1619C39.6437 17.8751 39.3846 17.7455 39.1255 17.616C38.8664 17.3569 38.8664 17.0978 38.8664 16.7091V10.3609C38.8664 9.84269 38.7368 9.45402 38.4777 9.32447C38.2186 9.06536 37.9595 8.9358 37.4413 8.9358C36.9231 8.9358 36.5344 9.06536 36.2753 9.32447C36.0162 9.58357 35.8866 9.97224 35.8866 10.3609V16.5795C35.8866 16.9682 35.7571 17.3569 35.6275 17.4864C35.4979 17.7455 35.1093 17.7455 34.5911 17.7455H32.1295V17.8751Z" fill="#979797"/>
<path d="M52.7289 18.2637C50.3969 18.2637 48.5831 17.7455 47.2876 16.5795C45.992 15.5431 45.3442 13.9884 45.3442 11.9156C45.3442 10.62 45.6033 9.58358 46.2511 8.54714C46.7693 7.64026 47.6762 6.86293 48.7127 6.34471C49.8786 5.82649 51.1742 5.56738 52.5993 5.56738C53.7653 5.56738 54.6722 5.69694 55.4495 5.95605C56.2268 6.21516 57.0042 6.47426 57.5224 6.99248C57.6519 7.12204 57.7815 7.25159 57.7815 7.38115C57.7815 7.5107 57.6519 7.64026 57.5224 7.89937L56.4859 9.71313C56.3564 9.97224 56.2268 10.1018 56.0973 10.1018C55.9677 10.1018 55.8382 9.97224 55.5791 9.84269C55.1904 9.58358 54.6722 9.32447 54.2835 9.19491C53.8948 9.06536 53.3766 8.9358 52.8584 8.9358C52.0811 8.9358 51.3037 9.19491 50.7855 9.71313C50.2673 10.2314 50.0082 11.0087 50.0082 11.9156C50.0082 12.8224 50.2673 13.5998 50.7855 14.118C51.3037 14.6362 51.9515 14.8953 52.8584 14.8953C53.3766 14.8953 53.8948 14.7658 54.2835 14.6362C54.6722 14.5067 55.1904 14.2475 55.5791 13.9884C55.8382 13.8589 55.9677 13.7293 56.0973 13.7293C56.2268 13.7293 56.3564 13.8589 56.4859 14.118L57.6519 16.0613C57.7815 16.1909 57.7815 16.3204 57.7815 16.45C57.7815 16.5795 57.6519 16.7091 57.5224 16.8386C56.8746 17.2273 56.0973 17.616 55.1904 17.8751C54.8017 18.1342 53.8948 18.2637 52.7289 18.2637Z" fill="#979797"/>
<path d="M64.5182 18.2634C62.9636 18.2634 61.668 17.7452 60.7612 16.7088C59.8543 15.6723 59.3361 14.2472 59.3361 12.4335C59.3361 11.0084 59.5952 9.84236 60.2429 8.80592C60.8907 7.76949 61.7976 6.99216 62.9636 6.34438C64.1296 5.82616 65.5547 5.4375 66.9798 5.4375C68.2753 5.4375 69.3118 5.56706 70.3482 5.82617C71.3846 6.08528 72.162 6.47394 73.0689 6.99216V16.9679C73.0689 17.227 73.0689 17.4861 72.9393 17.6156C72.8097 17.7452 72.5506 17.7452 72.2915 17.7452H69.7004C69.5709 17.7452 69.3118 17.7452 69.3118 17.6156C69.1822 17.4861 69.1822 17.4861 69.0527 17.3565L68.664 16.5792C68.1458 17.0974 67.6276 17.4861 66.9798 17.7452C66.332 18.1339 65.5547 18.2634 64.5182 18.2634ZM66.4616 14.895C67.1093 14.895 67.6276 14.7654 68.0162 14.3768C68.4049 14.1177 68.5344 13.5994 68.5344 13.0812V9.19459C68.2753 9.06503 67.7571 8.93548 67.3684 8.93548C66.4616 8.93548 65.8138 9.19459 65.2956 9.84236C64.7774 10.4901 64.5182 11.2675 64.5182 12.4335C64.3887 13.9881 65.0365 14.895 66.4616 14.895Z" fill="#979797"/>
<path d="M88.8746 16.9681C89.0042 17.0977 89.0042 17.2272 89.0042 17.3568C89.0042 17.4863 89.0042 17.6159 88.8746 17.7454C88.745 17.875 88.6155 17.875 88.4859 17.875H84.5993C84.3402 17.875 84.2106 17.875 84.0811 17.875C83.9515 17.875 83.822 17.7454 83.6924 17.6159L80.324 12.9519V16.5794C80.324 16.9681 80.1944 17.3568 80.0649 17.4863C79.8058 17.7454 79.5467 17.7454 79.0284 17.7454H76.5669C76.0487 17.7454 75.7896 17.6159 75.5305 17.4863C75.4009 17.2272 75.2714 16.9681 75.2714 16.5794V2.19887C75.2714 1.8102 75.4009 1.42154 75.5305 1.29199C75.7896 1.03288 76.0487 0.90332 76.5669 0.90332H79.0284C79.5467 0.90332 79.8058 1.03288 80.0649 1.29199C80.324 1.5511 80.324 1.8102 80.324 2.19887V10.4904L83.5629 6.21507C83.6924 6.08551 83.822 5.95595 83.9515 5.95595C84.0811 5.95595 84.2106 5.8264 84.4697 5.8264H88.3564C88.4859 5.8264 88.6155 5.8264 88.745 5.95595C88.8746 6.08551 88.8746 6.21506 88.8746 6.34462C88.8746 6.47417 88.8746 6.60373 88.745 6.73328L84.4697 11.6564L88.8746 16.9681Z" fill="#979797"/>
<path d="M96.9068 18.2631C95.4817 18.2631 94.3157 18.004 93.1497 17.6153C92.1133 17.0971 91.2064 16.4493 90.5586 15.5424C89.9108 14.6356 89.6517 13.4696 89.6517 12.174C89.6517 10.1011 90.2995 8.41694 91.4655 7.3805C92.6315 6.21451 94.4453 5.69629 96.6477 5.69629C98.8501 5.69629 100.534 6.21451 101.571 7.3805C102.737 8.41694 103.255 9.97159 103.255 11.9149C103.255 12.6922 102.866 13.2105 102.219 13.2105H94.4453C94.4453 13.9878 94.7044 14.506 95.2226 14.8947C95.7408 15.2833 96.6477 15.4129 97.6841 15.4129C98.3319 15.4129 98.9797 15.4129 99.3683 15.2833C99.8866 15.1538 100.275 14.8947 100.793 14.7651C101.053 14.6356 101.182 14.6356 101.182 14.6356C101.312 14.6356 101.441 14.7651 101.571 14.8947L102.478 16.4493C102.607 16.5789 102.607 16.7084 102.607 16.838C102.607 16.9675 102.478 17.0971 102.348 17.2267C101.7 17.6153 100.923 18.004 100.016 18.2631C98.9797 18.1335 98.0728 18.2631 96.9068 18.2631ZM98.8501 10.4898C98.8501 9.84204 98.7206 9.32382 98.3319 9.06471C97.9432 8.67605 97.425 8.54649 96.6477 8.54649C95.8704 8.54649 95.3521 8.67605 94.9635 9.06471C94.5748 9.45338 94.4453 9.84204 94.4453 10.4898H98.8501Z" fill="#979797"/>
<path d="M111.935 18.2633C110.51 18.2633 109.215 18.1338 107.919 17.8747C106.623 17.6155 105.717 17.0973 104.939 16.5791C104.68 16.4495 104.551 16.1904 104.551 16.0609C104.551 15.9313 104.551 15.8018 104.68 15.6722L105.846 13.7289C105.976 13.4698 106.105 13.4698 106.235 13.4698C106.364 13.4698 106.494 13.4698 106.623 13.5994C107.271 13.988 107.919 14.2471 108.696 14.5062C109.474 14.7653 110.251 14.8949 111.028 14.8949C111.806 14.8949 112.324 14.7653 112.712 14.5062C113.101 14.2471 113.231 13.8585 113.231 13.3402C113.231 12.822 112.972 12.4334 112.583 12.1742C112.194 11.9151 111.417 11.5265 110.251 11.1378C108.567 10.49 107.271 9.84227 106.364 9.06494C105.457 8.28761 104.939 7.12162 104.939 5.82607C104.939 4.14186 105.587 2.97587 106.753 2.06898C107.919 1.1621 109.474 0.773438 111.417 0.773438C112.842 0.773438 114.008 0.902991 114.915 1.1621C115.951 1.42121 116.729 1.80987 117.376 2.19854C117.636 2.45765 117.765 2.5872 117.765 2.84631C117.765 2.97587 117.765 3.10542 117.636 3.23498L116.47 5.1783C116.34 5.43741 116.21 5.4374 116.081 5.4374C115.951 5.4374 115.822 5.43741 115.692 5.30785C114.785 4.66008 113.619 4.40097 112.194 4.40097C111.417 4.40097 110.899 4.53052 110.51 4.78963C110.121 5.04874 109.992 5.43741 109.992 5.95562C109.992 6.34429 110.121 6.6034 110.251 6.86251C110.51 7.12162 110.769 7.25117 111.028 7.51028C111.417 7.63984 111.935 7.89895 112.583 8.15806L113.101 8.28761C114.267 8.80583 115.304 9.19449 115.951 9.71271C116.729 10.1014 117.247 10.7491 117.636 11.3969C118.024 12.0447 118.154 12.822 118.154 13.7289C118.154 15.154 117.636 16.4495 116.47 17.2269C115.692 17.7451 114.008 18.2633 111.935 18.2633Z" fill="#979797"/>
<path d="M123.725 17.8747C123.465 17.8747 123.336 17.8748 123.206 17.7452C123.077 17.6156 122.947 17.4861 122.947 17.227L119.708 6.47395C119.708 6.34439 119.708 6.34439 119.708 6.21483C119.708 5.95573 119.838 5.82617 120.227 5.82617H123.465C123.725 5.82617 123.854 5.82617 123.984 5.95572C124.113 6.08528 124.113 6.08528 124.243 6.34439L125.538 12.0448L127.223 7.51038C127.352 7.25127 127.352 7.12172 127.482 7.12172C127.611 6.99216 127.741 6.99216 128 6.99216H129.555C129.814 6.99216 129.943 6.99216 130.073 7.12172C130.202 7.25127 130.202 7.38083 130.332 7.51038L132.016 12.0448L133.441 6.34439C133.441 6.21483 133.571 6.08528 133.7 5.95572C133.83 5.82617 133.959 5.82617 134.089 5.82617H137.457C137.846 5.82617 137.976 5.95573 137.976 6.21483C137.976 6.21483 137.976 6.34439 137.976 6.47395L134.737 17.227C134.607 17.4861 134.607 17.6156 134.478 17.7452C134.348 17.8748 134.218 17.8747 133.959 17.8747H131.498C131.239 17.8747 131.109 17.8748 130.98 17.7452C130.85 17.6156 130.721 17.4861 130.721 17.227L129.036 12.6926L127.352 17.227C127.223 17.4861 127.223 17.6156 127.093 17.7452C126.963 17.8748 126.834 17.8747 126.575 17.8747H123.725Z" fill="#979797"/>
<path d="M143.935 18.2634C142.381 18.2634 141.085 17.7452 140.178 16.7088C139.271 15.6723 138.753 14.2472 138.753 12.4335C138.753 11.0084 139.012 9.84236 139.66 8.80592C140.308 7.76949 141.215 6.99216 142.381 6.34438C143.547 5.82616 144.972 5.4375 146.397 5.4375C147.692 5.4375 148.729 5.56706 149.765 5.82617C150.802 6.08528 151.579 6.47394 152.486 6.99216V16.9679C152.486 17.227 152.486 17.4861 152.356 17.6156C152.227 17.7452 151.968 17.7452 151.709 17.7452H149.118C148.988 17.7452 148.858 17.7452 148.729 17.6156C148.599 17.4861 148.599 17.4861 148.47 17.3565L148.081 16.5792C147.563 17.0974 147.045 17.4861 146.397 17.7452C145.749 18.1339 144.972 18.2634 143.935 18.2634ZM145.879 14.895C146.526 14.895 147.045 14.7654 147.433 14.3768C147.822 14.1177 147.952 13.5994 147.952 13.0812V9.19459C147.692 9.06503 147.174 8.93548 146.786 8.93548C145.879 8.93548 145.231 9.19459 144.713 9.84236C144.194 10.4901 143.935 11.2675 143.935 12.4335C143.806 13.9881 144.454 14.895 145.879 14.895Z" fill="#979797"/>
<path d="M155.984 22.9271C155.465 22.9271 155.206 22.7975 154.947 22.668C154.818 22.4088 154.688 22.1497 154.688 21.7611V7.51006C155.465 6.99184 156.372 6.47362 157.538 6.21451C158.704 5.82585 159.87 5.69629 161.036 5.69629C166.089 5.69629 168.55 7.76917 168.55 12.0445C168.55 13.9878 168.032 15.5424 166.996 16.7084C165.959 17.8744 164.405 18.3926 162.461 18.3926C161.943 18.3926 161.425 18.2631 160.907 18.1335C160.389 18.004 160 17.8744 159.611 17.6153V21.7611C159.611 22.1497 159.482 22.5384 159.352 22.668C159.093 22.9271 158.834 22.9271 158.316 22.9271H155.984V22.9271ZM161.425 14.8947C162.202 14.8947 162.721 14.6356 162.98 14.1173C163.368 13.5991 163.498 12.8218 163.498 11.9149C163.498 10.8785 163.239 10.1011 162.85 9.58293C162.461 9.19427 161.814 8.93516 160.907 8.93516C160.389 8.93516 159.87 9.06471 159.611 9.19427V13.0809C159.611 13.5991 159.741 14.1173 160.129 14.3765C160.389 14.7651 160.907 14.8947 161.425 14.8947Z" fill="#979797"/>
</svg>
