<svg width="118" height="32" viewBox="0 0 118 32" fill="none" xmlns="http://www.w3.org/2000/svg">
<g clip-path="url(#clip0_380:3463)">
<path d="M32.9194 3.86133H38.3455C39.7246 3.86133 40.7359 4.22909 41.3795 4.87416C41.6723 5.12276 41.9066 5.433 42.0655 5.78267C42.2244 6.13234 42.3042 6.51281 42.2989 6.89687C42.314 7.2062 42.283 7.51605 42.207 7.81628C42.0199 8.29632 41.7386 8.734 41.3795 9.10346C41.2183 9.25699 41.0316 9.38141 40.8279 9.47123C41.4567 9.66182 42.0264 10.01 42.4828 10.4826C42.8506 10.9423 43.0345 11.4939 43.0345 12.3214C43.0409 12.7954 42.9469 13.2654 42.7586 13.7005C42.5291 14.1007 42.2154 14.4463 41.8392 14.7134C41.3979 14.9653 40.9367 15.1805 40.4601 15.3569C39.9085 15.5408 39.2649 15.5408 38.6213 15.5408H33.0069V3.86133H32.9194ZM37.8857 8.64376C38.3589 8.64109 38.8271 8.54745 39.2649 8.36793C39.4338 8.28179 39.575 8.14991 39.6726 7.98735C39.7701 7.82478 39.82 7.63807 39.8165 7.44852V7.44852C39.8179 7.26986 39.777 7.0934 39.6971 6.93359C39.6172 6.77379 39.5006 6.63518 39.3568 6.52911C39.1742 6.39421 38.965 6.29984 38.743 6.25227C38.521 6.20471 38.2915 6.20505 38.0696 6.25328H35.4953V8.7357H37.8857V8.64376ZM38.5293 13.3328C39.0025 13.3301 39.4707 13.2365 39.9085 13.0569C40.0907 12.9681 40.2363 12.8185 40.3202 12.6339C40.4041 12.4494 40.4211 12.2413 40.3682 12.0456V12.0456C40.3696 11.8669 40.3287 11.6905 40.2487 11.5307C40.1688 11.3708 40.0522 11.2322 39.9085 11.1262C39.4603 10.8729 38.952 10.7458 38.4374 10.7584H35.4033V13.3328H38.5293Z" fill="#979797"/>
<path d="M46.2538 3.86133H48.8281V15.6328H46.2538V3.86133Z" fill="#979797"/>
<path d="M52.7817 3.86133H55.1737L60.6902 11.1262V3.86133H63.2645V15.6328H61.0579L55.2656 8.18405V15.6328H52.7817V3.86133Z" fill="#979797"/>
<path d="M71.081 3.77246H73.4715L78.5327 15.6358H75.8634L74.7601 12.9666H69.7938L68.6905 15.6358H66.0212L71.081 3.77246ZM73.8407 10.7615L72.2762 6.90588L70.7132 10.7615H73.8407Z" fill="#979797"/>
<path d="M81.288 3.86133H83.6784L89.1964 11.1262V3.86133H91.7708V15.6328H89.5642L83.8623 8.18405V15.6328H81.288V3.86133Z" fill="#979797"/>
<path d="M101.15 15.8168C100.332 15.8063 99.523 15.6507 98.7597 15.3571C97.3131 14.7375 96.1607 13.5846 95.5417 12.1377C95.2482 11.3744 95.0925 10.565 95.082 9.74721C95.1058 8.13951 95.7288 6.59855 96.8289 5.42597C97.3724 4.86398 98.0297 4.42462 98.7567 4.13731C99.5417 3.80799 100.388 3.65121 101.239 3.6776C101.731 3.66239 102.224 3.69317 102.71 3.76955C103.124 3.83657 103.527 3.96032 103.907 4.13731C104.254 4.30213 104.592 4.48681 104.918 4.69044C105.247 4.90892 105.555 5.15712 105.838 5.4319L104.275 7.3597C103.837 6.99267 103.376 6.65482 102.894 6.34835C102.416 6.08707 101.876 5.96 101.331 5.98059C100.858 5.98325 100.39 6.07689 99.952 6.25641C99.5142 6.42383 99.132 6.71047 98.8487 7.08388C98.5486 7.44696 98.2992 7.84904 98.1072 8.27912C97.9277 8.71689 97.834 9.1851 97.8314 9.65824V9.65824C97.8337 10.1612 97.9272 10.6596 98.1072 11.1293C98.264 11.5771 98.5171 11.9851 98.8487 12.3245C99.1597 12.6749 99.5422 12.9547 99.9704 13.145C100.399 13.3353 100.863 13.4317 101.331 13.4278C101.934 13.4389 102.531 13.3132 103.078 13.0601C103.575 12.7763 104.038 12.437 104.459 12.0487L106.115 13.7081L105.196 14.629C104.849 14.8774 104.479 15.0928 104.092 15.2726C103.684 15.4808 103.251 15.6353 102.804 15.7323C102.255 15.8039 101.702 15.8347 101.149 15.8242L101.15 15.8168Z" fill="#979797"/>
<path d="M109.059 3.86133H117.886V6.16134H111.541V8.55181H117.151V10.8503H111.541V13.3328H117.978V15.6328H109.059V3.86133Z" fill="#979797"/>
<path d="M36.2307 27.219C35.5972 27.2394 34.9675 27.1135 34.3904 26.8512C33.8388 26.6674 33.2871 26.2996 32.7355 25.8399L33.6549 24.8285C34.0227 25.1963 34.3964 25.3802 34.8516 25.656C35.2894 25.8355 35.7576 25.9292 36.2307 25.9318C36.615 25.9278 36.993 25.8333 37.334 25.656C37.4544 25.5749 37.5516 25.464 37.6161 25.334C37.6805 25.204 37.7101 25.0594 37.7018 24.9145V24.9145C37.7154 24.785 37.6829 24.6547 37.6099 24.5468C37.5179 24.4548 37.426 24.271 37.334 24.179L36.7824 23.9017C36.5066 23.8098 36.1388 23.7178 35.863 23.6259C35.4527 23.5456 35.0521 23.4224 34.6677 23.2581C34.3636 23.1614 34.0818 23.0051 33.8388 22.7984C33.6326 22.604 33.4477 22.3883 33.2871 22.1548C33.1452 21.8375 33.0821 21.4905 33.1032 21.1435C33.1198 20.7997 33.1816 20.4597 33.2871 20.1321C33.3791 19.8563 33.6549 19.5805 33.8388 19.3907C34.1155 19.1831 34.4275 19.0274 34.7597 18.931C35.1186 18.8252 35.4891 18.7634 35.863 18.7471C36.4259 18.7489 36.9848 18.8421 37.5179 19.0229C37.9962 19.2338 38.4573 19.4817 38.897 19.7644L38.1556 20.8676C37.8086 20.6193 37.4393 20.4038 37.0523 20.2241C36.6845 20.0402 36.3108 20.0402 35.949 20.0402C35.5923 20.0329 35.2412 20.1287 34.9376 20.316C34.7257 20.508 34.5939 20.7727 34.5684 21.0575C34.5539 21.2165 34.5864 21.3764 34.6618 21.5172C34.7537 21.6091 34.8457 21.793 34.9376 21.8849C35.1465 21.9938 35.3637 22.086 35.5871 22.1608C35.9174 22.2763 36.2553 22.3685 36.5985 22.4366C37.0054 22.5298 37.4048 22.6527 37.7937 22.8043C38.088 22.9218 38.366 23.0763 38.6212 23.2641C38.8042 23.4557 38.959 23.6724 39.0809 23.9076C39.195 24.2022 39.2572 24.5142 39.2648 24.83V24.83C39.2566 25.1747 39.1946 25.5159 39.0809 25.8414C38.8957 26.1388 38.68 26.4161 38.4373 26.6688C38.161 26.8761 37.8495 27.0318 37.5179 27.1285C37.0582 27.1271 36.5985 27.219 36.2307 27.219Z" fill="#979797"/>
<path d="M40.8279 18.8506H42.3909L44.8748 22.7121L47.4491 18.8506H49.0121V27.1268H47.5411V21.1491L44.9667 25.0106H44.8748L42.2989 21.1491V27.1268H40.8279V18.8506Z" fill="#979797"/>
<path d="M53.977 18.7588H55.3576L58.9433 27.035H57.3803L56.5528 25.0123H52.6972L51.8697 27.035H50.3987L53.977 18.7588ZM56.0931 23.8156L54.622 20.5057L53.2414 23.8156H56.0931Z" fill="#979797"/>
<path d="M60.4142 18.8506H64.0934C64.558 18.8666 65.0199 18.9282 65.4725 19.0345C65.859 19.1592 66.2071 19.3808 66.4838 19.6781C66.7096 19.9235 66.8957 20.2027 67.0355 20.5055C67.1491 20.831 67.2112 21.1722 67.2194 21.5169V21.5169C67.2027 21.8306 67.1407 22.1403 67.0355 22.4363C66.9435 22.7121 66.7597 22.896 66.6677 23.1778C66.4733 23.3839 66.2576 23.5688 66.0241 23.7294C65.7664 23.8897 65.488 24.0139 65.1966 24.0986L67.4107 27.2187H65.6564L63.6322 24.3685H61.7933V27.2187H60.3223L60.4142 18.8506ZM63.9999 22.9019C64.4611 22.9019 64.9208 22.81 65.1966 22.5342C65.4751 22.2693 65.64 21.9068 65.6564 21.5228V21.5228C65.64 21.1389 65.4751 20.7763 65.1966 20.5115C64.8184 20.2523 64.3661 20.1232 63.908 20.1437H61.7933V22.9019H63.9999Z" fill="#979797"/>
<path d="M70.989 20.1378H68.3228V18.8506H75.0359V20.1378H72.3682V27.1268H70.8971L70.989 20.1378Z" fill="#979797"/>
<path d="M83.9557 27.2193C83.3821 27.2301 82.8143 27.104 82.2992 26.8515C81.2879 26.3918 80.4604 25.6563 80.0926 24.6449C79.9088 24.0933 79.7249 23.5401 79.8168 22.9885C79.8187 22.4256 79.9118 21.8667 80.0926 21.3335C80.291 20.824 80.588 20.3586 80.9667 19.9642C81.3454 19.5698 81.7982 19.254 82.2992 19.035C82.8509 18.8511 83.4025 18.6672 84.0476 18.6672C84.3874 18.6478 84.7282 18.6788 85.0589 18.7592L85.8864 19.035C86.1622 19.127 86.3461 19.3108 86.6279 19.4028C86.8118 19.5867 87.0876 19.7705 87.2715 19.9544L86.352 21.0577C86.0551 20.76 85.714 20.5099 85.3407 20.3163C84.938 20.1281 84.4979 20.0338 84.0535 20.0404C83.6792 20.0568 83.3082 20.1185 82.9488 20.2243C82.6078 20.3848 82.2968 20.6025 82.0293 20.8679C81.7613 21.1153 81.5699 21.4344 81.4777 21.7873C81.3719 22.1463 81.3101 22.5168 81.2938 22.8906C81.3101 23.2645 81.3719 23.635 81.4777 23.9939C81.5695 24.3474 81.761 24.667 82.0293 24.9148C82.2968 25.1802 82.6078 25.3979 82.9488 25.5584C83.2824 25.7519 83.6752 25.8173 84.0535 25.7423C84.4979 25.7489 84.938 25.6546 85.3407 25.4665C85.7504 25.2515 86.1229 24.9721 86.444 24.639L87.3634 25.5584L86.7198 26.202C86.444 26.3859 86.2601 26.5697 85.9784 26.6617C85.6966 26.7536 85.4267 26.9375 85.0589 26.9375C84.6912 27.2133 84.3175 27.2133 83.9557 27.2133V27.2193Z" fill="#979797"/>
<path d="M88.8286 18.8506H90.2077V22.2524H94.1627V18.8506H95.6338V27.1268H94.1627V23.6315H90.2077V27.1268H88.8286V18.8506Z" fill="#979797"/>
<path d="M100.69 18.7588H102.07L105.657 27.035H104.094L103.266 25.0123H99.4107L98.5832 27.035H97.1122L100.69 18.7588ZM102.713 23.8156L101.334 20.5057L99.955 23.8156H102.713Z" fill="#979797"/>
<path d="M107.128 18.8506H108.599V27.1268H107.128V18.8506Z" fill="#979797"/>
<path d="M110.806 18.8506H112.093L116.507 24.5509V18.8506H117.978V27.1268H116.783L112.277 21.2411V27.1268H110.806V18.8506Z" fill="#979797"/>
<path d="M16.7363 26.5754V30.1685L13.6088 32.0074L10.5747 30.1685V26.5754L13.6088 28.4142L16.7363 26.5754ZM0 14.1604L3.03406 16.0007V22.1607L8.27619 25.2882V28.8739L0 23.9996V14.1604ZM27.2191 14.1604V23.9996L18.8509 28.8739V25.2882L24.0916 22.1607V16.0007L27.2191 14.1604ZM18.8509 9.28749L21.9769 11.1263V14.7135L16.7363 17.8395V24.0885L13.7007 25.9274L10.6667 24.0885V17.8395L5.24213 14.7135V11.1263L8.36814 9.28749L13.6088 12.4135L18.8509 9.28749ZM5.24213 17.2879L8.27619 19.1267V22.7124L5.24213 20.8736V17.2879ZM21.9769 17.2879V20.8736L18.9429 22.7124V19.1267L21.9769 17.2879ZM3.03406 6.16594L6.16599 8.00032L3.03851 9.83914V13.4248L0.00444859 11.586V8.00032L3.03406 6.16594ZM24.1835 6.16594L27.311 8.00476V11.5905L24.1835 13.4293V9.83914L21.1435 8.00032L24.1835 6.16594ZM13.6088 6.16594L16.7363 8.00476L13.6088 9.84359L10.5747 8.00476L13.6088 6.16594ZM13.6088 0.00439453L21.9769 4.87876L18.9429 6.71758L13.7007 3.5901L8.3622 6.71758L5.32814 4.87876L13.6088 0.00439453Z" fill="#979797"/>
</g>
<defs>
<clipPath id="clip0_380:3463">
<rect width="117.978" height="32" fill="white"/>
</clipPath>
</defs>
</svg>
