<svg width="89" height="33" viewBox="0 0 89 33" fill="none" xmlns="http://www.w3.org/2000/svg">
<path d="M31.502 0.848247H35.5195C37.4066 0.848247 38.7717 1.13035 39.6148 1.69455C40.4579 2.25875 40.8794 3.15045 40.8794 4.36965C40.8794 5.21271 40.6427 5.90986 40.1693 6.46109C39.7023 7.00583 39.0182 7.35927 38.1167 7.5214V7.61868C40.2763 7.98832 41.356 9.12321 41.356 11.0233C41.356 12.2944 40.9248 13.2866 40.0623 14C39.2062 14.7134 38.0065 15.07 36.463 15.07H31.502V0.848247ZM33.1556 6.93774H35.8794C37.0467 6.93774 37.8865 6.75616 38.3988 6.39299C38.9112 6.02334 39.1673 5.40402 39.1673 4.53502C39.1673 3.73735 38.882 3.16342 38.3113 2.81323C37.7406 2.45655 36.8327 2.27821 35.5876 2.27821H33.1556V6.93774ZM33.1556 8.33852V13.6595H36.1226C37.2704 13.6595 38.133 13.439 38.7101 12.9981C39.2938 12.5506 39.5856 11.8534 39.5856 10.9066C39.5856 10.0246 39.2873 9.37613 38.6907 8.96109C38.1005 8.54604 37.1991 8.33852 35.9864 8.33852H33.1556Z" fill="#979797"/>
<path d="M43.1751 15.07V0.848247H44.8288V13.572H51.1031V15.07H43.1751Z" fill="#979797"/>
<path d="M64.6245 7.93969C64.6245 10.216 64.0473 12.0058 62.893 13.3093C61.7451 14.6128 60.1466 15.2646 58.0973 15.2646C56.0026 15.2646 54.3846 14.6258 53.2432 13.3482C52.1083 12.0642 51.5409 10.2549 51.5409 7.92023C51.5409 5.60506 52.1116 3.81193 53.2529 2.54085C54.3943 1.26329 56.0156 0.624512 58.1167 0.624512C60.1595 0.624512 61.7549 1.27302 62.9027 2.57004C64.0506 3.86705 64.6245 5.65694 64.6245 7.93969ZM53.2918 7.93969C53.2918 9.86576 53.7004 11.3281 54.5175 12.3268C55.3411 13.3191 56.5344 13.8152 58.0973 13.8152C59.6732 13.8152 60.8632 13.3191 61.6673 12.3268C62.4715 11.3346 62.8735 9.87224 62.8735 7.93969C62.8735 6.02659 62.4715 4.57717 61.6673 3.59144C60.8697 2.59922 59.6861 2.10311 58.1167 2.10311C56.5409 2.10311 55.3411 2.60246 54.5175 3.60117C53.7004 4.59338 53.2918 6.03956 53.2918 7.93969Z" fill="#979797"/>
<path d="M72.6498 2.12257C71.0869 2.12257 69.8515 2.64462 68.9436 3.68871C68.0422 4.72633 67.5914 6.1498 67.5914 7.95914C67.5914 9.82036 68.0259 11.2601 68.8949 12.2782C69.7704 13.2899 71.0156 13.7957 72.6304 13.7957C73.6226 13.7957 74.7542 13.6174 76.0253 13.2607V14.7101C75.0396 15.0798 73.8236 15.2646 72.3774 15.2646C70.2828 15.2646 68.6647 14.6291 67.5234 13.358C66.3885 12.0869 65.821 10.2808 65.821 7.93969C65.821 6.47406 66.0934 5.19001 66.6381 4.08755C67.1894 2.98508 67.9806 2.13554 69.0117 1.53891C70.0493 0.942281 71.2685 0.643967 72.6693 0.643967C74.1608 0.643967 75.4643 0.916341 76.5798 1.46109L75.8794 2.88132C74.8029 2.37548 73.7263 2.12257 72.6498 2.12257Z" fill="#979797"/>
<path d="M88.1556 15.07H86.2101L81.0253 8.17315L79.537 9.49611V15.07H77.8833V0.848247H79.537V7.90078L85.9864 0.848247H87.9416L82.2218 7.02529L88.1556 15.07Z" fill="#979797"/>
<path d="M31.502 32.2337V18.0119H33.1556V32.2337H31.502Z" fill="#979797"/>
<path d="M46.93 32.2337H45.0428L37.2704 20.2979H37.1926C37.2964 21.6987 37.3483 22.9827 37.3483 24.15V32.2337H35.821V18.0119H37.6887L45.4416 29.8991H45.5195C45.5065 29.724 45.4773 29.163 45.4319 28.2162C45.3865 27.2629 45.3703 26.5819 45.3833 26.1734V18.0119H46.93V32.2337Z" fill="#979797"/>
<path d="M57.6206 28.4496C57.6206 29.7013 57.1667 30.6773 56.2588 31.3777C55.3509 32.078 54.1187 32.4282 52.5623 32.4282C50.8761 32.4282 49.5791 32.211 48.6712 31.7765V30.1812C49.2549 30.4276 49.8904 30.6221 50.5778 30.7648C51.2652 30.9075 51.9462 30.9788 52.6206 30.9788C53.7231 30.9788 54.5532 30.7713 55.1109 30.3563C55.6686 29.9347 55.9475 29.3511 55.9475 28.6053C55.9475 28.1124 55.847 27.7103 55.6459 27.3991C55.4514 27.0813 55.1206 26.7895 54.6537 26.5236C54.1933 26.2577 53.4896 25.9561 52.5428 25.6189C51.2199 25.1455 50.273 24.5845 49.7023 23.936C49.1381 23.2875 48.856 22.4412 48.856 21.3971C48.856 20.3011 49.2678 19.4289 50.0914 18.7804C50.9151 18.1319 52.0045 17.8076 53.3599 17.8076C54.7737 17.8076 56.0739 18.067 57.2607 18.5858L56.7451 20.0255C55.5713 19.5326 54.43 19.2862 53.321 19.2862C52.4455 19.2862 51.7614 19.4743 51.2685 19.8504C50.7756 20.2266 50.5292 20.7486 50.5292 21.4166C50.5292 21.9094 50.62 22.3148 50.8016 22.6325C50.9831 22.9438 51.2879 23.2324 51.716 23.4983C52.1505 23.7577 52.8119 24.0463 53.7004 24.364C55.192 24.8958 56.2166 25.4665 56.7743 26.0761C57.3385 26.6857 57.6206 27.4769 57.6206 28.4496Z" fill="#979797"/>
<path d="M59.2841 32.2337V18.0119H60.9378V32.2337H59.2841Z" fill="#979797"/>
<path d="M74.9553 24.9866C74.9553 27.3342 74.3165 29.1306 73.0389 30.3757C71.7678 31.6144 69.9358 32.2337 67.5428 32.2337H63.6031V18.0119H67.9611C70.1725 18.0119 71.8911 18.6247 73.1167 19.8504C74.3424 21.0761 74.9553 22.7882 74.9553 24.9866ZM73.2043 25.045C73.2043 23.1902 72.7374 21.7927 71.8035 20.8524C70.8761 19.912 69.4948 19.4419 67.6595 19.4419H65.2568V30.8037H67.2704C69.2419 30.8037 70.7237 30.3206 71.716 29.3543C72.7082 28.3815 73.2043 26.9451 73.2043 25.045Z" fill="#979797"/>
<path d="M84.8191 32.2337H76.8911V18.0119H84.8191V19.4808H78.5448V24.0625H84.4397V25.5216H78.5448V30.7551H84.8191V32.2337Z" fill="#979797"/>
<path d="M14.07 0.5H0V32.5H14.07V0.5Z" fill="#979797"/>
<path fill-rule="evenodd" clip-rule="evenodd" d="M15.4397 14.5698H27.7665V32.4998H15.4397V14.5698ZM24.0311 17.8074H19.2996V29.2626H24.0311V17.8074Z" fill="#979797"/>
<path fill-rule="evenodd" clip-rule="evenodd" d="M15.4397 0.624512H27.7665V13.2004H15.4397V0.624512ZM21.5409 9.09144C22.7787 9.09144 23.7821 8.088 23.7821 6.85019C23.7821 5.61239 22.7787 4.60895 21.5409 4.60895C20.3031 4.60895 19.2996 5.61239 19.2996 6.85019C19.2996 8.088 20.3031 9.09144 21.5409 9.09144Z" fill="#979797"/>
</svg>
