<svg width="134" height="33" viewBox="0 0 134 33" fill="none" xmlns="http://www.w3.org/2000/svg">
<path d="M19.7534 5.27459C19.9835 5.23851 20.175 5.21447 20.175 5.21447C21.1153 5.07018 21.1153 4.12752 21.1153 4.12752V1.77972C21.0488 0.873929 20.2945 0.810578 20.2945 0.810578C14.9704 0.799355 13.473 3.86383 13.473 3.86383H8.90718C6.54485 3.86383 4.27927 4.80223 2.60885 6.47265C0.93843 8.14307 0 10.4087 0 12.771V23.9042C0.00021258 26.2664 0.938737 28.5318 2.60914 30.202C4.27953 31.8722 6.54499 32.8105 8.90718 32.8105H14.9415C17.3036 32.8103 19.5688 31.8719 21.239 30.2017C22.9093 28.5315 23.8477 26.2662 23.8479 23.9042V12.771C23.849 11.2783 23.4745 9.80936 22.759 8.49935C22.0435 7.18934 21.0099 6.08036 19.7534 5.27459V5.27459ZM19.9618 11.866H16.3483V22.4926C16.3483 23.9771 15.7901 25.2687 14.6738 26.3674C13.6285 27.386 12.3192 27.8936 10.746 27.8904C9.1888 27.8904 7.87955 27.3828 6.81825 26.3674C5.70192 25.2874 5.14376 23.9958 5.14376 22.4926V20.1512C5.14376 18.6666 5.70192 17.3748 6.81825 16.2755C7.86245 15.2602 9.1717 14.7512 10.746 14.7485C11.934 14.7485 12.9015 15.1311 13.6485 15.8964V7.18316C13.6485 5.69863 14.164 4.35918 15.3247 3.3075C17.008 1.77968 20.1774 1.77972 20.1774 1.77972V4.16681C19.2797 4.25338 17.8528 4.49307 17.2741 4.98123C16.713 5.44775 16.3507 6.11948 16.3507 7.16554V9.4773H19.9642L19.9618 11.866Z" fill="#979797"/>
<path d="M36.5513 10.9292H33.4997C33.4997 10.9292 30.5042 10.9669 29.9575 13.1905C29.9575 13.1905 30.4657 11.3998 33.0476 11.419V19.0212C33.0476 19.0212 33.062 19.7659 32.1242 19.7659H37.5693C37.5693 19.7659 41.4129 19.5398 41.4698 15.2441C41.4698 15.2441 41.6582 11.023 36.5513 10.9292ZM39.4907 15.2577C39.4539 19.62 36.4391 19.2985 36.4391 19.2985H34.8937V11.4037H36.5144C39.736 11.6266 39.4907 15.2545 39.4907 15.2545V15.2577Z" fill="#979797"/>
<path d="M42.6755 10.9049C42.6755 10.9049 43.655 10.8536 43.655 11.7016V18.996C43.655 18.996 43.5989 19.7311 42.6378 19.7688H49.1571L49.7983 17.2839C49.7983 17.2839 49.3839 19.1499 47.5539 19.3006H45.5003V15.6262H47.271C47.271 15.6262 48.2272 15.5316 48.3828 16.7756V13.9461C48.3828 13.9461 48.4156 15.138 47.2806 15.1901H45.5003V11.4179H47.8738C47.8738 11.4179 48.9158 11.3746 49.0048 12.8231V10.7397C49.0048 10.7397 48.6304 10.888 47.8826 10.9097L42.6755 10.9049Z" fill="#979797"/>
<path d="M50.7209 19.7656C51.6828 19.7279 51.7382 18.9928 51.7382 18.9928V11.6984C51.7382 10.8504 50.7586 10.9017 50.7586 10.9017L55.9689 10.9097C56.7176 10.888 57.0911 10.7397 57.0911 10.7397V12.8239C56.999 11.3754 55.9601 11.4187 55.9601 11.4187H53.5866V15.1909H57.3452C58.4803 15.1388 58.4474 13.9469 58.4474 13.9469V16.774C58.2919 15.53 57.3356 15.6246 57.3356 15.6246H53.5866V19.0065C53.5866 19.0065 53.464 19.7038 54.6599 19.7696L50.7209 19.7656Z" fill="#979797"/>
<path d="M61.9319 18.9962C61.9319 18.9962 61.8093 19.7032 63.0052 19.7689H59.0679C60.0298 19.7312 60.0851 18.9962 60.0851 18.9962V11.7563C60.0851 10.9082 59.1047 10.9082 59.1047 10.9082H63.0052C61.9712 10.9507 61.9319 11.7563 61.9319 11.7563V18.9962Z" fill="#979797"/>
<path d="M65.2288 10.1788C65.2288 10.1788 66.8111 9.48224 68.6956 12.7038L67.8668 19.0155C67.8668 19.0155 67.7722 19.6567 66.8111 19.769H69.296C69.296 19.769 68.4672 19.7313 68.5986 18.9393L69.2206 14.0601C69.2206 14.0601 69.2776 13.8156 69.5789 14.456L72.5368 20.0327C72.529 19.5706 72.6461 19.115 72.8759 18.7141L75.3063 14.5498C75.3063 14.5498 75.5139 14.2669 75.5892 14.8512L76.3499 18.888C76.3499 18.888 76.6048 19.9637 77.0168 20.5216C77.0168 20.5216 78.5399 23.0065 81.4769 22.1288C81.4769 22.1288 79.0569 22.3452 78.321 19.2792L76.8164 10.7399L73.1941 16.9682C73.1941 16.9682 73.021 17.3209 72.8398 17.0075L70.314 12.2293C70.314 12.2293 68.375 8.61172 65.2288 10.1788Z" fill="#979797"/>
<path d="M105.07 12.6717L105.268 10.9082C105.268 10.9082 104.5 10.9042 103.653 10.8096C103.653 10.8096 101.288 10.3856 100.383 11.9871C100.383 11.9871 99.3089 13.8901 101.457 15.3033L103.596 16.6411C103.596 16.6411 104.66 17.2255 104.547 18.1481C104.547 18.1481 104.603 19.5428 102.908 19.4675H102.22C102.22 19.4675 100.345 19.4956 100.337 17.0836C100.337 17.0836 100.067 17.3521 99.9406 18.0727V19.0763C99.9406 19.0763 100.497 19.8538 101.964 19.8819C101.964 19.8819 103.912 20.2354 105.099 19.0899C105.099 19.0899 106.045 18.4703 105.946 16.9722C105.946 16.9722 105.953 15.8131 104.516 15.1229C104.516 15.1229 103.359 14.4119 102.472 13.7931C102.472 13.7931 100.873 12.9579 101.751 11.7282C101.751 11.7282 102.273 11.0926 103.559 11.22C103.558 11.2208 105.035 11.3507 105.07 12.6717Z" fill="#979797"/>
<path d="M106.846 10.7559V12.2668C106.846 12.2668 106.978 11.2873 108.278 11.3434H109.941V18.8614C109.941 18.8614 109.983 19.6999 108.946 19.78H112.734C112.734 19.78 111.872 19.7416 111.717 18.9272V11.3434H113.527C113.527 11.3434 114.65 11.3859 114.848 12.4312V10.7559C114.848 10.7559 114.361 10.9474 113.316 10.8913H108.009C108.009 10.8913 107.329 10.945 106.846 10.7559Z" fill="#979797"/>
<path d="M115.57 10.9272C115.57 10.9272 116.643 10.9521 116.676 11.8001V18.8356C116.676 18.8356 116.676 19.6837 115.617 19.7831H122.211L122.621 17.7551C122.621 17.7551 121.957 19.0264 120.858 19.21C120.613 19.2582 120.365 19.2851 120.116 19.2901H118.442V15.6245H120.257C120.257 15.6245 121.299 15.5587 121.36 16.7739V14.0486C121.36 14.0486 121.323 15.1515 120.277 15.1892H118.449V11.4106H120.832C120.832 11.4106 121.843 11.3224 122.03 12.7356L122.038 10.7012C122.038 10.7012 121.567 10.9016 120.748 10.8919L115.57 10.9272Z" fill="#979797"/>
<path d="M123.606 10.947C123.606 10.947 124.642 10.8156 124.728 11.824V18.9156C124.728 18.9156 124.832 19.641 123.758 19.7773H127.541C127.541 19.7773 126.637 19.7629 126.579 18.9052V11.412H127.847C127.847 11.412 129.09 11.4825 129.104 13.0785V13.6588C129.104 13.6588 129.104 15.5602 127.013 15.3582C127.013 15.3582 127.678 15.3958 128.045 16.4844C128.045 16.4844 128.526 17.6571 129.104 18.5477C129.104 18.5477 129.811 20.0594 133.16 19.7773C133.16 19.7773 132.171 19.9184 131.14 18.2086C131.14 18.2086 130 15.9946 128.963 15.7116C128.963 15.7116 130.961 15.5425 131.073 13.2267C131.073 13.2267 131.092 10.9174 127.889 10.9422L123.606 10.947Z" fill="#979797"/>
<path d="M88.7849 13.3617C88.5464 12.8051 88.203 12.2998 87.7733 11.8732C87.3459 11.4514 86.8388 11.119 86.2816 10.8952C85.7087 10.6666 85.0972 10.5507 84.4804 10.5538C83.4568 10.5538 82.5566 10.7886 81.8127 11.2511C81.0906 11.6773 80.5039 12.2993 80.1206 13.0451C79.7521 13.7912 79.5648 14.6137 79.5739 15.4458C79.5694 16.0871 79.7011 16.7221 79.9603 17.3087C80.4683 18.452 81.3943 19.3576 82.5486 19.8401C83.1262 20.0814 83.7462 20.2049 84.3722 20.2032C85.0755 20.2114 85.7727 20.0707 86.4178 19.7904C87.0028 19.5387 87.5222 19.1562 87.936 18.6722C88.7456 17.7207 89.1568 16.5672 89.1568 15.2422C89.1631 14.5965 89.0365 13.9564 88.7849 13.3617V13.3617ZM84.3586 11.5349C84.9838 11.5349 85.5249 11.7 85.9673 12.0262C86.4366 12.3869 86.7972 12.8701 87.0094 13.4226C87.2595 14.0294 87.3853 14.7428 87.3853 15.5412C87.3853 16.7436 87.1369 17.6686 86.6471 18.2986C86.1573 18.9287 85.48 19.2221 84.563 19.2221C84.1247 19.2253 83.693 19.1148 83.3101 18.9014C82.9095 18.6747 82.5588 18.3694 82.2793 18.0037C81.9778 17.611 81.7445 17.1703 81.5891 16.7003C81.4253 16.2093 81.3425 15.6949 81.3438 15.1773C81.3336 14.5312 81.4586 13.8901 81.7109 13.2952C81.9313 12.7765 82.2922 12.3298 82.753 12.0054C83.1987 11.692 83.7397 11.5349 84.3586 11.5349Z" fill="#979797"/>
<path d="M97.272 17.8001C97.272 17.8001 97.5405 18.0406 97.5405 17.6727V11.7233C97.5405 11.7233 97.5357 11.0299 96.7205 10.9041H98.9112C98.9112 10.9041 98.0888 11.05 98.1337 11.7233V19.9476C97.1606 20.0461 96.3446 18.9857 96.3446 18.9857L91.4782 13.1646V18.6482C91.4782 18.6482 91.4092 19.6654 92.6373 19.6654H89.7259C89.7259 19.6654 90.9147 19.5515 90.885 18.6762V12.4023C89.6385 10.6163 88.5989 10.8095 88.5989 10.8095C90.7455 9.90052 92.3423 11.8452 92.5876 12.1169L97.272 17.8001Z" fill="#979797"/>
<path d="M56.7273 26.0205H45.4602V26.3219H56.7273V26.0205Z" fill="#979797"/>
<path d="M117.66 26.0205H106.393V26.3219H117.66V26.0205Z" fill="#979797"/>
<path d="M60.3447 26.26C60.3447 25.5105 60.8425 25.0577 61.5086 25.0577C61.7775 25.0553 62.0366 25.1587 62.23 25.3454L62.0513 25.5346C61.9807 25.4642 61.8969 25.4085 61.8048 25.3705C61.7126 25.3325 61.6139 25.3131 61.5142 25.3134C61.0157 25.3134 60.6862 25.674 60.6862 26.2528C60.6862 26.8315 61.0012 27.2043 61.503 27.2043C61.6168 27.2044 61.7295 27.1815 61.8342 27.1369C61.9389 27.0922 62.0335 27.0268 62.1122 26.9446L62.2942 27.1281C62.1907 27.2369 62.0655 27.3226 61.9267 27.3798C61.7879 27.437 61.6386 27.4643 61.4886 27.46C60.8353 27.4584 60.3447 27.0119 60.3447 26.26Z" fill="#979797"/>
<path d="M62.5154 26.2513C62.5154 25.5074 62.9771 25.0562 63.6376 25.0562C64.2981 25.0562 64.7598 25.5074 64.7598 26.2513C64.7598 26.9952 64.2981 27.4585 63.6376 27.4585C62.9771 27.4585 62.5154 26.9944 62.5154 26.2513ZM64.4175 26.2513C64.4175 25.6685 64.1057 25.3119 63.636 25.3119C63.1663 25.3119 62.8553 25.6685 62.8553 26.2513C62.8553 26.834 63.1631 27.2028 63.636 27.2028C64.1089 27.2028 64.4175 26.8292 64.4175 26.2513Z" fill="#979797"/>
<path d="M65.1294 26.4209H66.0464V26.6422H65.1294V26.4209Z" fill="#979797"/>
<path d="M66.4152 26.26C66.4152 25.5105 66.9137 25.0577 67.5799 25.0577C67.8487 25.0555 68.1077 25.1588 68.3013 25.3454L68.1225 25.5346C68.0519 25.4641 67.968 25.4083 67.8757 25.3703C67.7834 25.3324 67.6845 25.313 67.5847 25.3134C67.0869 25.3134 66.7574 25.674 66.7574 26.2528C66.7574 26.8315 67.0725 27.2043 67.5742 27.2043C67.688 27.2045 67.8006 27.1816 67.9052 27.137C68.0097 27.0923 68.1042 27.0269 68.1827 26.9446L68.3654 27.1281C68.2624 27.2364 68.1378 27.3218 67.9998 27.3789C67.8617 27.4361 67.7132 27.4637 67.5638 27.46C66.9065 27.4584 66.4152 27.0119 66.4152 26.26Z" fill="#979797"/>
<path d="M70.2948 27.4175L69.6536 26.4339H69.1862V27.4175H68.8528V25.1001H69.6768C70.2107 25.1001 70.5938 25.2676 70.5938 25.751C70.5938 26.1117 70.3573 26.3265 69.999 26.4027L70.6724 27.4175H70.2948ZM69.1862 26.1975H69.6263C70.0383 26.1975 70.2676 26.0516 70.2676 25.751C70.2676 25.4504 70.0415 25.3374 69.6263 25.3374H69.1862V26.1975Z" fill="#979797"/>
<path d="M71.126 25.1001H72.641V25.3462H71.4586V26.074H72.4542V26.3241H71.4586V27.1722H72.6803V27.4215H71.126V25.1001Z" fill="#979797"/>
<path d="M74.435 26.7089H73.4731L73.2198 27.4175H72.8823L73.7745 25.1001H74.1432L75.0354 27.4175H74.6843L74.435 26.7089ZM74.3548 26.4748L74.229 26.1213C74.132 25.8584 74.0502 25.6059 73.9645 25.3374H73.95C73.8699 25.6091 73.7809 25.8584 73.6879 26.1213L73.5597 26.4748H74.3548Z" fill="#979797"/>
<path d="M75.7351 25.3462H74.9399V25.1001H76.8637V25.3462H76.0678V27.4175H75.7351V25.3462Z" fill="#979797"/>
<path d="M77.3326 25.1001H77.6661V27.4175H77.3326V25.1001Z" fill="#979797"/>
<path d="M78.2321 26.2513C78.2321 25.5074 78.6938 25.0562 79.3543 25.0562C80.0148 25.0562 80.4765 25.5074 80.4765 26.2513C80.4765 26.9952 80.014 27.4585 79.3543 27.4585C78.6946 27.4585 78.2321 26.9944 78.2321 26.2513ZM80.1334 26.2513C80.1334 25.6685 79.8216 25.3119 79.3527 25.3119C78.8837 25.3119 78.5719 25.6685 78.5719 26.2513C78.5719 26.834 78.8797 27.2028 79.3527 27.2028C79.8256 27.2028 80.1334 26.8292 80.1334 26.2513V26.2513Z" fill="#979797"/>
<path d="M81.04 25.1001H81.3839L82.3402 26.5614L82.6191 27.0383H82.6368C82.6191 26.8043 82.5943 26.5446 82.5943 26.3041V25.1017H82.9093V27.4191H82.5726L81.6107 25.9538L81.3278 25.4728H81.3133C81.3278 25.7069 81.3526 25.9538 81.3526 26.1942V27.4119H81.0376L81.04 25.1001Z" fill="#979797"/>
<path d="M84.2776 26.2513C84.2776 25.5074 84.7393 25.0562 85.3998 25.0562C86.0603 25.0562 86.522 25.5074 86.522 26.2513C86.522 26.9952 86.0595 27.4585 85.3998 27.4585C84.7401 27.4585 84.2776 26.9944 84.2776 26.2513ZM86.1797 26.2513C86.1797 25.6685 85.8679 25.3119 85.3982 25.3119C84.9285 25.3119 84.6175 25.6685 84.6175 26.2513C84.6175 26.834 84.9261 27.2028 85.3982 27.2028C85.8703 27.2028 86.1797 26.8292 86.1797 26.2513Z" fill="#979797"/>
<path d="M87.0856 25.1001H88.6006V25.3462H87.419V26.1301H88.4242V26.377H87.4214V27.4191H87.088L87.0856 25.1001Z" fill="#979797"/>
<path d="M89.5961 25.1001H89.9399L90.2157 26.3618C90.2662 26.6111 90.3199 26.8612 90.3696 27.1113H90.384C90.4449 26.8612 90.5099 26.6111 90.5748 26.3618L90.9355 25.1001H91.2369L91.6056 26.3618C91.6706 26.6079 91.7315 26.858 91.7916 27.1113H91.81C91.8597 26.858 91.91 26.6082 91.9607 26.3618L92.2365 25.1001H92.5571L92.012 27.4175H91.6112L91.2104 26.0195C91.164 25.8368 91.1247 25.6684 91.0814 25.4921H91.0694C91.0269 25.6684 90.9804 25.8368 90.9371 26.0195L90.5467 27.4175H90.1532L89.5961 25.1001Z" fill="#979797"/>
<path d="M93.01 25.1001H94.525V25.3462H93.3427V26.074H94.339V26.3241H93.3427V27.1722H94.5643V27.4215H93.01V25.1001Z" fill="#979797"/>
<path d="M96.3198 26.7089H95.3579L95.1038 27.4175H94.7671L95.6585 25.1001H96.028L96.9193 27.4175H96.5683L96.3198 26.7089ZM96.2396 26.4748L96.1138 26.1213C96.0176 25.8584 95.935 25.6059 95.8492 25.3374H95.8348C95.7546 25.6091 95.6665 25.8584 95.5735 26.1213L95.4444 26.4748H96.2396Z" fill="#979797"/>
<path d="M97.2897 25.1001H97.6231V27.1722H98.7694V27.4215H97.2897V25.1001Z" fill="#979797"/>
<path d="M99.2992 25.3462H98.5049V25.1001H100.429V25.3462H99.6335V27.4175H99.3L99.2992 25.3462Z" fill="#979797"/>
<path d="M100.897 25.1001H101.229V26.07H102.452V25.1001H102.781V27.4175H102.452V26.3241H101.226V27.4175H100.894L100.897 25.1001Z" fill="#979797"/>
</svg>
