<svg width="158" height="32" viewBox="0 0 158 32" fill="none" xmlns="http://www.w3.org/2000/svg">
<path fill-rule="evenodd" clip-rule="evenodd" d="M67.649 18.8236V15.0589C67.649 13.2425 65.9464 11.7647 63.854 11.7647C61.7613 11.7647 60.0587 13.2425 60.0587 15.0589V18.8236C60.0587 20.6399 61.7613 22.1177 63.854 22.1177C65.9464 22.1177 67.649 20.6399 67.649 18.8236ZM63.854 7.52941C68.6448 7.52941 72.5284 10.9005 72.5284 15.0589V18.8236C72.5284 22.982 68.6448 26.353 63.854 26.353C59.0629 26.353 55.1793 22.982 55.1793 18.8236V15.0589C55.1793 10.9005 59.0629 7.52941 63.854 7.52941ZM106.685 18.8236V15.0589C106.685 13.2425 104.983 11.7647 102.89 11.7647C100.797 11.7647 99.0944 13.2425 99.0944 15.0589V18.8236C99.0944 20.6399 100.797 22.1177 102.89 22.1177C104.983 22.1177 106.685 20.6399 106.685 18.8236ZM102.89 7.52941C107.681 7.52941 111.565 10.9005 111.565 15.0589V18.8236C111.565 22.982 107.681 26.353 102.89 26.353C98.0987 26.353 94.215 22.982 94.215 18.8236V15.0589C94.215 10.9005 98.099 7.52941 102.89 7.52941ZM44.336 11.7647C42.2432 11.7647 40.5406 13.2425 40.5406 15.0589V18.8236C40.5406 20.6399 42.2432 22.1177 44.336 22.1177C46.4288 22.1177 48.131 20.6399 48.131 18.8236H53.0104C53.0104 22.982 49.1267 26.353 44.336 26.353C39.5449 26.353 35.6612 22.982 35.6612 18.8236V15.0589C35.6612 10.9005 39.5449 7.52941 44.336 7.52941C49.1267 7.52941 53.0104 10.9005 53.0104 15.0589H48.131C48.131 13.2425 46.4288 11.7647 44.336 11.7647ZM28.6132 25.8824V8.00001H33.4925V25.8824H28.6132ZM28.6132 6.11752V1.88234H33.4925V6.11764L28.6132 6.11752ZM83.3717 7.52941C88.1628 7.52941 92.0465 10.9005 92.0465 15.0589V25.8824H87.1667V15.0589C87.1667 13.2425 85.4645 11.7647 83.3717 11.7647C81.279 11.7647 79.5764 13.2425 79.5764 15.0589V25.8824H74.6973V15.0589C74.6973 10.9005 78.581 7.52941 83.3717 7.52941ZM129.998 7.52941C133.891 7.52941 137.046 10.2684 137.046 13.647V25.8824H132.167V13.647C132.167 12.6092 131.194 11.7647 129.998 11.7647C128.802 11.7647 127.83 12.6092 127.83 13.647V25.8824H122.95V13.647C122.95 12.6092 121.977 11.7647 120.782 11.7647C119.586 11.7647 118.613 12.6092 118.613 13.647V25.8824H113.733V13.647C113.733 10.2683 116.889 7.52941 120.782 7.52941C122.544 7.52941 124.154 8.09224 125.39 9.02037C126.625 8.09224 128.235 7.52941 129.998 7.52941ZM152.577 8.00001H157.77L147.706 32H142.514L145.079 25.8824L137.58 8.00001H142.773L147.675 19.691L152.577 8.00001ZM3.94466 4.23531L2.16865 0H12.4839V4.23531H8.82415V11.0588H12.4839V15.2942H8.82415V22.1177H12.4839V26.353H0L1.776 22.1177H3.94466V4.23531ZM22.4514 12.3043C24.8553 13.6698 26.4445 16.0262 26.4445 18.7059C26.4445 22.9292 22.5001 26.3531 17.6343 26.3531H14.6523V22.1177H17.6343C19.8017 22.1177 21.5651 20.5871 21.5651 18.706C21.5651 16.8249 19.8017 15.2942 17.6343 15.2942H14.6523V11.0588H15.4656C17.6331 11.0588 19.3965 9.52819 19.3965 7.64712C19.3965 5.766 17.6331 4.23535 15.4656 4.23535H14.6523V0H15.4656C20.3314 0 24.2758 3.42364 24.2758 7.64708C24.2758 9.40015 23.5946 11.0144 22.4514 12.3043Z" fill="#979797"/>
</svg>
