<svg width="32" height="32" viewBox="0 0 32 32" fill="none" xmlns="http://www.w3.org/2000/svg">
<circle cx="16" cy="16" r="16" fill="#191A1E"/>
<path fill-rule="evenodd" clip-rule="evenodd" d="M24 8L19.5556 12.4444L16 8L12.4444 12.4444L8 8V19.5556H24V8ZM9.77778 24.8889H22.2222C23.2041 24.8889 24 24.093 24 23.1111V21.3333H8V23.1111C8 24.093 8.79594 24.8889 9.77778 24.8889Z" fill="#89DCF7"/>
<path d="M23.2267 13.3333C22.5218 13.3382 21.9516 13.9084 21.9467 14.6133C21.9419 13.9084 21.3717 13.3382 20.6667 13.3333C21.3737 13.3333 21.9467 12.7603 21.9467 12.0533C21.9467 12.7603 22.5198 13.3333 23.2267 13.3333Z" fill="white"/>
<path d="M9.94672 21.7245C9.24181 21.7293 8.67156 22.2996 8.66672 23.0045C8.66187 22.2996 8.09163 21.7293 7.38672 21.7245C8.09364 21.7245 8.66672 21.1514 8.66672 20.4445C8.66672 21.1514 9.23979 21.7245 9.94672 21.7245Z" fill="white"/>
<path d="M20.3912 14.6667C20.1464 14.6684 19.9484 14.8664 19.9468 15.1112C19.9451 14.8664 19.7471 14.6684 19.5023 14.6667C19.7478 14.6667 19.9468 14.4678 19.9468 14.2223C19.9468 14.4678 20.1457 14.6667 20.3912 14.6667Z" fill="white"/>
<path d="M8.00009 22.6667C7.75534 22.6684 7.55733 22.8664 7.55565 23.1112C7.55397 22.8664 7.35597 22.6684 7.11121 22.6667C7.35667 22.6667 7.55565 22.4678 7.55565 22.2223C7.55565 22.4678 7.75463 22.6667 8.00009 22.6667Z" fill="white"/>
<path d="M21.3333 15.5557C21.0886 15.5573 20.8906 15.7553 20.8889 16.0001C20.8872 15.7553 20.6892 15.5573 20.4445 15.5557C20.6899 15.5557 20.8889 15.3567 20.8889 15.1112C20.8889 15.3567 21.0879 15.5557 21.3333 15.5557Z" fill="white"/>
<path d="M9.7778 23.5557C9.53305 23.5573 9.33504 23.7553 9.33336 24.0001C9.33168 23.7553 9.13368 23.5573 8.88892 23.5557C9.13438 23.5557 9.33336 23.3567 9.33336 23.1112C9.33336 23.3567 9.53234 23.5557 9.7778 23.5557Z" fill="white"/>
<path d="M10.56 9.28C9.85509 9.28484 9.28484 9.85509 9.28 10.56C9.27516 9.85509 8.70491 9.28484 8 9.28C8.70692 9.28 9.28 8.70692 9.28 8C9.28 8.70692 9.85308 9.28 10.56 9.28Z" fill="white"/>
<path d="M22.2222 22.56C21.4879 22.5651 20.8939 23.1591 20.8889 23.8934C20.8838 23.1591 20.2898 22.5651 19.5555 22.56C20.2919 22.56 20.8889 21.9631 20.8889 21.2267C20.8889 21.9631 21.4858 22.56 22.2222 22.56Z" fill="white"/>
</svg>
