<svg width="171" height="171" viewBox="0 0 171 171" fill="none" xmlns="http://www.w3.org/2000/svg">
<circle opacity="0.1" cx="85.1892" cy="85.3113" r="85.1892" fill="#CD2A16"/>
<path fill-rule="evenodd" clip-rule="evenodd" d="M90.4705 71.2189C83.9803 61.4714 80.7351 54.229 80.7351 49.4916C80.7351 44.116 81.6261 36.2395 83.4079 25.8622L96.9527 55.2701L99.0259 67.1028L102.534 66.9203C101.133 58.1932 101.862 51.667 104.722 47.3418C108.256 41.9966 113.751 33.8827 121.209 23C125.559 39.6019 127.342 50.4654 126.557 55.5903C126.012 59.1438 123.465 64.3372 118.916 71.1705C119.912 72.8223 120.422 74.7886 120.265 76.8584L119.967 80.7955C119.664 84.8053 116.485 87.9963 112.476 88.3144L98.2648 89.442C93.9523 89.7842 90.1651 86.5982 89.764 82.2908L89.2259 76.5103C89.2151 76.3945 89.2067 76.2785 89.2006 76.1624C89.1066 74.3543 89.5822 72.6483 90.4705 71.2189ZM42.6159 71.6289C39.6151 69.0751 37.235 65.8257 37.0184 61.6913C36.8681 58.824 37.6512 55.8091 38.9559 53.2479L68.6212 52.1313C69.747 54.457 70.2233 57.2026 70.3669 59.9435C70.6005 64.4007 69.1633 67.9918 66.3875 70.9242L42.6159 71.6289ZM70.1384 118.513L65.6746 121.101L70.7152 123.797C71.0821 123.993 71.2204 124.45 71.0243 124.816C70.955 124.946 70.8494 125.052 70.7205 125.123L65.5031 127.966L70.3985 130.747C70.7603 130.952 70.887 131.412 70.6815 131.774C70.5849 131.944 70.4258 132.07 70.2379 132.125L58.5917 135.53L58.8478 139.04L52.626 137.321C52.2102 137.206 51.8124 137.033 51.4441 136.809C50.3511 136.142 49.7283 135.675 49.5757 135.407C48.9281 134.272 49.0195 132.684 49.1008 131.625C49.2422 129.784 50.1146 128.767 51.7182 128.576C50.0417 127.946 49.1692 126.746 49.1008 124.978C49.0324 123.209 49.8268 122.056 51.484 121.519C50.0541 120.201 49.4011 118.85 49.5251 117.466C49.6951 115.566 51.3729 114.164 53.2725 114.334C53.3613 114.342 53.4497 114.353 53.5376 114.368L69.8855 117.119C70.2958 117.188 70.5724 117.577 70.5033 117.987C70.4661 118.208 70.3324 118.401 70.1384 118.513ZM96.0952 144.542C95.9538 144.716 95.7422 144.818 95.518 144.82C95.102 144.824 94.7615 144.49 94.7575 144.074L94.598 127.497C94.5971 127.408 94.5997 127.319 94.6057 127.23C94.7349 125.327 96.3821 123.89 98.2849 124.019C99.6713 124.113 100.904 124.969 101.982 126.588C102.772 125.035 104.035 124.431 105.771 124.775C107.507 125.119 108.555 126.168 108.915 127.923C109.355 126.369 110.496 125.666 112.337 125.815C113.395 125.9 114.978 126.058 115.998 126.876C116.215 127.049 117.285 128.039 119.209 129.844C120.379 130.943 120.9 132.569 120.584 134.143L119.016 141.979H112.571L109.564 147.032C109.477 147.179 109.342 147.292 109.182 147.352C108.792 147.498 108.358 147.301 108.212 146.912L106.157 141.443L102.532 146.151C102.442 146.267 102.321 146.355 102.182 146.403C101.789 146.54 101.36 146.331 101.223 145.938L99.3497 140.538L96.0952 144.542ZM125.743 87.3152L131.94 85.601C132.408 85.4716 132.892 85.7459 133.021 86.2136C133.071 86.3945 133.062 86.5867 132.995 86.762L130.517 93.2394C130.318 93.7575 129.738 94.0168 129.22 93.8186C129.048 93.7529 128.898 93.6414 128.785 93.4963L125.217 88.899C124.877 88.4608 124.957 87.8298 125.395 87.4898C125.499 87.4094 125.617 87.3502 125.743 87.3152Z" fill="#C6C6C6"/>
<path fill-rule="evenodd" clip-rule="evenodd" d="M125.106 87.8146C124.955 88.1462 124.991 88.5484 125.232 88.8539L128.881 93.4702C128.993 93.612 129.141 93.7209 129.31 93.7855C129.561 93.8817 129.827 93.8701 130.057 93.7735C131.18 97.3584 131.006 101.443 131.006 103.364C131.006 105.864 127.426 119.003 120.264 142.781C116.374 139.984 111.389 137.74 105.31 136.048C99.2301 134.356 91.609 133.093 82.446 132.258C78.1485 124.824 74.2641 120.244 70.7929 118.519C67.3461 116.807 61.3775 115.526 52.887 114.677C52.3518 110.602 50.9709 106.831 48.7444 103.364C46.5179 99.896 43.3662 96.6079 39.2894 93.4994C87.8814 89.0672 115.38 87.0221 121.785 87.3639C122.884 87.4226 124.124 87.4394 124.971 87.7617C125.016 87.779 125.061 87.7966 125.106 87.8146ZM121.564 24.2817C125.67 40.1586 127.341 50.5926 126.576 55.5837C126.05 59.0161 123.656 63.9785 119.394 70.4709L118.561 71.2503L118.561 68.0032L115.598 70.2735L114.708 66.5317L112.071 68.0032C110.749 57.3319 110.749 50.1368 112.071 46.4179C113.042 43.6886 116.455 39.6183 119.455 32.6851C120.14 31.103 120.843 28.3019 121.564 24.2817ZM90.3239 71.0606C83.9128 61.4032 80.7073 54.2204 80.7073 49.5119C80.7073 44.442 81.4997 37.1476 83.0847 27.6287L83.1269 27.4991C82.8885 35.6664 83.732 43.4515 85.6575 50.8546C87.583 58.2576 90.2812 64.0897 93.7522 68.3509L92.1299 67.9473V69.9981L90.3239 69.4237V71.0606ZM59.5064 75.8605C60.7399 76.8359 61.7701 78.1069 61.8277 79.7543C61.8546 80.5258 61.8594 81.835 61.8421 83.6817C61.8408 83.8203 61.7936 83.9547 61.7079 84.0637C61.4937 84.3363 61.099 84.3835 60.8265 84.1693L58.0238 81.9662L57.6824 83.6286C57.5237 84.4015 56.8434 84.9563 56.0543 84.9563C55.2339 84.9563 54.4944 84.4618 54.181 83.7037L53.5325 82.1348C52.0467 84.5834 51.0499 85.6545 50.542 85.348C49.7801 84.8883 49.8911 81.6024 49.8412 80.173C49.793 78.7906 50.1925 77.6489 50.9627 76.6982C48.8005 76.0668 46.9439 74.8198 44.9895 73.4704C44.1669 72.9024 43.3538 72.2594 42.5881 71.6033C42.5823 71.5983 42.5764 71.5933 42.5706 71.5882L66.341 70.8836C66.343 70.8815 66.3449 70.8794 66.3469 70.8773C66.3232 70.9326 66.2886 70.9926 66.2233 71.0684C65.8312 71.5237 65.4306 71.9776 64.8971 72.4271C63.3728 73.7111 61.5205 74.9692 59.5064 75.8605ZM49.3332 45.155C49.17 45.047 49.0064 44.9356 48.8412 44.8225C47.1214 43.6451 45.5602 42.0378 45.4452 39.8432C45.3946 38.8778 45.3609 37.2039 45.3441 34.8216C45.3433 34.698 45.3789 34.5769 45.4466 34.4734C45.6365 34.1833 46.0255 34.1021 46.3156 34.2919L50.0654 36.7461L52.2309 33.7374C52.2661 33.6886 52.308 33.6451 52.3554 33.6083C52.6293 33.3956 53.0236 33.4452 53.2362 33.7191L55.5126 36.6507L58.1152 33.7156C58.1894 33.6319 58.2894 33.5754 58.3994 33.555C58.6721 33.5045 58.9341 33.6845 58.9847 33.9572C59.4341 36.3817 59.6851 38.094 59.7375 39.0942C59.8537 41.3112 58.9895 43.0246 57.373 44.3753C57.2022 44.518 57.0218 44.66 56.8331 44.7987C60.6317 45.2966 64.2587 46.8014 66.6698 49.2947C67.4835 50.1361 68.1087 51.0998 68.5901 52.1488L38.8698 53.369C39.3275 52.4572 39.8605 51.6008 40.4564 50.8228C42.6427 47.9681 45.7128 46.0343 49.3332 45.155Z" fill="#CD2A16"/>
<path fill-rule="evenodd" clip-rule="evenodd" d="M89.8906 82.8759C90.3634 85.5954 92.2023 87.7915 94.6245 88.8089C92.2563 88.9856 89.7428 89.1786 87.084 89.3877C85.3664 86.9359 84.1477 85.139 83.4279 83.9972C82.4461 82.4397 80.2289 78.5078 76.7761 72.2015C76.6762 72.0191 76.7432 71.7902 76.9256 71.6903C77.066 71.6135 77.2396 71.6337 77.3585 71.7408C83.4479 77.2253 87.5999 80.8757 89.8146 82.6922C89.7925 82.5449 89.7744 82.3962 89.7605 82.2461L89.2258 76.5039C89.2151 76.3881 89.2067 76.2721 89.2006 76.156C89.1968 76.0836 89.194 76.0114 89.192 75.9394C89.8258 75.8559 90.4913 76.0259 91.0231 76.4651L92.171 77.4132C93.1671 78.236 93.3271 79.7023 92.5319 80.7205L91.5574 81.9683C91.1351 82.509 90.5253 82.8188 89.8906 82.8759ZM126.642 87.0413L125.793 87.2723C125.666 87.3068 125.547 87.3659 125.443 87.4462C125.255 87.5919 125.132 87.7915 125.08 88.0066C124.221 87.673 123.239 87.461 122.117 87.4012C120.758 87.3286 118.446 87.3625 115.179 87.5028C117.816 86.3065 119.698 83.7529 119.942 80.7272L120.034 79.5906C122.855 76.6115 126.679 72.4694 131.507 67.1642C131.787 66.8566 132.264 66.8341 132.571 67.1141C132.786 67.3093 132.869 67.6103 132.786 67.888L127.701 84.812C127.459 85.6185 127.099 86.3675 126.642 87.0413ZM61.3066 134.738L61.8236 141.904C61.8249 141.921 61.8258 141.937 61.8264 141.954C61.8535 142.718 61.2563 143.359 60.4925 143.386C59.6919 143.415 59.0124 142.805 58.9547 142.006L58.7056 138.553L58.5917 135.53L61.3066 134.738ZM57.6402 83.9201L58.2085 91.7968C57.266 91.8788 56.3132 91.9619 55.3503 92.0462L54.8016 84.4415C55.1607 84.7464 55.6228 84.9236 56.114 84.9236C56.7876 84.9236 57.382 84.5193 57.6402 83.9201ZM105.004 79.1233C104.291 78.4834 104.173 77.411 104.728 76.6308L106.538 74.0857C106.598 74.0022 106.664 73.9237 106.736 73.8509C107.469 73.1127 108.661 73.1081 109.399 73.8407L111.541 75.9659C112.261 76.6803 112.286 77.8363 111.597 78.581L109.592 80.7501C108.893 81.5061 107.716 81.5606 106.951 80.8725L105.004 79.1233ZM96.2449 78.9367C96.2084 78.8773 96.1891 78.809 96.1891 78.7394C96.1891 78.5314 96.3577 78.3627 96.5658 78.3627H98.1922C98.3824 78.3627 98.5427 78.5044 98.566 78.6931L98.9759 82.0045C98.994 82.1509 98.925 82.2944 98.7994 82.3716C98.6222 82.4806 98.3903 82.4253 98.2813 82.2481L96.2449 78.9367ZM101.606 78.5296L100.261 82.244C100.19 82.4395 99.9743 82.5407 99.7787 82.4698C99.6454 82.4215 99.5504 82.3024 99.5332 82.1616L99.1088 78.7065C99.0839 78.5034 99.2256 78.3175 99.428 78.2879L101.198 78.0287C101.403 77.9985 101.595 78.1409 101.625 78.3467C101.634 78.4083 101.628 78.4711 101.606 78.5296ZM84.0174 131.62C84.0974 131.843 84.1248 132.093 84.1248 132.341C84.1248 132.866 83.8991 133.259 83.5001 133.558C83.2131 133.772 82.8215 133.973 82.43 133.973C82.0329 133.973 81.7655 133.778 81.4766 133.558C81.0845 133.259 80.7351 132.86 80.7351 132.341C80.7351 131.945 80.9152 131.531 81.1588 131.248C81.4697 130.887 81.9052 130.709 82.43 130.709C82.6412 130.709 82.8566 130.74 83.0587 130.8C96.3323 118.076 106.685 108.422 114.119 101.835C120.456 96.2199 124.636 92.8522 126.851 91.6276C117.24 92.8016 93.0805 100.517 54.4937 114.753C54.4958 114.799 54.4967 114.845 54.4967 114.891C54.4967 115.415 54.2711 115.809 53.872 116.107C53.5851 116.322 53.1934 116.523 52.8019 116.523C52.4049 116.523 52.1374 116.327 51.8486 116.107C51.4564 115.808 51.1071 115.41 51.1071 114.891C51.1071 114.495 51.2871 114.08 51.5308 113.797C51.8417 113.437 52.2771 113.259 52.8019 113.259C53.2186 113.259 53.6513 113.379 53.9665 113.609C92.381 99.4353 116.507 91.7103 126.463 90.4121L128.056 92.4268C126.494 93.0029 122.026 96.5061 114.952 102.774C107.549 109.334 97.237 118.95 84.0174 131.62ZM95.7406 82.4938L99.2129 83.3425L103.087 81.9488C103.413 81.8314 103.772 82.0007 103.89 82.3269C104.007 82.6531 103.838 83.0127 103.512 83.1301L99.46 84.5878C99.344 84.6296 99.2182 84.6362 99.0984 84.6069L95.4425 83.7133C95.1058 83.631 94.8995 83.2913 94.9818 82.9545C95.0641 82.6177 95.4039 82.4115 95.7406 82.4938ZM57.8376 122.006C57.4912 122.02 57.1991 121.751 57.1852 121.404C57.1713 121.058 57.4409 120.766 57.7873 120.752L65.8104 120.43C66.1568 120.417 66.4489 120.686 66.4628 121.033C66.4766 121.379 66.2071 121.671 65.8607 121.685L57.8376 122.006ZM57.6091 128.79C57.2624 128.793 56.9788 128.514 56.9756 128.168C56.9724 127.821 57.2508 127.537 57.5975 127.534L65.8946 127.457C66.2413 127.454 66.5249 127.733 66.5281 128.079C66.5313 128.426 66.2529 128.71 65.9062 128.713L57.6091 128.79ZM101.086 134.993L99.9164 140.689C99.8485 141.029 99.5178 141.25 99.1779 141.182C98.8379 141.114 98.6174 140.783 98.6853 140.444L99.8671 134.731L101.086 134.993ZM107.92 136.819L106.895 141.918C106.827 142.258 106.497 142.479 106.157 142.411C105.817 142.343 105.596 142.012 105.664 141.672L106.794 136.465L107.92 136.819ZM119.716 144.896C119.319 144.896 119.052 144.7 118.763 144.48C118.371 144.181 118.021 143.782 118.021 143.263C118.021 142.867 118.201 142.453 118.445 142.17C118.756 141.809 119.191 141.631 119.716 141.631C120.235 141.631 120.778 141.817 121.089 142.17C121.339 142.455 121.411 142.861 121.411 143.263C121.411 143.788 121.185 144.181 120.786 144.48C120.499 144.694 120.108 144.896 119.716 144.896ZM39.2433 95.1806C38.8462 95.1806 38.5788 94.9851 38.2899 94.7649C37.8978 94.466 37.5485 94.0676 37.5485 93.5486C37.5485 93.1526 37.7285 92.7379 37.9722 92.4552C38.283 92.0946 38.7185 91.9165 39.2433 91.9165C39.7618 91.9165 40.3051 92.102 40.616 92.4552C40.8664 92.7397 40.9381 93.1465 40.9381 93.5486C40.9381 94.0729 40.7125 94.4663 40.3134 94.7649C40.0265 94.9796 39.6348 95.1806 39.2433 95.1806Z" fill="#1B1B1B"/>
<path fill-rule="evenodd" clip-rule="evenodd" d="M89.8522 82.9214C90.5006 82.8735 91.1265 82.5622 91.5573 82.0107L92.5318 80.7629C93.327 79.7446 93.167 78.2783 92.1709 77.4556L91.023 76.5075C90.4916 76.0685 89.8266 75.8985 89.1932 75.9816C89.1643 75.0745 89.2785 74.1947 89.5159 73.3645C89.962 73.415 90.3989 73.5918 90.7699 73.9001L94.7271 77.188C95.7166 78.0101 95.8759 79.4688 95.0872 80.4851L92.0221 84.4345C91.6746 84.8824 91.1986 85.1728 90.6861 85.2936C90.2908 84.5678 90.0049 83.7704 89.8522 82.9214ZM98.7781 84.571L97.9105 87.7623L95.9917 83.8899L98.7781 84.571ZM102.811 83.4244L101.802 87.1345L100.378 84.2997L102.811 83.4244ZM102.953 79.8573C102.053 79.0471 101.903 77.6907 102.604 76.7031L106.079 71.8097C106.155 71.7028 106.239 71.6024 106.332 71.5094C107.26 70.575 108.771 70.5702 109.705 71.4988L113.88 75.6478C114.79 76.5523 114.822 78.0148 113.952 78.9577L110.105 83.1246C109.219 84.084 107.727 84.1531 106.757 83.2798L102.953 79.8573ZM105.003 79.1656L106.95 80.9149C107.716 81.603 108.893 81.5484 109.592 80.7924L111.597 78.6233C112.286 77.8787 112.261 76.7226 111.541 76.0083L109.399 73.883C108.661 73.1504 107.469 73.155 106.736 73.8932C106.664 73.966 106.598 74.0445 106.538 74.1281L104.728 76.6731C104.173 77.4533 104.291 78.5257 105.003 79.1656ZM125.344 40.4858C125.41 40.8384 125.474 41.1859 125.536 41.5284L121.335 43.8733C121.093 44.0085 120.787 43.9218 120.652 43.6796C120.517 43.4374 120.603 43.1315 120.846 42.9964L125.344 40.4858ZM126.051 44.589C126.105 44.9335 126.155 45.2718 126.202 45.604L121.656 48.1418C121.413 48.277 121.108 48.1902 120.972 47.948C120.837 47.7059 120.924 47.4 121.166 47.2648L125.849 44.651C125.914 44.615 125.982 44.5948 126.051 44.589ZM126.618 49.0508C126.654 49.4278 126.685 49.794 126.711 50.1495L122.66 52.4102C122.418 52.5454 122.112 52.4587 121.977 52.2165C121.842 51.9743 121.928 51.6684 122.17 51.5333L126.618 49.0508ZM57.5742 50.2423L62.4696 50.1568C64.4107 50.1229 66.0118 51.669 66.0456 53.6101C66.0795 55.5512 64.5334 57.1523 62.5923 57.1861L57.6969 57.2716C55.7558 57.3055 54.1548 55.7594 54.1209 53.8183C54.087 51.8772 55.6331 50.2762 57.5742 50.2423Z" fill="white"/>
</svg>
