<svg width="171" height="171" viewBox="0 0 171 171" fill="none" xmlns="http://www.w3.org/2000/svg">
<circle opacity="0.1" cx="85.1892" cy="85.1892" r="85.1892" fill="#CD2A16"/>
<path fill-rule="evenodd" clip-rule="evenodd" d="M83.4989 122.297L100.154 122.395L100.439 131.634L81.4205 129.924L83.4989 122.297ZM107.276 122.423L123.137 122.5L124.218 130.625C120.122 131.76 117.066 132.328 115.053 132.328C113.039 132.328 110.447 131.972 107.276 131.258V122.423ZM46.5454 98.3847L72.1487 97.9935L68.9904 122.287L52.9457 122.423L46.5454 98.3847ZM46.6529 51.6225C43.2919 50.9692 39.622 48.9182 39.2109 45.575C39.1059 44.721 39.0369 41.8671 39.2109 40.9718C39.5138 39.4138 41.444 37.6456 42.426 36.6834C44.2172 34.9282 45.6861 34.7096 48.4115 35.2394C52.631 36.0596 56.724 38.597 55.8688 42.9969C55.443 45.1873 55.7691 47.7827 54.1171 48.9561C52.4507 50.1398 48.7718 52.0344 46.6529 51.6225Z" fill="#CD2A16"/>
<path fill-rule="evenodd" clip-rule="evenodd" d="M114.43 60.8325L97.3742 86.5474L97.6247 82.7002L80.658 81.3856C80.2357 81.3529 79.8151 81.3 79.3977 81.2271C72.1593 79.9634 67.3158 73.0711 68.5795 65.8326L71.6519 48.2339C72.0364 46.8823 72.3778 45.3522 72.6761 43.6436C72.9744 41.935 73.3488 39.365 73.7993 35.9336L74.134 34.0165C75.2459 27.6473 80.7759 22.9995 87.2414 23L104.624 23.0014C104.661 23.0014 104.698 23.0016 104.735 23.002C110.319 23.0635 114.796 27.6401 114.735 33.2241L114.688 37.454L131.183 25.4992C126.845 44.3576 121.708 55.8686 115.774 60.0322C115.309 60.3586 114.861 60.6254 114.43 60.8325ZM105.124 98.5669C104.997 99.596 104.466 100.53 103.532 101.369C102.102 102.654 100.389 102.96 98.3935 102.285C99.2898 104.193 99.0097 105.785 97.5529 107.06C96.1943 108.25 94.5849 108.394 92.7247 107.492C93.2568 109.605 92.8772 111.277 91.5859 112.509C90.2171 113.815 88.4124 113.797 86.1718 112.456L80.4724 108.303L77.8868 111.125L74.9731 104.144C74.8674 103.891 74.783 103.629 74.7209 103.362C74.3517 101.772 74.219 100.8 74.323 100.444C74.7338 99.038 76.3893 97.6401 77.3066 96.881C78.9017 95.5609 80.4399 95.4156 81.9213 96.4448C81.1239 94.6023 81.4115 92.965 82.7843 91.5328C84.157 90.1006 85.7053 89.8433 87.4291 90.761C87.0974 88.8532 87.5378 87.4104 88.7502 86.4327C90.6436 84.9058 93.3862 85.0629 95.0928 86.7961L104.305 96.1524C104.933 96.7898 105.235 97.6792 105.124 98.5669ZM49.4785 122.753C47.2333 122.839 45.0366 122.085 43.3175 120.638L42.0497 119.571C41.1458 118.811 40.555 117.743 40.3907 116.573L38.9909 106.608C38.4531 102.78 39.8851 98.9387 42.7978 96.3964L50.7531 89.4531C50.9189 89.3084 51.1049 89.1887 51.3052 89.0978C52.4426 88.5813 53.7833 89.0846 54.2998 90.222C54.7255 91.1596 54.8946 92.1695 54.8068 93.2518C54.7185 94.3417 53.6827 95.5201 52.8891 96.6877C52.4242 97.3716 51.718 98.4268 50.7705 99.8533L58.7732 100.826C60.995 101.465 62.0964 102.618 62.0773 104.286C62.0593 105.86 61.2055 107.11 59.516 108.037C61.2235 108.695 62.1023 109.819 62.1523 111.411C62.2059 113.117 61.3443 114.255 59.5674 114.824C61.2091 115.706 62.0457 116.994 62.0773 118.689C62.094 119.582 61.912 120.343 61.5316 120.972C61.022 121.815 60.1231 122.344 59.1393 122.382L49.4785 122.753Z" fill="#C6C6C6"/>
<path fill-rule="evenodd" clip-rule="evenodd" d="M80.7827 48.4491C80.8912 49.0857 80.993 49.7509 81.0882 50.4448C81.1784 51.1028 80.8681 51.5481 80.1572 51.7808C80.0719 52.6525 79.808 53.0027 79.3656 52.8315C75.9186 51.4981 73.3473 49.9657 71.6518 48.2345L71.6615 48.1792L73.8021 35.9175C75.7649 37.2245 77.2095 38.6031 78.136 40.0533C79.261 41.8141 80.1476 44.6019 80.7959 48.4165L80.7827 48.4491ZM112.505 38.2625C110.787 43.5806 108.66 47.2545 106.124 49.2841C103.587 51.3137 98.7658 53.051 91.6586 54.496C93.0462 48.0431 95.1506 43.6879 97.9716 41.4303C100.793 39.1728 105.637 38.1168 112.505 38.2625ZM84.7516 63.3655L81.8888 72.5471C81.826 72.7483 81.6505 72.8935 81.4412 72.9175C81.1491 72.9508 80.8854 72.7412 80.852 72.4492L79.782 63.0886L79.8452 63.0316C81.5659 63.2166 83.2013 63.328 84.7516 63.3655ZM88.0113 63.3296C89.7265 63.245 91.3186 63.0533 92.7879 62.7543L89.7218 72.5881C89.6595 72.7879 89.4857 72.9327 89.2779 72.958C88.9861 72.9934 88.7208 72.7856 88.6854 72.4938L87.5831 63.4138L88.0113 63.3296ZM47.6104 48.6614C44.9005 48.1347 42.6651 46.726 42.7822 43.7492C42.796 43.3982 42.7127 42.0184 42.7822 41.6608C43.0803 40.1271 43.4879 39.0017 44.528 38.0873C45.787 36.9805 47.8017 36.5366 49.4606 36.8591C52.4901 37.4479 54.4117 40.6735 53.7527 44.0636C53.4308 45.7199 52.6352 46.8667 51.5985 47.67C50.5134 48.5107 49.1597 48.9626 47.6104 48.6614Z" fill="white"/>
<path fill-rule="evenodd" clip-rule="evenodd" d="M52.5672 88.9585C52.641 89.0784 52.6775 89.2225 52.6624 89.3733C52.2877 93.1065 50.3872 94.7847 47.198 94.0679C46.8395 93.9873 46.6142 93.6314 46.6948 93.273C46.7754 92.9145 47.1313 92.6892 47.4897 92.7698C49.8343 93.2967 51.0382 92.2337 51.3385 89.2405C51.3442 89.1845 51.3566 89.1308 51.3749 89.0802C51.3354 89.0955 51.2961 89.1121 51.257 89.1298C51.0567 89.2208 50.8707 89.3405 50.7049 89.4852L49.4084 90.6167L48.9404 85.4979H57.9003L48.4923 51.5131C48.9077 51.426 49.339 51.3017 49.7727 51.1517L59.2808 85.4979H73.4379C67.4967 81.5935 62.7804 74.2598 59.289 63.4968L68.7236 64.9344L68.5667 65.8328C67.303 73.0713 72.1465 79.9636 79.385 81.2273C79.8023 81.3002 80.2229 81.3531 80.6453 81.3858L97.612 82.7005L97.3615 86.5477L114.417 60.8328C114.496 60.7952 114.574 60.7557 114.653 60.7142L128.43 122.559C126.644 122.555 124.855 122.509 123.07 122.498C118.041 122.47 113.02 122.461 107.996 122.426C105.47 122.409 102.945 122.416 100.42 122.399C100.332 122.398 100.243 122.398 100.154 122.397L100.154 122.395L98.547 122.387C88.715 122.322 78.8822 122.273 69.0303 122.265L78.17 110.749L80.4218 108.291L86.1213 112.444C88.3619 113.785 90.1666 113.803 91.5353 112.497C92.568 111.512 93.0176 110.245 92.8841 108.697C92.7982 108.664 92.7177 108.612 92.6489 108.542L86.1264 101.912C85.8687 101.65 85.8722 101.229 86.1341 100.971C86.396 100.713 86.8172 100.717 87.0748 100.979L93.5974 107.609C93.6793 107.692 93.7348 107.792 93.7641 107.897C95.1704 108.282 96.4165 107.999 97.5024 107.048C98.6549 106.039 99.071 104.832 98.7505 103.427C98.6225 103.411 98.4978 103.357 98.3938 103.265L91.6908 97.3407C91.4155 97.0974 91.3896 96.677 91.6329 96.4017C91.8762 96.1264 92.2966 96.1005 92.5719 96.3439L99.2749 102.269C99.3653 102.348 99.4287 102.447 99.4647 102.554C100.988 102.793 102.327 102.394 103.481 101.357C104.415 100.518 104.946 99.5839 105.074 98.5548C105.184 97.6671 104.882 96.7777 104.255 96.1403L95.0423 86.784C93.3357 85.0508 90.5931 84.8937 88.6996 86.4206C87.7492 87.1871 87.2732 88.2393 87.2716 89.5773C81.7555 88.9646 77.5815 87.8699 74.7497 86.2931C74.467 86.1357 74.187 85.9711 73.9096 85.799V85.7991C73.1293 91.2078 72.4871 95.6628 71.9831 99.164L72.139 97.9653L51.794 98.2761C52.2235 97.6335 52.5724 97.1147 52.8408 96.7198C53.6345 95.5521 54.6703 94.3737 54.7586 93.2838C54.8463 92.2016 54.6773 91.1917 54.2516 90.2541C53.9286 89.5429 53.2834 89.0796 52.5672 88.9585ZM69.1223 121.169C69.0793 121.537 69.0354 121.913 68.9906 122.297H64.4551L68.9807 122.259L69.1223 121.169ZM124.187 130.603L124.218 130.625V136.138C124.218 136.412 124.05 136.658 123.795 136.758L108.151 142.855C107.062 143.28 105.835 142.741 105.41 141.652C105.227 141.181 105.218 140.659 105.385 140.182L106.85 136.005C106.889 135.894 106.913 135.778 106.921 135.661L107.277 130.762L107.277 131.259C110.44 131.953 113.029 132.3 115.043 132.3C117.053 132.3 120.101 131.734 124.187 130.603ZM100.429 131.603L100.439 131.634L100.269 138.366C100.26 138.728 99.9626 139.016 99.6004 139.015L94.4017 138.988C94.3858 138.988 94.37 138.989 94.3541 138.99L90.0458 139.277C90.0103 139.279 89.9748 139.28 89.9392 139.28L70.6642 139.018C70.7307 137.726 73.6275 135.698 79.3547 132.935C80.3911 132.435 80.9899 131.261 81.4615 129.901L100.43 131.606L100.429 131.603ZM43.8859 35.5215L42.4636 31.7322C42.3344 31.3882 42.5086 31.0047 42.8526 30.8756C43.1965 30.7465 43.58 30.9207 43.7092 31.2646L45.1339 35.0602C44.6982 35.1496 44.2888 35.3001 43.8859 35.5215ZM49.6296 35.5006L50.4478 33.0311C50.5633 32.6824 50.9397 32.4933 51.2884 32.6089C51.6372 32.7244 51.8263 33.1008 51.7107 33.4496L50.8936 35.9158C50.4822 35.7587 50.0591 35.6204 49.6296 35.5006ZM39.8936 39.4371L38.3704 38.6835C38.0411 38.5206 37.9062 38.1215 38.0691 37.7922C38.232 37.4629 38.6311 37.3281 38.9604 37.491L40.734 38.3684C40.4316 38.7105 40.141 39.0708 39.8936 39.4371ZM45.8945 51.4266L45.4625 53.2086C45.3759 53.5657 45.0163 53.7849 44.6592 53.6984C44.3022 53.6118 44.0829 53.2522 44.1695 52.8952L44.6201 51.0362C45.0409 51.1882 45.468 51.3184 45.8945 51.4266ZM41.7302 49.5159L40.5937 50.4957C40.3154 50.7356 39.8954 50.7044 39.6555 50.4262C39.4156 50.1479 39.4467 49.7279 39.725 49.488L40.7237 48.627C41.0269 48.9469 41.3652 49.2433 41.7302 49.5159ZM77.4801 56.5526C77.0892 56.6936 76.5746 56.6436 75.7906 56.3373C72.2221 54.9432 70.8457 52.264 71.6614 48.2998L71.6934 48.1528C73.3352 49.8281 75.7973 51.3172 79.0796 52.6199L86.9128 33.3608C87.0512 33.0205 87.4393 32.8568 87.7796 32.9952C88.1199 33.1337 88.2836 33.5218 88.1452 33.8621L75.3806 65.2458L84.3671 57.1527C84.4893 57.0427 84.6479 56.9818 84.8123 56.9818H91.7334C91.3251 56.2374 91.3317 55.2619 91.7532 54.0553L91.783 54.0354C91.7511 54.1784 91.7195 54.3224 91.6883 54.4674C98.7955 53.0225 103.617 51.2852 106.153 49.2556C106.287 49.1489 106.419 49.0377 106.55 48.922C103.707 55.4943 100.502 58.7805 96.9357 58.7805C95.5018 58.7805 94.3481 58.6244 93.4746 58.3123H85.0677L81.1832 61.8106C85.7038 62.2135 89.5668 62.0695 92.7694 61.383C93.1287 61.306 93.4823 61.5348 93.5593 61.894C93.6363 62.2532 93.4075 62.6069 93.0483 62.6839C89.4148 63.4627 85.0148 63.5714 79.845 63.0157L74.118 68.1734C73.5931 68.6461 72.7904 68.0828 73.0566 67.4284L77.4801 56.5526ZM59.9832 115.45H50.803C50.4356 115.45 50.1378 115.153 50.1378 114.785C50.1378 114.418 50.4356 114.12 50.803 114.12H59.9832C60.3506 114.12 60.6484 114.418 60.6484 114.785C60.6484 115.153 60.3506 115.45 59.9832 115.45ZM59.9832 108.665H50.803C50.4356 108.665 50.1378 108.367 50.1378 108C50.1378 107.633 50.4356 107.335 50.803 107.335H59.9832C60.3506 107.335 60.6484 107.633 60.6484 108C60.6484 108.367 60.3506 108.665 59.9832 108.665ZM96.2383 48.5283C95.9197 48.5283 95.5725 48.3949 95.1968 48.128C94.5862 47.6942 94.2948 46.9369 94.4571 46.2057C94.5459 45.8058 94.6723 45.3854 94.8363 44.9445C94.91 44.7464 95.1439 44.4453 95.538 44.0411C95.7733 43.9282 96.0067 43.8717 96.2383 43.8717C97.4507 43.8717 98.4335 44.9141 98.4335 46.2C98.4335 47.4859 97.4507 48.5283 96.2383 48.5283ZM74.1526 46.1335C74.0402 46.1335 73.9281 46.1226 73.8178 46.101C72.8735 45.9161 72.2578 45.0007 72.4427 44.0563L72.7163 42.6593C72.8508 41.9724 73.4527 41.4769 74.1526 41.4769C75.365 41.4769 76.3479 42.5193 76.3479 43.8052C76.3479 45.0911 75.365 46.1335 74.1526 46.1335ZM50.1025 46.2005C48.3714 45.864 47.2749 44.0125 47.6535 42.065C48.032 40.1175 49.3481 38.4769 51.0792 38.8134C52.8103 39.1498 53.5737 41.4552 53.1951 43.4027C52.8166 45.3502 51.8336 46.537 50.1025 46.2005Z" fill="#1B1B1B"/>
</svg>
