<svg width="171" height="171" viewBox="0 0 171 171" fill="none" xmlns="http://www.w3.org/2000/svg">
<circle opacity="0.1" cx="85.1892" cy="85.3113" r="85.1892" fill="#CD2A16"/>
<path fill-rule="evenodd" clip-rule="evenodd" d="M59.1033 115.2C59.2609 115.012 59.4275 114.828 59.6043 114.648C62.8219 111.373 65.7492 107.122 70.0495 105.894C70.2396 104.919 70.5909 103.995 71.1281 103.162C74.0939 98.5594 78.4419 86.7546 89.7076 92.5893L107.934 63.3396C107.784 62.5979 107.875 61.8057 108.237 61.0861L119.828 38.0082C120.693 36.2859 122.791 35.5909 124.513 36.456C124.664 36.532 124.81 36.6188 124.948 36.7159L137.063 45.1986C138.641 46.304 139.025 48.48 137.92 50.0588C137.834 50.1809 137.741 50.2973 137.641 50.4074L120.443 69.2845C119.98 69.7927 119.406 70.1467 118.788 70.3389L97.5162 98.2976C104.69 105.005 101.966 109.145 97.707 115.228C97.4847 115.545 97.2534 115.852 97.0137 116.149L98.5243 127.643L89.8261 128.995C88.4498 131.995 86.3114 134.844 84.3849 137.595C78.656 145.777 71.5513 143.69 63.1632 137.817C61.5414 136.681 59.9744 135.301 58.6387 133.778L42.2164 133.817L47.2574 118.155L58.8641 112.529L59.1033 115.2Z" fill="#CD2A16"/>
<path fill-rule="evenodd" clip-rule="evenodd" d="M41.2278 76.1753H41.1587L35.1945 47.0098C33.7644 40.0162 38.2744 33.1875 45.268 31.7573C46.1143 31.5843 46.9758 31.4965 47.8396 31.4953L72.3409 31.4614C77.1949 31.4547 81.1353 35.3843 81.142 40.2383C81.1422 40.3423 81.1405 40.4462 81.1369 40.5501L79.9214 76.1753H74.1278V73.4592H70.2871V76.1753H64.3392V73.4592H60.2816V76.1753L55.8194 76.2256V73.4592H51.858V76.1753H51.8091V78.8703L55.7913 78.9207V81.6408H60.3826V78.9207H64.316V81.6408H70.4612V78.9207H74.1376V81.6408H77.7391V78.9207H82.2124C82.358 85.6004 77.0611 91.1334 70.3814 91.279C69.5295 91.2976 68.678 91.2261 67.841 91.0657L61.6769 89.8845L59.6042 100.679H44.9536L41.2278 76.1753ZM108.708 65.7754C109.522 65.584 110.38 65.761 111.052 66.2594L121.627 74.1008C123.552 75.5278 124.078 78.1828 122.844 80.236C122.836 80.2484 122.829 80.2608 122.821 80.2731C122.025 81.6043 120.663 82.2386 118.736 82.1758C119.88 83.7487 119.841 85.3112 118.619 86.8635C117.396 88.4157 115.822 88.9263 113.894 88.3952C115.114 89.7135 115.184 91.2507 114.104 93.0067C113.482 94.0165 112.333 95.8429 111.003 96.4428C110.679 96.5893 109.757 96.5981 108.239 96.4694C107.858 96.4371 107.483 96.3593 107.121 96.2377L100.566 94.0365L103.08 90.8633L97.5703 86.467C97.5323 86.4367 97.4979 86.4023 97.4677 86.3643C95.8759 84.3644 95.6238 82.6064 96.7114 81.0902C97.7475 79.6459 99.344 79.0398 101.501 79.2719C100.354 77.5623 100.273 75.9552 101.258 74.4504C102.314 72.837 103.845 72.3402 105.85 72.9598C104.909 71.0854 104.973 69.3539 106.042 67.7652C106.768 66.6856 107.657 66.0223 108.708 65.7754ZM63.1888 121.138L60.7302 118.715C59.0245 117.035 58.8729 114.334 60.3799 112.473L67.7789 103.336C69.7991 100.841 72.7993 99.3415 76.0072 99.223L87.2256 98.8089C87.4392 98.801 87.6528 98.8243 87.8597 98.8781C89.0342 99.1836 89.7386 100.383 89.4332 101.558C89.1814 102.526 88.6916 103.392 87.9637 104.155C87.2307 104.924 85.7283 105.18 84.4152 105.577C83.6462 105.809 82.4679 106.174 80.8804 106.671L86.3274 112.299C87.6145 114.139 87.7409 115.683 86.7068 116.931C85.7311 118.108 84.3221 118.53 82.4797 118.197C83.367 119.737 83.3429 121.123 82.4076 122.355C81.4047 123.676 80.0586 124.009 78.3692 123.352C79.0698 125.021 78.9138 126.505 77.9012 127.804C77.3679 128.489 76.7653 128.952 76.0935 129.194C75.1937 129.519 74.1911 129.369 73.4253 128.796L63.1888 121.138Z" fill="#C6C6C6"/>
<path fill-rule="evenodd" clip-rule="evenodd" d="M88.6188 98.9253L97.2344 86.0718C97.3089 86.1695 97.3869 86.2678 97.4682 86.3666C97.4982 86.403 97.532 86.4361 97.5692 86.4651C97.7749 86.6259 97.9839 86.7904 98.1961 86.9584L89.3006 100.229C89.2041 99.99 89.0661 99.7688 88.893 99.5767C88.8705 99.7007 88.8116 99.8195 88.7162 99.9158C86.1511 102.505 83.6902 102.61 81.7207 100.119C81.4993 99.8393 81.5468 99.4329 81.8268 99.2116C82.1067 98.9902 82.5131 99.0377 82.7345 99.3177C84.1825 101.149 85.7413 101.082 87.798 99.0062C88.0203 98.7818 88.3664 98.7545 88.6188 98.9253ZM67.8096 103.291C67.7842 103.321 67.7591 103.352 67.7341 103.383L60.3562 112.5C59.4416 113.63 59.138 115.071 59.4238 116.405L47.2525 118.082L41.4253 113.636C40.8738 113.215 40.6687 112.479 40.9233 111.834L44.6432 102.402L39.8275 94.2662C39.6457 93.9591 39.7473 93.5627 40.0545 93.3809C40.1409 93.3297 40.2382 93.2994 40.3384 93.2924L53.623 92.361C53.8754 92.3433 54.1149 92.4746 54.2358 92.6968L57.0558 97.8796L58.2379 92.6076C58.304 92.3125 58.566 92.1027 58.8684 92.1027H65.1862C65.2409 92.1027 65.2953 92.1097 65.3483 92.1234C65.6938 92.2129 65.9013 92.5655 65.8118 92.911L64.2197 99.057L64.2799 99.049L67.8096 103.291ZM71.9458 127.768L72.9811 128.542L71.6414 130.437C74.6468 132.962 74.1107 133.996 73.5997 134.726C72.9921 135.594 70.6012 134.002 67.8381 132.067C66.6803 131.257 65.4828 130.196 64.2454 128.886C63.9839 128.609 63.8959 128.21 64.0163 127.849C64.4968 126.407 66.1147 126.587 68.8701 128.388L70.1743 126.442L71.2106 127.218L69.9343 129.122C70.179 129.297 70.4099 129.468 70.6277 129.632L71.9458 127.768ZM84.3345 110.243L99.8539 88.2904C100.143 88.524 100.479 88.7945 100.863 89.1017L85.248 111.19C84.9003 110.824 84.5937 110.509 84.3345 110.243ZM113.887 68.4396L114.824 67.1149C114.837 67.0962 114.851 67.0783 114.866 67.0611L120.302 60.8811C120.295 60.8325 120.292 60.7843 120.292 60.7366C120.292 60.0793 120.957 59.19 121.778 59.19C121.782 59.19 121.786 59.19 121.79 59.1901L129.074 50.9086C128.995 50.7405 128.952 50.5649 128.952 50.3966C128.952 49.7393 129.617 48.85 130.438 48.85C131.259 48.85 131.924 49.7393 131.924 50.3966C131.924 51.0539 131.259 51.8228 130.438 51.8228C130.302 51.8228 130.169 51.8015 130.044 51.763L122.934 59.8462C123.141 60.1261 123.265 60.4529 123.265 60.7366C123.265 61.3939 122.599 62.1628 121.778 62.1628C121.522 62.1628 121.281 62.0878 121.07 61.9647L115.859 67.889L114.926 69.2096L113.887 68.4396ZM82.3802 108.232L84.0966 105.672C84.1862 105.644 84.2714 105.618 84.3521 105.594C84.8903 105.432 85.4734 105.286 86.0201 105.124L83.3033 109.177C82.9584 108.822 82.6411 108.502 82.3802 108.232ZM110.64 66.0727L112.249 63.6712L115.188 57.967C114.908 57.6902 114.734 57.3246 114.734 56.9883C114.734 56.331 115.4 55.4418 116.221 55.4418C116.307 55.4418 116.392 55.4517 116.475 55.4702L121.522 45.6747C121.318 45.4216 121.197 45.12 121.197 44.8388C121.197 44.1815 121.862 43.2923 122.683 43.2923C123.504 43.2923 124.169 44.1815 124.169 44.8388C124.169 45.4961 123.504 46.265 122.683 46.265C122.679 46.265 122.676 46.265 122.672 46.265L117.504 56.2951C117.633 56.5242 117.707 56.7692 117.707 56.9883C117.707 57.5916 117.146 58.2888 116.42 58.3994L113.381 64.2962C113.37 64.3182 113.357 64.3395 113.344 64.36L111.698 66.8159L111.007 66.3041C110.89 66.2171 110.767 66.1399 110.64 66.0727ZM80.6986 52.9649C80.6505 56.1093 80.5883 58.3183 80.5119 59.5921C80.4812 60.103 80.4428 60.9953 80.4058 61.99L80.4869 59.6129C80.0324 59.6129 79.7294 59.6129 79.5778 59.6129C78.8566 59.6129 78.1645 59.1755 77.5015 58.3006C77.2906 58.0223 77.1647 57.6889 77.139 57.3406C76.9205 54.3748 77.6499 52.8919 79.3273 52.8919C79.7142 52.8919 80.1713 52.9162 80.6986 52.9649ZM80.3508 63.5763C80.3506 63.5835 80.3504 63.5907 80.3501 63.598C80.3221 64.4721 80.269 66.059 80.1909 68.3585L74.6694 60.8852C74.3092 60.3977 74.1496 59.7906 74.2235 59.189C74.2649 58.8523 74.375 58.5409 74.538 58.2671C74.6762 58.5374 74.867 58.7862 75.1091 58.9976L80.3508 63.5763ZM49.3682 58.679C49.401 59.2671 49.6442 59.8454 50.0969 60.2912C50.1309 60.3247 50.1658 60.3571 50.2017 60.3886L56.9008 66.2589C57.9178 67.1501 59.464 67.0514 60.3595 66.0381L65.4397 60.289L61.5179 67.8444C61.3319 68.2028 61.0959 68.5329 60.8171 68.825C59.1903 70.5287 56.4904 70.591 54.7867 68.9642L47.8194 62.3115C47.3867 61.8983 47.1512 61.32 47.1721 60.7221C47.2126 59.5651 48.1833 58.66 49.3403 58.7004C49.3496 58.6933 49.3589 58.6861 49.3682 58.679ZM58.9254 61.2789C58.1869 61.2789 57.3477 60.8159 56.4079 59.8899C56.1195 59.6057 55.9348 59.233 55.8832 58.8314C55.5283 56.0686 56.4577 54.6871 58.6713 54.6871C62.2279 54.6871 62.2722 55.8545 62.2722 57.7844C62.2722 59.7144 60.7738 61.2789 58.9254 61.2789ZM70.9226 57.5809C70.9551 57.4422 71.061 57.3326 71.1984 57.2952C71.4051 57.2391 71.6181 57.3611 71.6743 57.5678L73.8689 65.6461C73.8885 65.7183 73.8991 65.7926 73.9004 65.8675C73.9091 66.3671 73.5112 66.7791 73.0116 66.7879L69.9079 66.842C69.8331 66.8433 69.7584 66.8354 69.6855 66.8183C69.199 66.7042 68.8971 66.2173 69.0112 65.7309L70.9226 57.5809ZM41.4387 64.8142C41.2695 65.4163 40.78 65.8746 40.168 66.0038C39.2601 66.1954 38.3686 65.6147 38.177 64.7068L30 25.9648L48.7246 25.3273L49.8461 30.5137L51.9431 25.3273L96.011 23L92.6853 29.9601C90.6432 34.2337 86.4271 37.0481 81.697 37.295L48.6848 39.0182L41.4387 64.8142ZM90.7574 126.274C92.7219 126.246 94.979 126.409 97.5288 126.761C100.893 127.226 100.53 134.414 103.578 135.692C107.887 137.499 110.847 139.205 112.456 140.81C112.623 140.977 112.719 141.201 112.722 141.437C112.73 141.937 112.331 142.348 111.832 142.356L92.39 142.656C92.3867 142.656 92.3834 142.656 92.38 142.656H83.1278C83.1087 142.656 83.0896 142.655 83.0706 142.653C82.7151 142.622 82.4525 142.308 82.484 141.952L82.6944 139.582C83.2491 138.995 83.7921 138.324 84.3232 137.566C86.8171 134.004 89.6663 130.278 90.7574 126.274ZM41.3435 131.113C41.4051 129.287 42.6574 127.718 44.4241 127.253C47.4017 126.469 51.3955 126.623 56.4055 127.716C59.705 128.436 59.1761 134.208 62.0854 135.697C65.9668 137.684 68.8299 139.481 70.6748 141.09C70.9035 141.289 71.033 141.579 71.0292 141.882C71.0219 142.453 70.553 142.91 69.982 142.903L51.0501 142.661C51.0327 142.66 51.0154 142.66 50.998 142.659L41.717 142.166C41.3698 142.147 41.0995 141.857 41.1051 141.51L41.2088 135.105L41.3435 131.113ZM132.382 56.0822L137.081 50.9248L139.881 52.4593C139.952 52.4982 140.022 52.5403 140.089 52.5854C141.334 53.4203 141.666 55.1064 140.831 56.3514L139.29 58.6501C139.171 58.8272 139.032 58.9897 138.875 59.1342C137.773 60.1501 136.056 60.0801 135.04 58.9778L132.529 56.2541C132.478 56.1982 132.429 56.1409 132.382 56.0822ZM123.995 65.2879L127.95 60.9474C128.309 60.9988 128.665 61.1145 129.001 61.2983L132.111 63.0027C132.182 63.0416 132.252 63.0837 132.319 63.1288C133.564 63.9637 133.896 65.6498 133.061 66.8948L131.52 69.1934C131.401 69.3705 131.262 69.533 131.105 69.6776C130.003 70.6935 128.286 70.6235 127.27 69.5212L124.759 66.7974C124.358 66.3623 124.102 65.8376 123.995 65.2879ZM116.009 45.4597C115.762 45.3965 115.52 45.3018 115.287 45.1744L112.176 43.47C112.105 43.4311 112.036 43.389 111.969 43.3439C110.724 42.509 110.391 40.8229 111.226 39.5779L112.768 37.2792C112.887 37.1021 113.026 36.9396 113.183 36.7951C114.285 35.7792 116.002 35.8492 117.018 36.9515L119.131 39.2439L116.009 45.4597ZM113.27 50.913L110.505 56.4173C109.911 56.4704 109.297 56.3533 108.74 56.0478L105.629 54.3433C105.558 54.3044 105.489 54.2624 105.421 54.2173C104.176 53.3823 103.844 51.6962 104.679 50.4512L106.22 48.1526C106.339 47.9755 106.478 47.813 106.635 47.6685C107.737 46.6526 109.455 46.7226 110.47 47.8248L112.981 50.5486C113.087 50.6642 113.184 50.786 113.27 50.913ZM112.42 78.8783L105.648 73.089C105.377 72.8571 105.345 72.4491 105.577 72.1779C105.809 71.9066 106.217 71.8746 106.488 72.1066L113.26 77.8958C113.531 78.1277 113.563 78.5357 113.331 78.807C113.099 79.0783 112.691 79.1102 112.42 78.8783ZM108.236 85.2338L100.793 79.7203C100.506 79.5079 100.446 79.1031 100.658 78.8163C100.871 78.5295 101.276 78.4693 101.562 78.6817L109.006 84.1952C109.292 84.4076 109.353 84.8123 109.14 85.0991C108.928 85.3859 108.523 85.4462 108.236 85.2338ZM77.9993 123.835L71.0685 118.223C70.7911 117.998 70.7483 117.591 70.9729 117.314C71.1976 117.036 71.6045 116.994 71.8819 117.218L78.8127 122.831C79.09 123.055 79.1328 123.462 78.9082 123.74C78.6836 124.017 78.2766 124.06 77.9993 123.835ZM82.1476 118.712L75.2168 113.1C74.9394 112.875 74.8967 112.468 75.1213 112.191C75.3459 111.914 75.7528 111.871 76.0302 112.095L82.961 117.708C83.2384 117.932 83.2811 118.339 83.0565 118.617C82.8319 118.894 82.425 118.937 82.1476 118.712Z" fill="#1B1B1B"/>
<path fill-rule="evenodd" clip-rule="evenodd" d="M59.3691 114.879L59.4352 116.332C56.2867 121.241 55.0642 124.805 55.7677 127.025C55.8539 127.297 55.7032 127.587 55.431 127.674C55.1588 127.76 54.8682 127.609 54.782 127.337C53.9446 124.695 55.4737 120.542 59.3691 114.879ZM96.8744 117.026L92.2078 119.826L91.8628 126.284L90.8343 126.273L91.205 119.452C91.2216 119.28 91.323 119.127 91.4753 119.045L96.3856 116.115C96.6373 115.98 96.9507 116.074 97.0856 116.326C97.2206 116.577 97.126 116.891 96.8744 117.026ZM47.1229 44.3873L47.4178 43.3376L48.1771 43.3005C48.4623 43.2865 48.7048 43.5064 48.7187 43.7916C48.7327 44.0768 48.5128 44.3193 48.2276 44.3332L47.1229 44.3873ZM80.7002 52.9457C80.1666 52.8961 79.7045 52.8714 79.3139 52.8714C77.6365 52.8714 76.9071 54.3543 77.1256 57.3201C77.1513 57.6683 77.2772 58.0017 77.4881 58.28C78.1511 59.1549 78.8432 59.5924 79.5644 59.5924C79.716 59.5924 80.019 59.5924 80.4734 59.5924L80.3382 63.5564L75.0956 58.9771C74.1035 58.1105 73.9719 56.6155 74.7973 55.5888L80.8677 48.0384L80.7002 52.9457ZM50.1882 60.368C50.1524 60.3366 50.1175 60.3041 50.0835 60.2707C49.1172 59.319 49.1054 57.7641 50.0571 56.7978L56.6294 50.1246C57.4984 49.2424 58.8883 49.1451 59.8717 49.8977L66.5594 55.0165C66.6052 55.0515 66.6498 55.0882 66.693 55.1264C67.7093 56.0244 67.8052 57.5764 66.9071 58.5927L60.346 66.0175C59.4506 67.0308 57.9044 67.1296 56.8874 66.2383L50.1882 60.368ZM80.451 41.7213C80.7362 41.7074 80.9787 41.9273 80.9926 42.2124C81.0066 42.4976 80.7867 42.7401 80.5015 42.7541L77.2741 42.912C76.9889 42.926 76.7464 42.7061 76.7325 42.4209C76.7185 42.1357 76.9384 41.8932 77.2236 41.8792L80.451 41.7213ZM73.9962 42.0372C74.2814 42.0232 74.5239 42.2431 74.5379 42.5283C74.5518 42.8135 74.3319 43.056 74.0467 43.0699L70.8194 43.2278C70.5342 43.2418 70.2917 43.0219 70.2777 42.7367C70.2638 42.4515 70.4836 42.209 70.7688 42.1951L73.9962 42.0372ZM67.5414 42.353C67.8266 42.339 68.0691 42.5589 68.0831 42.8441C68.097 43.1293 67.8772 43.3718 67.592 43.3857L64.3646 43.5437C64.0794 43.5576 63.8369 43.3377 63.8229 43.0525C63.809 42.7674 64.0288 42.5249 64.314 42.5109L67.5414 42.353ZM61.0866 42.6688C61.3718 42.6549 61.6143 42.8747 61.6283 43.1599C61.6423 43.4451 61.4224 43.6876 61.1372 43.7016L57.9098 43.8595C57.6246 43.8734 57.3821 43.6536 57.3681 43.3684C57.3542 43.0832 57.5741 42.8407 57.8593 42.8267L61.0866 42.6688ZM54.6319 42.9846C54.9171 42.9707 55.1596 43.1906 55.1735 43.4758C55.1875 43.7609 54.9676 44.0034 54.6824 44.0174L51.455 44.1753C51.1698 44.1893 50.9273 43.9694 50.9134 43.6842C50.8994 43.399 51.1193 43.1565 51.4045 43.1425L54.6319 42.9846ZM59.8142 105.135L59.047 101.521L56.7963 98.3476C56.6311 98.1147 56.686 97.792 56.9189 97.6268C57.1518 97.4616 57.4745 97.5165 57.6397 97.7494L59.9522 101.01C59.993 101.068 60.0216 101.133 60.0362 101.202L60.8257 104.921C60.885 105.2 60.7066 105.474 60.4273 105.534C60.148 105.593 59.8735 105.415 59.8142 105.135ZM58.912 61.2583C60.7603 61.2583 62.2587 59.6938 62.2587 57.7638C62.2587 55.8339 62.2145 54.6666 58.6579 54.6666C56.4443 54.6666 55.5149 56.048 55.8698 58.8109C55.9213 59.2125 56.1061 59.5851 56.3945 59.8693C57.3343 60.7953 58.1735 61.2583 58.912 61.2583Z" fill="white"/>
</svg>
