<svg width="171" height="171" viewBox="0 0 171 171" fill="none" xmlns="http://www.w3.org/2000/svg">
<circle opacity="0.1" cx="85.1892" cy="85.1892" r="85.1892" fill="#CD2A16"/>
<path fill-rule="evenodd" clip-rule="evenodd" d="M89.9448 119.047L98.1144 117.545C98.3884 117.494 98.5697 117.231 98.5193 116.957C98.4689 116.683 98.206 116.502 97.932 116.552L89.6943 118.067L89.6935 118.064L84.9549 118.661L83.9006 133.859L67.6036 130.833L69.369 115.253C70.0458 111.872 72.2367 108.989 75.3126 107.431L81.2728 104.413V100.038L60.4265 83.6394C59.7149 83.0796 59.5918 82.049 60.1516 81.3374C60.5035 80.89 61.0624 80.6572 61.6279 80.7224L66.2865 81.2598C64.7124 74.5519 65.6193 61.6713 69.0074 42.6181C69.2552 41.2247 69.9452 39.9907 70.9281 39.0641C71.6214 35.2428 72.3644 32.3424 73.1571 30.3628C74.0543 28.1222 75.955 25.7401 78.8591 23.2164C79.0127 23.0829 79.2078 23.0066 79.4113 23.0004C79.8986 22.9856 80.3056 23.3686 80.3204 23.8559C80.4325 27.5483 80.941 30.0241 81.8459 31.2833C84.0057 34.2888 90.1797 34.9284 91.5539 35.2031C94.0667 34.9799 95.8518 34.2389 96.9094 32.9802C98.0949 31.5691 99.0176 28.7321 99.6776 24.469C99.7003 24.3224 99.7656 24.1857 99.8654 24.0759C100.146 23.7667 100.625 23.7438 100.934 24.0249C103.246 26.1262 104.649 27.5868 105.143 28.4068C107.562 32.4205 107.484 36.0937 107.415 38.5543C107.657 38.6656 107.915 38.7839 108.192 38.91C114.345 41.7115 116.529 47.2661 114.743 55.5738L112.463 67.1097L119.373 63.8158C120.253 63.3962 121.307 63.7696 121.726 64.6497C121.964 65.1485 121.954 65.7299 121.7 66.2207L105.128 98.2494L104.988 100.294C107.629 100.399 110.45 102.59 113.604 106.466C115.607 108.928 117.709 112.043 119.871 115.665C121.809 118.912 123.688 122.385 125.438 125.857C125.954 126.882 126.428 127.845 126.854 128.729C126.501 129.16 126.197 129.536 125.94 129.858C125.39 129.891 124.872 129.939 124.387 130.001C123.96 129.112 123.482 128.141 122.961 127.106C121.238 123.688 119.389 120.271 117.489 117.087C115.39 113.571 113.359 110.56 111.452 108.217C109.703 106.068 108.114 104.561 106.782 103.753C107.757 105.187 108.244 106.669 108.244 108.198C108.244 111.087 106.945 113.355 104.348 115.001L109.938 132.777H93.4547L89.9448 119.047Z" fill="#CD2A16"/>
<path fill-rule="evenodd" clip-rule="evenodd" d="M79.0995 89.429C75.8981 88.7258 72.7323 87.7296 69.6021 86.4404C64.3953 84.2959 64.1993 69.6851 69.0141 42.6081C69.2619 41.2147 69.9519 39.9807 70.9348 39.0541C70.9638 38.8946 70.9928 38.7368 71.0219 38.5806C74.2582 39.3926 76.5966 43.6308 78.0369 51.2954L79.0033 51.701C85.1083 45.014 89.9842 42.0272 93.6309 42.7405C102.011 44.3796 108.508 50.5806 105.532 58.1514C103.852 62.4269 98.8843 70.9978 90.6294 83.8643C88.1155 87.7825 83.6332 89.8906 79.0995 89.429ZM130.109 101.768L128.507 103.338C125.865 105.926 121.69 106.087 118.856 103.71L109.206 95.6119C106.808 93.6001 105.397 90.6506 105.334 87.5214L105.051 73.388C105.049 73.2518 105.059 73.1157 105.082 72.9815C105.283 71.8147 106.391 71.0316 107.558 71.2324C108.942 71.4706 110.151 72.0993 111.183 73.1184C112.047 73.9715 112.311 75.693 112.739 77.2011C112.989 78.0843 113.383 79.4378 113.921 81.2614L130.687 62.9547C130.737 62.8995 130.797 62.8537 130.864 62.8195C133.096 61.6747 134.904 61.6968 136.289 62.8858C137.615 64.0245 137.807 65.7271 136.865 67.9935L126.707 80.1929C127.565 79.5809 128.145 79.2087 128.447 79.0762C130.077 78.3618 131.127 78.87 132.238 79.9845C132.949 80.698 133.624 81.2399 133.731 82.229C133.798 82.8468 133.424 84.0128 132.608 85.7271C135.126 84.1382 137.033 83.9949 138.33 85.2972C139.34 86.3102 139.851 87.146 139.68 88.7058C139.664 88.8474 139.32 89.4845 138.647 90.6169C138.591 90.7114 138.53 90.8025 138.463 90.8897L130.109 101.768ZM60.1578 90.596C60.9521 91.1749 61.4825 92.0441 61.7489 93.2036C62.1569 94.9798 61.6231 96.5401 60.1475 97.8844C62.1407 98.0179 63.3313 98.9815 63.7195 100.775C64.0815 102.448 63.4613 103.849 61.859 104.976C63.8547 105.506 65.0665 106.589 65.4944 108.225C65.9435 109.943 65.1205 111.419 63.0254 112.653C62.9845 112.677 62.9411 112.696 62.896 112.71L56.5031 114.737L57.4267 118.633L51.0123 118.146C50.6951 118.122 50.3812 118.066 50.0755 117.978C48.641 117.565 47.8027 117.237 47.5604 116.992C46.5837 116.005 46.1856 113.99 45.9778 112.881C45.6165 110.952 46.2028 109.611 47.7367 108.855C45.843 108.67 44.6178 107.679 44.0614 105.883C43.5049 104.087 44.0031 102.685 45.5559 101.678C43.822 101.076 42.8283 100.048 42.5749 98.5939C42.1792 96.3227 43.5697 94.1214 45.7907 93.5031L57.7799 90.1654C58.5967 89.938 59.4726 90.0966 60.1578 90.596Z" fill="#C6C6C6"/>
<path fill-rule="evenodd" clip-rule="evenodd" d="M104.19 55.3533C96.9594 53.219 91.7687 52.438 88.6179 53.0103C85.4672 53.5827 82.1306 56.1966 78.6082 60.8521C83.6182 59.7662 87.8755 58.9049 91.3801 58.2683C94.8847 57.6317 99.1547 56.66 104.19 55.3533Z" fill="white"/>
<path fill-rule="evenodd" clip-rule="evenodd" d="M53.7022 91.3351L50.9232 92.1088L44.2867 64.9463L41.3923 65.668C40.7861 65.8191 40.1616 65.8833 39.5373 65.8585C35.9015 65.7144 33.071 62.6501 33.2152 59.0143C33.2414 58.3532 33.207 57.8523 33.1266 57.5298C32.9827 56.9524 32.6556 56.1199 32.1476 55.0498L32.1402 55.1396C32.0921 55.7296 31.5749 56.1689 30.9848 56.1208C30.3948 56.0727 29.9555 55.5554 30.0036 54.9654L30.4147 49.9224C30.4846 49.0643 31.4865 48.6347 32.1564 49.1755L35.9595 52.2464C36.4201 52.6183 36.4919 53.2931 36.1201 53.7537C35.7745 54.1816 35.1675 54.274 34.7138 53.9867C35.2642 55.1579 35.6317 56.1096 35.8184 56.8586C35.9716 57.4729 36.023 58.222 35.9872 59.1242C35.9038 61.229 37.5424 63.003 39.6473 63.0865C40.0086 63.1008 40.3702 63.0637 40.7211 62.9762L42.86 62.4429C43.0021 62.3511 43.1053 62.2471 43.1697 62.1306C43.3231 61.8531 43.2833 61.1047 43.0502 59.8855L40.1081 47.8438C39.9596 48.393 39.4039 48.7337 38.8426 48.6099C38.2645 48.4823 37.8993 47.9102 38.0269 47.3322L39.1614 42.1922C39.3481 41.3463 40.4091 41.0598 40.9962 41.6968L44.6363 45.6464C45.0374 46.0817 45.0098 46.7598 44.5745 47.1609C44.1392 47.5621 43.4611 47.5345 43.0599 47.0992L42.8345 46.8546L45.9309 59.528C46.2527 60.5081 46.5334 61.0762 46.7731 61.2322C46.8846 61.3048 47.0246 61.3482 47.1931 61.3625L49.7845 60.7164C51.8347 60.2053 53.0823 58.1289 52.5711 56.0787C52.4905 55.7555 52.3681 55.4443 52.207 55.1528C51.8938 54.5866 51.6735 54.062 51.5504 53.5682C51.3453 52.7458 51.1639 51.5819 51.0016 50.0626C50.7941 50.5543 50.2476 50.8252 49.7213 50.6755C49.1519 50.5135 48.8216 49.9206 48.9836 49.3512L50.3066 44.7004C50.5435 43.8679 51.6186 43.6449 52.1669 44.3147L55.2382 48.066C55.6132 48.524 55.5459 49.1993 55.0879 49.5743C54.6897 49.9003 54.1274 49.8921 53.7408 49.5835C53.8955 51.0738 54.0643 52.1833 54.2422 52.8971C54.301 53.1327 54.4303 53.4407 54.6347 53.8103C54.9127 54.3131 55.1239 54.8501 55.2629 55.4076C56.1448 58.9444 53.9925 62.5264 50.4556 63.4082L47.0844 64.2488L53.7022 91.3351ZM59.2177 113.909L63.0495 129.592C63.0508 129.598 63.0522 129.604 63.0535 129.609C63.2309 130.376 62.7534 131.141 61.987 131.318C61.2086 131.498 60.4299 131.019 60.2402 130.243L56.4677 114.802L56.4631 114.783L59.2177 113.909ZM132.481 142.309L121.617 136.892C119.886 136.03 119.183 133.927 120.046 132.196C120.475 131.336 121.239 130.689 122.159 130.409C123.176 130.1 124.442 129.899 125.956 129.808C126.416 129.23 127.032 128.478 127.803 127.55C129.108 125.98 131.439 125.766 133.009 127.071C133.889 127.802 134.381 128.9 134.34 130.043L133.94 141.442C133.92 141.999 133.453 142.434 132.896 142.415C132.752 142.41 132.61 142.374 132.481 142.309ZM68.5181 131.019L83.0225 133.707L83.4534 141.671C83.4546 141.693 83.4552 141.716 83.4552 141.739C83.4552 142.435 82.8906 143 82.1942 143H73.7085L73.1287 138.827L71.6554 142.599C71.5609 142.841 71.3278 143 71.0681 143H63.594C63.4969 143 63.4012 142.978 63.3142 142.934C63.0021 142.78 62.8745 142.402 63.0291 142.09L65.3231 137.459L68.5181 131.019ZM94.1867 132.777L109.558 132.768L112.209 141.042C112.249 141.166 112.27 141.296 112.27 141.427C112.27 142.123 111.705 142.688 111.009 142.688H99.7195L99.1397 138.515L98.1953 142.213C98.124 142.493 97.8726 142.688 97.5844 142.688H93.9979C93.9765 142.688 93.9551 142.687 93.9338 142.685C93.5874 142.649 93.3353 142.34 93.3706 141.993L93.8595 137.207L94.1867 132.777ZM69.0447 74.2728H63.7132C63.5544 74.2728 63.4125 74.1737 63.3579 74.0247C63.2861 73.8285 63.3869 73.6112 63.583 73.5393C63.8 73.4598 64.0374 73.3751 64.2951 73.2852C65.6554 72.8106 68.1201 72.1049 71.6892 71.1682C72.5498 71.7317 73.0686 72.1706 73.2456 72.4851C73.2469 72.4875 73.2483 72.4899 73.2496 72.4923C73.535 72.2283 74.0573 71.9894 74.8165 71.7755C75.186 71.6714 75.5785 71.6823 75.9418 71.8066C81.4886 73.705 85.4628 75.1961 87.8642 76.2797C88.4832 76.5591 89.0111 76.8108 89.4479 77.0349C89.6958 77.1621 89.7936 77.4661 89.6664 77.714C89.5649 77.9119 89.3456 78.0199 89.1268 77.9799L74.2317 75.253C74.1802 75.2653 74.1264 75.2714 74.071 75.2702L69.9661 75.1859C69.8964 75.1845 69.8388 75.2398 69.8374 75.3094C69.8369 75.3361 69.8448 75.3622 69.86 75.3841L70.8204 76.763C71.0514 77.0947 70.9151 77.555 70.5407 77.7074L69.3092 78.2086C69.2447 78.2349 69.2136 78.3084 69.2399 78.3729C69.2562 78.4131 69.292 78.442 69.3347 78.4496L72.1457 78.9483C72.4885 79.0091 72.7172 79.3364 72.6563 79.6792C72.5955 80.0221 72.2682 80.2507 71.9254 80.1899L69.1144 79.6912C68.6452 79.6079 68.2515 79.2897 68.0719 78.8483C67.7831 78.1387 68.1242 77.3294 68.8338 77.0406L69.335 76.8367L68.8252 76.1048C68.6577 75.8642 68.5706 75.5767 68.5767 75.2835C68.5849 74.8802 68.7646 74.5206 69.0447 74.2728ZM66.6075 56.4669C66.2187 56.1505 65.9073 55.8106 65.6733 55.4462C65.4851 55.1532 65.5701 54.7631 65.8631 54.5749C66.1561 54.3868 66.5462 54.4718 66.7343 54.7648C67.5878 56.0938 70.1483 57.1517 74.3971 57.8322L77.8915 51.3997C78.0578 51.0938 78.4406 50.9805 78.7466 51.1467C79.0525 51.3129 79.1658 51.6957 78.9996 52.0017L69.9129 68.7283H74.9039C75.0357 68.7283 75.1641 68.7696 75.2712 68.8464C76.4418 69.6855 77.3767 69.6855 78.2686 68.8886C78.5283 68.6566 78.9269 68.679 79.1589 68.9387C79.3909 69.1984 79.3685 69.5969 79.1088 69.829C77.8015 70.9971 76.2765 71.0378 74.707 69.9893H68.8528C68.3747 69.9893 68.0705 69.4779 68.2988 69.0578L73.7599 59.0051C71.1763 58.5647 69.1763 57.9757 67.7562 57.2174C67.733 57.2378 67.708 57.2568 67.6812 57.2741L65.5375 58.6612C65.2452 58.8504 64.8548 58.7668 64.6656 58.4744C64.4765 58.1821 64.5601 57.7917 64.8525 57.6025L66.6075 56.4669ZM98.94 56.3913L100.958 57.7784C101.245 57.9757 101.317 58.3683 101.12 58.6552C100.923 58.9422 100.53 59.0148 100.243 58.8176L98.2256 57.4305C97.9387 57.2332 97.866 56.8406 98.0632 56.5537C98.2605 56.2667 98.6531 56.1941 98.94 56.3913ZM126.681 91.7426L132.132 85.4609C132.36 85.1979 132.759 85.1697 133.022 85.3979C133.285 85.6262 133.313 86.0244 133.085 86.2874L127.747 92.438C127.47 94.7064 127.862 96.2754 128.873 97.2007C129.881 98.1237 131.077 98.2585 132.584 97.5853C132.902 97.4433 133.275 97.5859 133.417 97.9038C133.559 98.2218 133.417 98.5946 133.099 98.7367C131.153 99.6058 129.419 99.4104 128.021 98.1308C126.819 97.0306 126.297 95.3602 126.417 93.1586C124.518 93.6908 122.821 93.3351 121.397 92.0811C119.716 90.6006 119.346 88.6589 120.286 86.4091C120.313 86.345 120.349 86.2877 120.392 86.238C120.416 86.1329 120.467 86.0325 120.546 85.948L125.969 80.1473C126.207 79.893 126.606 79.8795 126.86 80.1173C127.114 80.3551 127.128 80.7541 126.89 81.0085L121.482 86.7933C121.475 86.8276 121.464 86.8618 121.45 86.8955C120.711 88.663 120.971 90.025 122.231 91.1348C123.463 92.2195 124.913 92.427 126.681 91.7426ZM107.167 71.4452C108.137 74.7077 107.757 77.496 106.009 79.744C105.795 80.0189 105.399 80.0684 105.124 79.8547C104.85 79.6409 104.8 79.2448 105.014 78.9699C106.496 77.0637 106.818 74.6972 105.959 71.8043C105.859 71.4704 106.05 71.1195 106.383 71.0203C106.717 70.9212 107.068 71.1114 107.167 71.4452ZM124.728 86.3773L123.922 89.3173L126.643 87.9702C126.955 87.8157 127.333 87.9434 127.487 88.2554C127.642 88.5675 127.514 88.9457 127.202 89.1003L123.223 91.0709C122.735 91.3124 122.191 90.8641 122.335 90.3393L123.512 86.0441C123.604 85.7083 123.95 85.5106 124.286 85.6026C124.622 85.6946 124.82 86.0415 124.728 86.3773ZM131.537 92.4302L130.732 95.3702L133.452 94.0231C133.764 93.8686 134.142 93.9962 134.297 94.3083C134.451 94.6204 134.324 94.9986 134.012 95.1531L130.032 97.1237C129.545 97.3652 129.001 96.917 129.144 96.3921L130.321 92.097C130.413 91.7611 130.76 91.5634 131.096 91.6555C131.432 91.7475 131.629 92.0943 131.537 92.4302ZM52.2973 100.916C51.9691 101.033 51.6087 100.861 51.4923 100.533C51.376 100.205 51.5476 99.8444 51.8758 99.728L59.8617 97.1477C60.1899 97.0313 60.5503 97.203 60.6667 97.5312C60.7831 97.8594 60.6114 98.2198 60.2832 98.3362L52.2973 100.916ZM53.846 107.991C53.5105 108.084 53.163 107.888 53.0697 107.552C52.9765 107.217 53.1729 106.869 53.5084 106.776L62.0018 104.416C62.3373 104.322 62.6849 104.519 62.7781 104.854C62.8713 105.19 62.6749 105.537 62.3394 105.63L53.846 107.991ZM71.2657 82.0574C72.3353 82.4227 72.9692 83.5235 72.7482 84.6319C72.5389 85.6816 72.2436 86.4328 71.8622 86.8857C71.3465 87.4981 71.5767 89.2331 72.553 92.0906C72.8303 92.9025 72.6759 93.7997 72.1431 94.4722L71.0767 95.8181C70.9902 95.9272 70.8316 95.9456 70.7225 95.8591C70.6658 95.8142 70.6311 95.7471 70.6272 95.6749C70.5886 94.9508 70.5499 94.2267 70.5112 93.5027C70.4613 92.5685 68.521 91.7422 68.2598 88.5738C68.1268 86.9621 68.3395 85.1998 68.8979 83.2867C69.1834 82.3084 70.208 81.7468 71.1863 82.0323C71.2129 82.0401 71.2394 82.0485 71.2657 82.0574ZM97.8643 56.9332C96.5279 57.242 95.2641 57.5189 94.0729 57.7641C93.7939 57.4152 93.5952 56.9925 93.5236 56.5405C93.322 55.2679 94.3434 54.6707 95.5128 54.4855C96.6822 54.3002 97.6776 54.8061 97.8792 56.0786C97.926 56.3745 97.9184 56.6627 97.8643 56.9332Z" fill="#1B1B1B"/>
</svg>
