<svg width="171" height="171" viewBox="0 0 171 171" fill="none" xmlns="http://www.w3.org/2000/svg">
<circle opacity="0.1" cx="85.1892" cy="85.1892" r="85.1892" fill="#CD2A16"/>
<path fill-rule="evenodd" clip-rule="evenodd" d="M67.6751 113.182C69.0444 109.418 71.3348 104.271 74.5462 97.7426L74.5462 97.7426C74.9574 96.9068 75.7323 96.3085 76.6448 96.1221C78.2736 95.7895 79.8636 96.8402 80.1962 98.4689C80.4545 99.7336 79.6722 102.63 77.8492 107.159L84.4758 106.616C85.0753 102.725 85.675 100.215 86.2749 99.0869C86.8747 97.9588 89.4416 96.8351 93.9756 95.7157L90.8679 111.114L87.7284 113.264L87.9246 113.868C94.9385 111.167 99.1048 110.031 100.423 110.459C101.398 110.775 102.157 111.547 102.457 112.526C102.966 114.185 102.033 115.942 100.375 116.451L88.9962 119.94L89.045 120.319C97.2128 118.403 101.603 117.663 102.215 118.1C102.684 118.434 103.041 118.902 103.239 119.443C103.782 120.925 103.021 122.566 101.539 123.108L80.2447 130.911C77.9402 131.755 75.4219 131.757 73.1302 130.934C73.7745 134.498 74.3765 138.429 74.9362 142.726L65.841 142.6C65.8538 142.655 65.8615 142.709 65.8642 142.761L48.3506 143C48.3138 143 48.277 143 48.2403 142.997L44.3322 142.736C44.3169 142.735 44.3017 142.734 44.2864 142.734H38.8871C38.8648 142.734 38.8425 142.733 38.8202 142.731C38.4429 142.694 38.1669 142.358 38.2039 141.981L38.6706 137.212L38.9565 136.224L43.0028 114.011C43.1034 113.148 43.2992 112.263 43.5903 111.353L44.9736 101.466L43.3393 101.61L45.3354 41.7986C45.5801 34.4671 51.5447 28.6229 58.8797 28.5279L93.3525 28.0814C98.5083 28.0146 102.742 32.1401 102.809 37.2959C102.814 37.6601 102.797 38.0242 102.759 38.3864L98.8185 76.1244C98.0883 83.117 92.1937 88.4282 85.163 88.4282H61.4781V100.011C63.7782 102.249 64.944 104.099 64.9755 105.562C65.0228 107.757 63.6077 107.83 64.9798 110.319C65.2801 110.863 66.8513 112.276 67.6751 113.182ZM55.199 131.667C55.8666 133.72 56.3009 136.174 57.7356 137.084L59.805 122.037C57.2473 122.493 55.0057 122.789 53.0801 122.925L55.199 131.667ZM112.491 104.792C113.059 104.157 113.868 103.792 114.719 103.785L129.371 103.672C131.927 103.652 134.077 105.584 134.328 108.128C134.334 108.184 134.339 108.24 134.345 108.296C134.527 109.99 133.752 111.446 132.02 112.665C134.063 113.288 135.061 114.684 135.015 116.853C134.969 119.022 133.925 120.51 131.884 121.318C133.825 121.668 134.902 122.97 135.115 125.224C135.237 126.52 135.115 127.694 134.345 129.099C134.144 129.466 133.303 129.948 131.823 130.544C131.686 130.598 131.548 130.647 131.408 130.69L125.543 132.477V130.629L116.217 130.412C113.448 129.716 112.039 128.335 111.99 126.267C111.944 124.315 112.944 122.729 114.989 121.507C112.853 120.766 111.72 119.41 111.589 117.44C111.449 115.327 112.463 113.88 114.632 113.098C112.567 112.076 111.479 110.516 111.367 108.416C111.287 106.927 111.662 105.719 112.491 104.792Z" fill="#C6C6C6"/>
<path fill-rule="evenodd" clip-rule="evenodd" d="M68.6175 128.22L59.1837 126.704L59.8273 122.024C57.2697 122.48 55.0281 122.776 53.1024 122.912L54.0104 126.658L40.7998 128.459L40.9463 125.409L42.2743 118.119L55.7042 115.657L67.5431 113.706C66.5226 116.588 66.0775 118.608 66.2076 119.763C66.3883 121.368 66.37 125.633 68.6175 128.22ZM61.8042 100.298C63.9032 102.401 64.9678 104.152 64.9979 105.549C65.03 107.043 64.385 107.554 64.4019 108.512L47.7329 111.511L46.6425 104.13L61.8042 100.298ZM76.5105 131.553L82.5699 138.676H104.823C105.023 138.676 105.22 138.719 105.401 138.803L109.788 140.838C110.346 141.097 110.589 141.76 110.33 142.319C110.146 142.715 109.748 142.968 109.311 142.965L74.9804 142.725L73.1363 130.941C73.867 131.164 74.4322 131.312 74.832 131.384C75.2318 131.457 75.7913 131.513 76.5105 131.553ZM90.1181 47.0367L101.872 47.0366L101.065 54.6938L94.6534 54.5732L100.119 63.6564C99.5901 68.787 99.1929 72.632 98.9278 75.1914C98.6627 77.7507 98.5894 78.3582 98.7079 77.0139L85.3864 54.3989L42.9232 53.6004V47.0369L81.0496 47.0367L77.8492 41.6035H86.8486L90.1181 47.0367ZM78.4035 100.296L79.5086 93.5582L87.9245 94.1241L85.579 103.306L85.5456 103.303L84.3866 108.249H74.9361L76.8867 100.011L78.4035 100.296ZM61.5164 97.2114L40.7998 96.0469L41.2879 87.9291L61.4781 88.4281L61.5164 97.2114Z" fill="#CD2A16"/>
<path fill-rule="evenodd" clip-rule="evenodd" d="M71.6808 66.1854C72.0442 65.6555 72.2729 65.0124 72.3096 64.311C72.3274 63.9728 72.2993 63.6435 72.2312 63.3298C72.7026 63.878 73.175 64.4716 73.6484 65.1105C72.9753 65.5073 72.3194 65.8656 71.6808 66.1854ZM68.316 67.5637C66.6637 68.0733 65.1541 68.2646 63.7871 68.1375C61.0653 67.8845 57.6976 66.1018 53.6839 62.7894C57.8267 59.5737 61.4119 58.1065 64.4393 58.3879C66.1235 58.5445 67.8208 59.3075 69.5312 60.6769C69.4233 60.6597 69.3136 60.6481 69.2023 60.6423C67.3849 60.547 65.8296 62.0351 65.7284 63.9661C65.6371 65.7083 66.7607 67.2157 68.316 67.5637Z" fill="white"/>
<path fill-rule="evenodd" clip-rule="evenodd" d="M46.5305 63.9963L48.1991 112.052C48.2125 112.439 48.1604 112.825 48.0449 113.195L38.8166 142.725H34.6926L34.0984 139.502L31.7437 142.725H28L38.6357 106.016C38.7553 105.603 38.7963 105.172 38.7567 104.744L32.1552 33.4965C31.9106 30.856 33.7933 28.4929 36.4217 28.1414L74.1356 23.0981C75.3635 22.9339 76.6102 22.976 77.8242 23.2227L101.381 28.0095C103.512 28.4424 104.973 30.4111 104.772 32.5756L103.75 43.5311L74.8528 43.1653L75.9904 30.2561L70.3869 42.9084H45.7984L46.3841 59.7793L49.5242 60.8825L58.9126 56.2813C62.8176 54.3675 67.4923 55.0051 70.742 57.895L77.5632 63.9609L81.2711 63.7241L80.428 67.859L77.084 66.8011L68.7759 70.8146C65.6005 72.3486 61.8483 72.0748 58.9292 70.096L49.3805 63.6234L46.5305 63.9963ZM71.5952 66.2178C72.277 65.881 72.9786 65.4999 73.7001 65.0746C73.1954 64.4458 72.6937 63.862 72.1949 63.3234C72.2593 63.6298 72.2854 63.9509 72.2682 64.2804C72.2299 65.0099 71.9842 65.6762 71.5952 66.2178ZM68.319 67.5427C66.7407 67.2137 65.5948 65.6942 65.6869 63.9355C65.7881 62.0046 67.3434 60.5164 69.1608 60.6117C69.178 60.6126 69.1952 60.6136 69.2123 60.6148C67.5223 59.3774 65.8676 58.6834 64.2482 58.5329C61.2207 58.2514 57.7165 59.6583 53.7356 62.7535C57.7492 66.0659 61.117 67.8486 63.8387 68.1017C65.1923 68.2275 66.6857 68.0412 68.319 67.5427ZM77.652 75.2976L81.7023 73.8571C82.5504 73.5555 83.4926 73.6887 84.2238 74.2136L85.4159 75.0694L86.2733 74.398C87.0585 73.783 88.1155 73.6421 89.0344 74.0301L91.595 75.1111C91.9161 74.9713 92.2461 74.8249 92.5849 74.672C92.9304 74.516 93.337 74.6697 93.493 75.0153C93.649 75.3608 93.4953 75.7674 93.1497 75.9234C93.0001 75.9909 92.8521 76.0573 92.7057 76.1224C91.5836 79.1423 89.1536 80.6523 85.4159 80.6523C82.0231 80.6523 79.385 79.4081 77.5017 76.9197C77.0154 76.5828 76.5698 76.1987 76.1653 75.7671C75.9061 75.4905 75.9201 75.0561 76.1968 74.7968C76.4734 74.5375 76.9078 74.5516 77.1671 74.8283C77.3212 74.9927 77.4828 75.1491 77.652 75.2976ZM85.7096 61.4156L89.1413 70.3337C89.3047 70.7584 89.093 71.235 88.6683 71.3984C88.5739 71.4347 88.4737 71.4534 88.3725 71.4534H83.5339C83.079 71.4534 82.7101 71.0846 82.7101 70.6296C82.7101 70.5866 82.7135 70.5437 82.7202 70.5012L84.1271 61.5831C84.198 61.1337 84.6197 60.8268 85.0691 60.8977C85.3598 60.9436 85.6039 61.141 85.7096 61.4156ZM126.025 103.751L118.921 103.806C118.975 102.345 119.027 100.818 119.075 99.2252L116.756 99.1848L109.131 101.927C108.943 101.995 108.744 102.028 108.544 102.024C107.635 102.008 106.91 101.258 106.926 100.348L107.07 92.1031C107.074 91.8703 107.127 91.641 107.226 91.4303C107.614 90.607 108.595 90.2537 109.419 90.6411L116.844 94.1355L117.671 94.2049C117.472 93.9561 117.254 93.6691 117.003 93.3385C115.09 90.8131 111.959 85.3466 107.612 76.9389C106.371 74.5374 105.865 71.8228 106.16 69.1355L106.951 61.9341C107.451 57.3759 111.277 53.9098 115.862 53.8614C119.666 53.8213 122.655 53.7822 124.832 53.7442C127.021 53.706 130.052 53.9652 133.924 54.522C138.384 55.1633 141.696 58.9849 141.696 63.4913V71.1437C141.696 73.474 141.084 75.7635 139.922 77.7836C135.308 85.8057 131.825 90.8147 129.472 92.8108C128.265 93.8347 127.625 94.5053 126.989 94.9434C126.988 94.9576 126.986 94.9719 126.984 94.9861L127.05 94.9916L135.719 91.6265C135.943 91.5395 136.183 91.5026 136.423 91.5183C137.331 91.5779 138.019 92.3622 137.959 93.2702L137.449 101.047C137.439 101.209 137.404 101.369 137.347 101.521C137.025 102.372 136.074 102.802 135.223 102.48L126.974 99.3631L126.496 99.3548C126.328 100.883 126.171 102.348 126.025 103.751ZM125.14 130.671C125.32 131.809 125.54 132.99 125.8 134.212C126.366 136.874 124.667 139.492 122.005 140.058C121.335 140.201 120.643 140.202 119.973 140.062L119.037 139.867C116.142 139.263 114.285 136.426 114.889 133.531C114.951 133.233 115.039 132.94 115.151 132.656C115.444 131.917 115.715 131.161 115.965 130.388C116.06 130.415 116.156 130.44 116.254 130.465L125.14 130.671ZM81.0597 93.789L82.8531 87.0066C82.9405 86.6761 83.1609 86.3966 83.4618 86.2345L87.9739 83.8047C88.1075 83.7328 88.274 83.7828 88.3459 83.9163C88.3752 83.9708 88.3853 84.0336 88.3745 84.0945L86.5959 94.1074L81.0597 93.789ZM57.9055 136.682C57.938 136.407 58.1358 136.168 58.4199 136.096C62.4055 135.093 65.4019 135.564 67.3229 137.585C67.5841 137.86 67.5731 138.294 67.2983 138.555C67.0235 138.817 66.589 138.806 66.3278 138.531C65.0236 137.159 63.0106 136.673 60.2349 137.12C61.6468 137.602 62.7046 138.076 63.4173 138.55C64.3914 139.199 65.4717 140.263 66.6723 141.745C66.9109 142.039 66.8655 142.472 66.5709 142.71C66.2763 142.949 65.844 142.904 65.6054 142.609C64.4847 141.225 63.4971 140.253 62.6567 139.694C61.8208 139.137 60.3012 138.53 58.1204 137.893C57.7565 137.787 57.5476 137.406 57.6539 137.042C57.6978 136.891 57.7885 136.768 57.9055 136.682ZM46.8575 140.357C46.4974 140.476 46.1093 140.28 45.9906 139.92C45.8719 139.56 46.0676 139.172 46.4277 139.054C50.6575 137.659 53.7361 136.96 55.7042 136.96C56.0834 136.96 56.3907 137.267 56.3907 137.646C56.3907 138.025 56.0834 138.333 55.7042 138.333C53.9205 138.333 50.9581 139.006 46.8575 140.357ZM124.304 113.923L114.54 113.322C114.162 113.298 113.874 112.973 113.897 112.594C113.921 112.216 114.246 111.928 114.625 111.951L124.389 112.553C124.767 112.576 125.055 112.902 125.032 113.28C125.008 113.659 124.683 113.947 124.304 113.923ZM124.834 122.261L114.664 122.345C114.285 122.348 113.975 122.043 113.972 121.664C113.968 121.285 114.273 120.975 114.652 120.972L124.822 120.888C125.202 120.885 125.511 121.19 125.514 121.569C125.518 121.948 125.213 122.258 124.834 122.261ZM92.9843 95.6271C93.2665 95.3738 93.7005 95.3972 93.9538 95.6794C94.207 95.9615 94.1836 96.3956 93.9015 96.6488C92.1077 98.2588 91.8278 99.862 92.9887 101.687C93.1922 102.007 93.0978 102.431 92.7779 102.635C92.458 102.838 92.0337 102.744 91.8302 102.424C90.2971 100.014 90.7061 97.672 92.9843 95.6271ZM96.9269 115.493L99.4058 113.286L96.1229 112.903C95.7463 112.859 95.4767 112.518 95.5206 112.141C95.5646 111.765 95.9055 111.495 96.2821 111.539L101.084 112.099C101.673 112.168 101.904 112.9 101.461 113.294L97.8398 116.518C97.5567 116.77 97.1227 116.745 96.8706 116.462C96.6185 116.179 96.6437 115.745 96.9269 115.493ZM98.1625 122.632L100.641 120.425L97.3586 120.042C96.982 119.998 96.7124 119.657 96.7563 119.281C96.8002 118.904 97.1411 118.634 97.5177 118.678L102.32 119.239C102.909 119.307 103.14 120.039 102.697 120.433L99.0755 123.658C98.7923 123.91 98.3584 123.885 98.1063 123.601C97.8542 123.318 97.8794 122.884 98.1625 122.632Z" fill="#1B1B1B"/>
</svg>
