<svg width="13" height="13" viewBox="0 0 13 13" fill="none" xmlns="http://www.w3.org/2000/svg">
<path d="M5.59033 1.08203C5.31689 1.35547 5.34424 1.76562 5.59033 2.03906L8.89893 5.15625H1.05127C0.668457 5.15625 0.39502 5.45703 0.39502 5.8125V6.6875C0.39502 7.07031 0.668457 7.34375 1.05127 7.34375H8.89893L5.59033 10.4883C5.34424 10.7617 5.34424 11.1719 5.59033 11.4453L6.19189 12.0469C6.46533 12.293 6.87549 12.293 7.12158 12.0469L12.4536 6.71484C12.6997 6.46875 12.6997 6.05859 12.4536 5.78516L7.12158 0.480469C6.87549 0.234375 6.46533 0.234375 6.19189 0.480469L5.59033 1.08203Z" fill="white"/>
</svg>
