<svg width="35" height="34" viewBox="0 0 35 34" fill="none" xmlns="http://www.w3.org/2000/svg">
<circle cx="17.5" cy="17" r="17" fill="#191A1E"/>
<path fill-rule="evenodd" clip-rule="evenodd" d="M16.3745 25H17.6255V24.233C17.6255 23.298 18.2005 22.458 19.0895 22.091C20.0095 21.708 21.0145 21.896 21.6765 22.562L22.2155 23.103L23.1035 22.215L22.5585 21.671C21.8955 21.009 21.7085 20.005 22.0815 19.114C22.0815 19.114 22.0825 19.113 22.0825 19.112L22.0935 19.084C22.4575 18.201 23.2985 17.625 24.2335 17.625H24.9995V16.375H24.2335C23.2985 16.375 22.4575 15.8 22.0915 14.911C21.7065 13.991 21.8955 12.986 22.5615 12.323L23.1025 11.784L22.2155 10.897L21.6705 11.442C21.0085 12.104 20.0055 12.291 19.1145 11.919C18.2015 11.542 17.6255 10.702 17.6255 9.767V9H16.3745V9.767C16.3745 10.702 15.7995 11.542 14.9105 11.909C13.9915 12.294 12.9865 12.105 12.3235 11.438L11.7845 10.897L10.8965 11.785L11.4415 12.329C12.1035 12.991 12.2915 13.995 11.9185 14.886C11.5425 15.799 10.7015 16.375 9.76651 16.375H8.99951V17.625H9.76651C10.7015 17.625 11.5425 18.2 11.9085 19.089C12.2935 20.009 12.1045 21.014 11.4385 21.677L10.8975 22.216L11.7845 23.103L12.3295 22.558C12.9915 21.896 13.9945 21.709 14.8855 22.081C15.7985 22.458 16.3745 23.298 16.3745 24.233V25ZM17.9425 27H16.0505C15.1265 27 14.3745 26.248 14.3745 25.324V24.233C14.3745 24.086 14.2575 23.985 14.1475 23.94C14.0035 23.881 13.8495 23.869 13.7435 23.972L12.9735 24.743C12.3175 25.397 11.2515 25.399 10.5965 24.743L9.25651 23.403C8.93851 23.085 8.76451 22.663 8.76451 22.213C8.76551 21.764 8.94051 21.342 9.25951 21.024L10.0275 20.259C10.1325 20.154 10.1215 20 10.0745 19.889C10.0145 19.742 9.91451 19.625 9.76651 19.625H8.68251C7.75451 19.625 6.99951 18.871 6.99951 17.943V16.051C6.99951 15.126 7.75151 14.375 8.67651 14.375H9.76651C9.91351 14.375 10.0145 14.257 10.0595 14.147C10.1195 14.003 10.1315 13.848 10.0275 13.744L9.25651 12.974C8.60251 12.317 8.60251 11.251 9.25651 10.597L10.5965 9.257C10.9145 8.939 11.3355 8.765 11.7845 8.765H11.7865C12.2355 8.765 12.6585 8.94 12.9755 9.259L13.7405 10.028C13.8455 10.134 14.0005 10.122 14.1115 10.075C14.2575 10.014 14.3745 9.914 14.3745 9.767V8.683C14.3745 7.755 15.1295 7 16.0575 7H17.9495C18.8735 7 19.6255 7.752 19.6255 8.676V9.767C19.6255 9.914 19.7425 10.015 19.8525 10.06C19.9975 10.12 20.1515 10.133 20.2565 10.028L21.0265 9.257C21.6825 8.603 22.7485 8.601 23.4035 9.257L24.7445 10.598C25.0625 10.915 25.2365 11.337 25.2355 11.787C25.2355 12.235 25.0605 12.658 24.7415 12.975L23.9725 13.741C23.8675 13.846 23.8785 14 23.9255 14.111C23.9855 14.258 24.0855 14.375 24.2335 14.375H25.3175C26.2455 14.375 26.9995 15.129 26.9995 16.057V17.949C26.9995 18.874 26.2485 19.625 25.3235 19.625H24.2335C24.0865 19.625 23.9855 19.743 23.9405 19.853C23.9395 19.854 23.9275 19.884 23.9265 19.886C23.8805 19.997 23.8685 20.152 23.9725 20.256L24.7435 21.026C25.3975 21.683 25.3975 22.749 24.7435 23.403L23.4035 24.743C23.0855 25.061 22.6645 25.235 22.2155 25.235H22.2135C21.7645 25.235 21.3415 25.06 21.0245 24.741L20.2595 23.972C20.1545 23.867 19.9985 23.879 19.8885 23.925C19.7425 23.986 19.6255 24.086 19.6255 24.233V25.317C19.6255 26.245 18.8705 27 17.9425 27ZM17 15.5C16.173 15.5 15.5 16.173 15.5 17C15.5 17.827 16.173 18.5 17 18.5C17.827 18.5 18.5 17.827 18.5 17C18.5 16.173 17.827 15.5 17 15.5ZM17 20.5C15.07 20.5 13.5 18.93 13.5 17C13.5 15.07 15.07 13.5 17 13.5C18.93 13.5 20.5 15.07 20.5 17C20.5 18.93 18.93 20.5 17 20.5Z" fill="white"/>
<mask id="mask0_471:1987" style="mask-type:alpha" maskUnits="userSpaceOnUse" x="6" y="7" width="21" height="20">
<path fill-rule="evenodd" clip-rule="evenodd" d="M16.3745 25H17.6255V24.233C17.6255 23.298 18.2005 22.458 19.0895 22.091C20.0095 21.708 21.0145 21.896 21.6765 22.562L22.2155 23.103L23.1035 22.215L22.5585 21.671C21.8955 21.009 21.7085 20.005 22.0815 19.114C22.0815 19.114 22.0825 19.113 22.0825 19.112L22.0935 19.084C22.4575 18.201 23.2985 17.625 24.2335 17.625H24.9995V16.375H24.2335C23.2985 16.375 22.4575 15.8 22.0915 14.911C21.7065 13.991 21.8955 12.986 22.5615 12.323L23.1025 11.784L22.2155 10.897L21.6705 11.442C21.0085 12.104 20.0055 12.291 19.1145 11.919C18.2015 11.542 17.6255 10.702 17.6255 9.767V9H16.3745V9.767C16.3745 10.702 15.7995 11.542 14.9105 11.909C13.9915 12.294 12.9865 12.105 12.3235 11.438L11.7845 10.897L10.8965 11.785L11.4415 12.329C12.1035 12.991 12.2915 13.995 11.9185 14.886C11.5425 15.799 10.7015 16.375 9.76651 16.375H8.99951V17.625H9.76651C10.7015 17.625 11.5425 18.2 11.9085 19.089C12.2935 20.009 12.1045 21.014 11.4385 21.677L10.8975 22.216L11.7845 23.103L12.3295 22.558C12.9915 21.896 13.9945 21.709 14.8855 22.081C15.7985 22.458 16.3745 23.298 16.3745 24.233V25ZM17.9425 27H16.0505C15.1265 27 14.3745 26.248 14.3745 25.324V24.233C14.3745 24.086 14.2575 23.985 14.1475 23.94C14.0035 23.881 13.8495 23.869 13.7435 23.972L12.9735 24.743C12.3175 25.397 11.2515 25.399 10.5965 24.743L9.25651 23.403C8.93851 23.085 8.76451 22.663 8.76451 22.213C8.76551 21.764 8.94051 21.342 9.25951 21.024L10.0275 20.259C10.1325 20.154 10.1215 20 10.0745 19.889C10.0145 19.742 9.91451 19.625 9.76651 19.625H8.68251C7.75451 19.625 6.99951 18.871 6.99951 17.943V16.051C6.99951 15.126 7.75151 14.375 8.67651 14.375H9.76651C9.91351 14.375 10.0145 14.257 10.0595 14.147C10.1195 14.003 10.1315 13.848 10.0275 13.744L9.25651 12.974C8.60251 12.317 8.60251 11.251 9.25651 10.597L10.5965 9.257C10.9145 8.939 11.3355 8.765 11.7845 8.765H11.7865C12.2355 8.765 12.6585 8.94 12.9755 9.259L13.7405 10.028C13.8455 10.134 14.0005 10.122 14.1115 10.075C14.2575 10.014 14.3745 9.914 14.3745 9.767V8.683C14.3745 7.755 15.1295 7 16.0575 7H17.9495C18.8735 7 19.6255 7.752 19.6255 8.676V9.767C19.6255 9.914 19.7425 10.015 19.8525 10.06C19.9975 10.12 20.1515 10.133 20.2565 10.028L21.0265 9.257C21.6825 8.603 22.7485 8.601 23.4035 9.257L24.7445 10.598C25.0625 10.915 25.2365 11.337 25.2355 11.787C25.2355 12.235 25.0605 12.658 24.7415 12.975L23.9725 13.741C23.8675 13.846 23.8785 14 23.9255 14.111C23.9855 14.258 24.0855 14.375 24.2335 14.375H25.3175C26.2455 14.375 26.9995 15.129 26.9995 16.057V17.949C26.9995 18.874 26.2485 19.625 25.3235 19.625H24.2335C24.0865 19.625 23.9855 19.743 23.9405 19.853C23.9395 19.854 23.9275 19.884 23.9265 19.886C23.8805 19.997 23.8685 20.152 23.9725 20.256L24.7435 21.026C25.3975 21.683 25.3975 22.749 24.7435 23.403L23.4035 24.743C23.0855 25.061 22.6645 25.235 22.2155 25.235H22.2135C21.7645 25.235 21.3415 25.06 21.0245 24.741L20.2595 23.972C20.1545 23.867 19.9985 23.879 19.8885 23.925C19.7425 23.986 19.6255 24.086 19.6255 24.233V25.317C19.6255 26.245 18.8705 27 17.9425 27ZM17 15.5C16.173 15.5 15.5 16.173 15.5 17C15.5 17.827 16.173 18.5 17 18.5C17.827 18.5 18.5 17.827 18.5 17C18.5 16.173 17.827 15.5 17 15.5ZM17 20.5C15.07 20.5 13.5 18.93 13.5 17C13.5 15.07 15.07 13.5 17 13.5C18.93 13.5 20.5 15.07 20.5 17C20.5 18.93 18.93 20.5 17 20.5Z" fill="white"/>
</mask>
<g mask="url(#mask0_471:1987)">
</g>
</svg>
