<svg width="16" height="16" viewBox="0 0 16 16" fill="none" xmlns="http://www.w3.org/2000/svg">
<path d="M14.1713 7.30804C14.4873 7.72137 14.4873 8.27937 14.1713 8.69204C13.176 9.99137 10.788 12.6667 8 12.6667C5.212 12.6667 2.824 9.99137 1.82866 8.69204C1.67492 8.49413 1.59146 8.25065 1.59146 8.00004C1.59146 7.74943 1.67492 7.50595 1.82866 7.30804C2.824 6.00871 5.212 3.33337 8 3.33337C10.788 3.33337 13.176 6.00871 14.1713 7.30804V7.30804Z" stroke="white" stroke-width="1.5" stroke-linecap="round" stroke-linejoin="round"/>
<path d="M8 10C9.10457 10 10 9.10457 10 8C10 6.89543 9.10457 6 8 6C6.89543 6 6 6.89543 6 8C6 9.10457 6.89543 10 8 10Z" stroke="white" stroke-width="1.5" stroke-linecap="round" stroke-linejoin="round"/>
</svg>
