<svg width="120" height="120" viewBox="0 0 120 120" fill="none" xmlns="http://www.w3.org/2000/svg">
<path d="M110 60.0001C110 87.6143 87.6142 110 60 110C32.3857 110 9.99998 87.6143 9.99998 60.0001C9.99998 32.3858 32.3857 10.0001 60 10.0001C87.6142 10.0001 110 32.3858 110 60.0001ZM27.5 60.0001C27.5 77.9493 42.0507 92.5 60 92.5C77.9492 92.5 92.5 77.9493 92.5 60.0001C92.5 42.0508 77.9492 27.5001 60 27.5001C42.0507 27.5001 27.5 42.0508 27.5 60.0001Z" fill="#979797" fill-opacity="0.2"/>
<path d="M60 10.0001C66.5661 10.0001 73.0679 11.2933 79.1341 13.8061C85.2004 16.3188 90.7124 20.0018 95.3553 24.6447C99.9982 29.2876 103.681 34.7996 106.194 40.8659C108.707 46.9322 110 53.434 110 60.0001L92.5 60.0001C92.5 55.7321 91.6593 51.5059 90.0261 47.5628C88.3928 43.6198 85.9988 40.037 82.9809 37.0191C79.963 34.0012 76.3803 31.6073 72.4372 29.974C68.4941 28.3407 64.2679 27.5001 60 27.5001L60 10.0001Z" fill="#CD2A16"/>
</svg>
