<svg width="32" height="32" viewBox="0 0 32 32" fill="none" xmlns="http://www.w3.org/2000/svg">
<circle cx="16" cy="16" r="16" fill="#191A1E"/>
<path fill-rule="evenodd" clip-rule="evenodd" d="M24 8L19.5556 12.4444L16 8L12.4444 12.4444L8 8V19.5556H24V8ZM9.77778 24.8889H22.2222C23.2041 24.8889 24 24.093 24 23.1111V21.3333H8V23.1111C8 24.093 8.79594 24.8889 9.77778 24.8889Z" fill="#BEBEBE"/>
<path d="M23.2266 13.3333C22.5217 13.3382 21.9515 13.9084 21.9466 14.6133C21.9418 13.9084 21.3715 13.3382 20.6666 13.3333C21.3736 13.3333 21.9466 12.7603 21.9466 12.0533C21.9466 12.7603 22.5197 13.3333 23.2266 13.3333Z" fill="white"/>
<path d="M9.94648 21.7245C9.24157 21.7293 8.67132 22.2996 8.66647 23.0045C8.66163 22.2996 8.09138 21.7293 7.38647 21.7245C8.0934 21.7245 8.66647 21.1514 8.66647 20.4445C8.66647 21.1514 9.23955 21.7245 9.94648 21.7245Z" fill="white"/>
<path d="M20.3911 14.6667C20.1463 14.6684 19.9483 14.8664 19.9466 15.1112C19.945 14.8664 19.747 14.6684 19.5022 14.6667C19.7477 14.6667 19.9466 14.4678 19.9466 14.2223C19.9466 14.4678 20.1456 14.6667 20.3911 14.6667Z" fill="white"/>
<path d="M7.99997 22.6667C7.75521 22.6684 7.55721 22.8664 7.55553 23.1112C7.55385 22.8664 7.35584 22.6684 7.11108 22.6667C7.35654 22.6667 7.55553 22.4678 7.55553 22.2223C7.55553 22.4678 7.75451 22.6667 7.99997 22.6667Z" fill="white"/>
<path d="M21.3332 15.5557C21.0885 15.5573 20.8905 15.7553 20.8888 16.0001C20.8871 15.7553 20.6891 15.5573 20.4443 15.5557C20.6898 15.5557 20.8888 15.3567 20.8888 15.1112C20.8888 15.3567 21.0878 15.5557 21.3332 15.5557Z" fill="white"/>
<path d="M9.7778 23.5557C9.53305 23.5573 9.33504 23.7553 9.33336 24.0001C9.33168 23.7553 9.13368 23.5573 8.88892 23.5557C9.13438 23.5557 9.33336 23.3567 9.33336 23.1112C9.33336 23.3567 9.53234 23.5557 9.7778 23.5557Z" fill="white"/>
<path d="M10.56 9.28C9.85509 9.28484 9.28484 9.85509 9.28 10.56C9.27516 9.85509 8.70491 9.28484 8 9.28C8.70692 9.28 9.28 8.70692 9.28 8C9.28 8.70692 9.85308 9.28 10.56 9.28Z" fill="white"/>
<path d="M22.2221 22.56C21.4878 22.5651 20.8938 23.1591 20.8888 23.8934C20.8837 23.1591 20.2897 22.5651 19.5554 22.56C20.2918 22.56 20.8888 21.9631 20.8888 21.2267C20.8888 21.9631 21.4857 22.56 22.2221 22.56Z" fill="white"/>
</svg>
