<svg width="24" height="24" viewBox="0 0 24 24" fill="none" xmlns="http://www.w3.org/2000/svg">
<circle cx="12" cy="12" r="12" fill="#191A1E"/>
<path fill-rule="evenodd" clip-rule="evenodd" d="M18 6L14.6667 9.33333L12 6L9.33333 9.33333L6 6V14.6667H18V6ZM7.33333 18.6667H16.6667C17.403 18.6667 18 18.0697 18 17.3333V16H6V17.3333C6 18.0697 6.59695 18.6667 7.33333 18.6667Z" fill="#FFD700"/>
<path d="M17.42 10C16.8913 10.0037 16.4636 10.4314 16.46 10.96C16.4564 10.4314 16.0287 10.0037 15.5 10C16.0302 10 16.46 9.57023 16.46 9.04004C16.46 9.57023 16.8898 10 17.42 10Z" fill="white"/>
<path d="M7.46004 16.2934C6.93136 16.297 6.50367 16.7247 6.50004 17.2534C6.49641 16.7247 6.06872 16.297 5.54004 16.2934C6.07023 16.2934 6.50004 15.8636 6.50004 15.3334C6.50004 15.8636 6.92985 16.2934 7.46004 16.2934Z" fill="white"/>
<path d="M15.2934 11C15.1098 11.0012 14.9613 11.1497 14.96 11.3333C14.9588 11.1497 14.8103 11.0012 14.6267 11C14.8108 11 14.96 10.8507 14.96 10.6666C14.96 10.8507 15.1093 11 15.2934 11Z" fill="white"/>
<path d="M6.00004 17C5.81647 17.0012 5.66797 17.1497 5.66671 17.3333C5.66545 17.1497 5.51694 17.0012 5.33337 17C5.51747 17 5.66671 16.8507 5.66671 16.6666C5.66671 16.8507 5.81595 17 6.00004 17Z" fill="white"/>
<path d="M16 11.6667C15.8165 11.668 15.668 11.8165 15.6667 12C15.6654 11.8165 15.5169 11.668 15.3334 11.6667C15.5175 11.6667 15.6667 11.5175 15.6667 11.3334C15.6667 11.5175 15.8159 11.6667 16 11.6667Z" fill="white"/>
<path d="M7.33329 17.6667C7.14972 17.668 7.00122 17.8165 6.99996 18C6.9987 17.8165 6.8502 17.668 6.66663 17.6667C6.85072 17.6667 6.99996 17.5175 6.99996 17.3334C6.99996 17.5175 7.1492 17.6667 7.33329 17.6667Z" fill="white"/>
<path d="M7.92 6.96C7.39132 6.96363 6.96363 7.39132 6.96 7.92C6.95637 7.39132 6.52868 6.96363 6 6.96C6.53019 6.96 6.96 6.53019 6.96 6C6.96 6.53019 7.38981 6.96 7.92 6.96Z" fill="white"/>
<path d="M16.6666 16.92C16.1159 16.9238 15.6704 17.3693 15.6666 17.92C15.6628 17.3693 15.2173 16.9238 14.6666 16.92C15.2189 16.92 15.6666 16.4723 15.6666 15.92C15.6666 16.4723 16.1143 16.92 16.6666 16.92Z" fill="white"/>
</svg>
