<svg width="28" height="28" viewBox="0 0 28 28" fill="none" xmlns="http://www.w3.org/2000/svg">
<path fill-rule="evenodd" clip-rule="evenodd" d="M22.3333 23.8333C22.3333 24.4773 21.8118 25 21.1667 25C20.5215 25 20 24.4773 20 23.8333C20 20.6168 17.3832 18 14.1667 18C10.9502 18 8.33333 20.6168 8.33333 23.8333C8.33333 24.4773 7.81183 25 7.16667 25C6.5215 25 6 24.4773 6 23.8333C6 19.33 9.6645 15.6667 14.1667 15.6667C18.6688 15.6667 22.3333 19.33 22.3333 23.8333ZM14.1667 6.33333C15.4535 6.33333 16.5 7.37983 16.5 8.66667C16.5 9.9535 15.4535 11 14.1667 11C12.8798 11 11.8333 9.9535 11.8333 8.66667C11.8333 7.37983 12.8798 6.33333 14.1667 6.33333ZM14.1667 13.3333C16.7403 13.3333 18.8333 11.2403 18.8333 8.66667C18.8333 6.093 16.7403 4 14.1667 4C11.593 4 9.5 6.093 9.5 8.66667C9.5 11.2403 11.593 13.3333 14.1667 13.3333Z" fill="#575962"/>
</svg>
