<svg width="28" height="28" viewBox="0 0 28 28" fill="none" xmlns="http://www.w3.org/2000/svg">
<path d="M15.0136 4.92912C14.4401 4.40343 13.5599 4.40343 12.9864 4.92912L4.48641 12.7208C4.17647 13.0049 4 13.4061 4 13.8265V22.6042C4 23.4326 4.67157 24.1042 5.5 24.1042H9.27083C10.0993 24.1042 10.7708 23.4326 10.7708 22.6042V17.3333C10.7708 15.5625 12.2292 14.1042 14 14.1042C15.7708 14.1042 17.2292 15.5625 17.2292 17.3333V22.6042C17.2292 23.4326 17.9007 24.1042 18.7292 24.1042H22.5C23.3284 24.1042 24 23.4326 24 22.6042V13.8265C24 13.4061 23.8235 13.0049 23.5136 12.7208L15.0136 4.92912Z" stroke="#CD2A16" stroke-width="2.08333" stroke-miterlimit="10"/>
</svg>
