<svg width="48" height="48" viewBox="0 0 48 48" fill="none" xmlns="http://www.w3.org/2000/svg">
<path fill-rule="evenodd" clip-rule="evenodd" d="M24 48C37.2548 48 48 37.2548 48 24C48 10.7452 37.2548 0 24 0C10.7452 0 0 10.7452 0 24C0 37.2548 10.7452 48 24 48Z" fill="#CD2A16"/>
<g clip-path="url(#clip0_76:5809)">
<path d="M30.8077 7.38478C30.3826 6.98792 29.8122 6.74463 29.1848 6.74463C26.5223 6.74463 24.329 8.7516 24.0341 11.3352C24.0537 11.3345 24.0733 11.3337 24.0931 11.3337C24.8859 11.3337 25.5448 11.9172 25.6635 12.6772H28.113C28.2275 11.9433 28.8458 11.3741 29.6019 11.3358C29.5843 10.8119 29.7608 10.3156 30.0739 9.92686C29.8389 9.64975 29.6968 9.29153 29.6968 8.90058C29.6967 8.19076 30.1644 7.58833 30.8077 7.38478Z" fill="#191A1E"/>
<path d="M18.8152 6.74463C18.1877 6.74463 17.6174 6.98788 17.1923 7.38481C17.8357 7.58836 18.3033 8.19079 18.3033 8.90054C18.3033 9.2915 18.1612 9.64968 17.9262 9.92683C18.239 10.3153 18.4156 10.8112 18.3982 11.3346C19.1752 11.3516 19.8167 11.9284 19.9335 12.6772H22.5227C22.6349 11.9581 23.231 11.3976 23.9664 11.3393C23.6733 8.7537 21.4791 6.74463 18.8152 6.74463Z" fill="#191A1E"/>
<path d="M29.6833 14.5127C29.4108 14.5127 29.1541 14.4437 28.9297 14.3224L26.9469 15.9681C26.8128 16.0794 26.6176 16.0761 26.4873 15.9603L24.7155 14.3856C24.5243 14.4674 24.3139 14.5127 24.093 14.5127C23.857 14.5127 23.6331 14.4606 23.4315 14.3679L21.5036 15.968C21.4383 16.0223 21.3583 16.0493 21.2784 16.0493C21.1946 16.0493 21.1108 16.0195 21.0441 15.9603L19.1681 14.293C18.9318 14.4323 18.6568 14.5127 18.3632 14.5127V17.7097C18.4145 17.6806 18.4737 17.6637 18.537 17.6637H29.4631C29.5512 17.6637 29.6315 17.6962 29.6933 17.7496V14.5124C29.69 14.5125 29.6867 14.5127 29.6833 14.5127Z" fill="#191A1E"/>
<path d="M29.463 18.3691H18.5369C18.4737 18.3691 18.4144 18.3523 18.3631 18.3231V18.5647C18.3631 19.2519 18.9202 19.8089 19.6074 19.8089H28.4489C29.1362 19.8089 29.6932 19.2518 29.6932 18.5646V18.2832C29.6314 18.3366 29.5511 18.3691 29.463 18.3691Z" fill="#191A1E"/>
<path d="M22.5652 13.3604H19.8909C19.8449 13.521 19.7745 13.6715 19.6833 13.8071L21.2861 15.2316L22.8603 13.9251C22.7265 13.7608 22.6251 13.5693 22.5652 13.3604Z" fill="#191A1E"/>
<path d="M28.1554 13.3604H25.6208C25.5568 13.5838 25.4451 13.7871 25.2972 13.9588L26.7295 15.2317L28.3935 13.8505C28.2877 13.7038 28.2064 13.5385 28.1554 13.3604Z" fill="#191A1E"/>
<path d="M16.7138 8.0166C16.2264 8.0166 15.8298 8.41321 15.8298 8.90064C15.8298 9.38808 16.2263 9.78469 16.7138 9.78469C17.2013 9.78469 17.5979 9.38814 17.5979 8.90064C17.5979 8.41321 17.2013 8.0166 16.7138 8.0166Z" fill="#191A1E"/>
<path d="M31.2862 8.0166C30.7988 8.0166 30.4022 8.41318 30.4022 8.90064C30.4022 9.38811 30.7987 9.78469 31.2862 9.78469C31.7737 9.78469 32.1702 9.38808 32.1702 8.90064C32.1702 8.41321 31.7736 8.0166 31.2862 8.0166Z" fill="#191A1E"/>
<path d="M18.3632 12.0391C17.8757 12.0391 17.4791 12.4356 17.4791 12.9231C17.4791 13.4106 17.8757 13.8071 18.3632 13.8071C18.8507 13.8071 19.2472 13.4105 19.2472 12.9231C19.2472 12.4357 18.8506 12.0391 18.3632 12.0391Z" fill="#191A1E"/>
<path d="M24.093 12.0391C23.6056 12.0391 23.209 12.4356 23.209 12.9231C23.209 13.4106 23.6056 13.8071 24.093 13.8071C24.5805 13.8071 24.9771 13.4105 24.9771 12.9231C24.9771 12.4357 24.5805 12.0391 24.093 12.0391Z" fill="#191A1E"/>
<path d="M29.6832 12.0391C29.1958 12.0391 28.7992 12.4356 28.7992 12.9231C28.7992 13.4105 29.1958 13.8071 29.6832 13.8071C30.1707 13.8071 30.5672 13.4105 30.5672 12.9231C30.5672 12.4356 30.1707 12.0391 29.6832 12.0391Z" fill="#191A1E"/>
</g>
<g clip-path="url(#clip1_76:5809)">
<path d="M19.9929 29.5034V32.799C19.9979 33.3302 19.792 33.8417 19.4205 34.2214C19.2525 34.4203 19.0424 34.5795 18.8054 34.6875C18.5685 34.7955 18.3105 34.8496 18.0501 34.846H16.7144V32.8164H17.4249C17.5198 32.8233 17.6147 32.8024 17.6979 32.7562C17.7811 32.7099 17.8489 32.6404 17.8931 32.5561C17.9997 32.3846 18.0537 32.1856 18.0486 31.9837V24.0045H16.7144L16.5756 23.6923C16.4831 23.4842 16.379 23.2473 16.2634 22.9818C16.1824 22.7967 16.1072 22.6175 16.0378 22.444C15.9569 22.259 15.8875 22.0971 15.8298 21.9584H19.9929V29.5034ZM23.0113 21.9575H21.0685V34.846C21.2766 36.5926 21.6004 39.2235 22.0399 42.7386C22.2595 40.9809 22.5833 38.35 23.0113 34.846V31.2033C23.1149 30.9368 23.2652 30.5494 23.4622 30.0411C23.7398 31.105 24.1561 32.7066 24.7112 34.846H26.654C26.1683 33.227 25.4282 30.7986 24.4336 27.5606C24.9073 26.3117 25.6185 24.4441 26.5672 21.9577H24.6243C24.2658 23.2183 23.7281 25.1149 23.011 27.6474L23.0113 21.9575ZM27.7295 21.9748V24.0045H28.9611V34.846H30.9213V24.0045H32.1702V21.9748H27.7295Z" fill="#191A1E"/>
</g>
<path d="M40.5 33H40.5C36.3579 33 33 36.3579 33 40.5V40.5C33 44.6421 36.3579 48 40.5 48C44.6421 48 48 44.6421 48 40.5C48 36.3579 44.6421 33 40.5 33Z" fill="#0091EB"/>
<path fill-rule="evenodd" clip-rule="evenodd" d="M38.1359 38.2235L37.7019 37.1929H40.2229V38.2235H39.3285V39.8838H40.2229V40.9143H39.3285V42.5747H40.2229V43.6053H37.1719L37.6059 42.5747H38.1359V38.2235ZM42.6589 40.1869C43.2464 40.5191 43.6348 41.0925 43.6348 41.7446C43.6348 42.7722 42.6708 43.6053 41.4816 43.6053H40.7528V42.5747H41.4816C42.0113 42.5747 42.4422 42.2023 42.4422 41.7445C42.4422 41.2868 42.0113 40.9144 41.4816 40.9144H40.7528V39.8838H40.9516C41.4813 39.8838 41.9122 39.5113 41.9122 39.0536C41.9122 38.5958 41.4813 38.2235 40.9516 38.2235H40.7528V37.1929H40.9516C42.1408 37.1929 43.1048 38.026 43.1048 39.0536C43.1048 39.4802 42.9383 39.873 42.6589 40.1869Z" fill="white"/>
<defs>
<clipPath id="clip0_76:5809">
<rect width="16.3404" height="16.3404" fill="white" transform="translate(15.8298 5.10645)"/>
</clipPath>
<clipPath id="clip1_76:5809">
<rect width="16.3404" height="20.7811" fill="white" transform="translate(15.8298 21.9575)"/>
</clipPath>
</defs>
</svg>
