<svg width="15" height="17" viewBox="0 0 15 17" fill="none" xmlns="http://www.w3.org/2000/svg">
<path d="M11.1185 15.2026C11.5002 15.2026 11.8096 15.5119 11.8096 15.8936C11.8096 16.2752 11.5002 16.5846 11.1185 16.5846H1.39905C1.0174 16.5846 0.708008 16.2752 0.708008 15.8936C0.708008 15.5119 1.0174 15.2025 1.39905 15.2025L11.1185 15.2026ZM11.1185 11.0564C11.5002 11.0564 11.8096 11.3658 11.8096 11.7474C11.8096 12.1291 11.5002 12.4384 11.1185 12.4384H1.39904C1.01739 12.4384 0.708008 12.1291 0.708008 11.7474C0.708008 11.3658 1.01739 11.0564 1.39904 11.0564H11.1185ZM9.03418 5.52817V0H7.64646V6.91025H14.5849V5.5282L9.03418 5.52817Z" fill="white"/>
</svg>
