<svg width="28" height="28" viewBox="0 0 28 28" fill="none" xmlns="http://www.w3.org/2000/svg">
<path d="M19.5979 3.00019C19.4595 3.00359 19.3219 3.02208 19.1875 3.05531L4.96875 6.80031C4.40673 6.94911 3.90936 7.27887 3.5535 7.73863C3.19765 8.19839 3.00313 8.76256 3 9.34394V21.3752C3 22.8146 4.18563 24.0002 5.625 24.0002H21.375C22.8144 24.0002 24 22.8146 24 21.3752V10.0002C24 8.56081 22.8144 7.37519 21.375 7.37519H9.67188L19.625 4.75019V6.50019H21.375V4.75019C21.375 3.76581 20.5376 2.98619 19.5979 3.00019ZM5.625 9.12519H21.375C21.8703 9.12519 22.25 9.50494 22.25 10.0002V21.3752C22.25 21.8704 21.8703 22.2502 21.375 22.2502H5.625C5.12975 22.2502 4.75 21.8704 4.75 21.3752V10.0002C4.75 9.50494 5.12975 9.12519 5.625 9.12519ZM19.1875 14.3752C18.8394 14.3752 18.5056 14.5135 18.2594 14.7596C18.0133 15.0057 17.875 15.3396 17.875 15.6877C17.875 16.0358 18.0133 16.3696 18.2594 16.6158C18.5056 16.8619 18.8394 17.0002 19.1875 17.0002C19.5356 17.0002 19.8694 16.8619 20.1156 16.6158C20.3617 16.3696 20.5 16.0358 20.5 15.6877C20.5 15.3396 20.3617 15.0057 20.1156 14.7596C19.8694 14.5135 19.5356 14.3752 19.1875 14.3752Z" fill="#575962"/>
</svg>
