<svg width="24" height="24" viewBox="0 0 24 24" fill="none" xmlns="http://www.w3.org/2000/svg">
<circle cx="12" cy="12" r="12" fill="#CD2A16"/>
<path fill-rule="evenodd" clip-rule="evenodd" d="M11.3333 14H8.66668C8.30001 14 8.00001 13.7 8.00001 13.3333C8.00001 12.9667 8.30001 12.6667 8.66668 12.6667H11.3333C11.7 12.6667 12 12.9667 12 13.3333C12 13.7 11.7 14 11.3333 14ZM15.3333 14H14C13.6333 14 13.3333 13.7 13.3333 13.3333C13.3333 12.9667 13.6333 12.6667 14 12.6667H15.3333C15.7 12.6667 16 12.9667 16 13.3333C16 13.7 15.7 14 15.3333 14ZM17.3333 14.6667C17.3333 15.034 17.0347 15.3333 16.6667 15.3333H7.33334C6.96534 15.3333 6.66668 15.034 6.66668 14.6667V11.3333H17.3333V14.6667ZM6.66668 9.33334C6.66668 8.966 6.96534 8.66667 7.33334 8.66667H16.6667C17.0347 8.66667 17.3333 8.966 17.3333 9.33334V10H6.66668V9.33334ZM16.6667 7.33334H7.33334C6.23068 7.33334 5.33334 8.23067 5.33334 9.33334V14.6667C5.33334 15.7693 6.23068 16.6667 7.33334 16.6667H16.6667C17.7693 16.6667 18.6667 15.7693 18.6667 14.6667V9.33334C18.6667 8.23067 17.7693 7.33334 16.6667 7.33334Z" fill="white"/>
<mask id="mask0_471:1313" style="mask-type:alpha" maskUnits="userSpaceOnUse" x="5" y="7" width="14" height="10">
<path fill-rule="evenodd" clip-rule="evenodd" d="M11.3333 14H8.66668C8.30001 14 8.00001 13.7 8.00001 13.3333C8.00001 12.9667 8.30001 12.6667 8.66668 12.6667H11.3333C11.7 12.6667 12 12.9667 12 13.3333C12 13.7 11.7 14 11.3333 14ZM15.3333 14H14C13.6333 14 13.3333 13.7 13.3333 13.3333C13.3333 12.9667 13.6333 12.6667 14 12.6667H15.3333C15.7 12.6667 16 12.9667 16 13.3333C16 13.7 15.7 14 15.3333 14ZM17.3333 14.6667C17.3333 15.034 17.0347 15.3333 16.6667 15.3333H7.33334C6.96534 15.3333 6.66668 15.034 6.66668 14.6667V11.3333H17.3333V14.6667ZM6.66668 9.33334C6.66668 8.966 6.96534 8.66667 7.33334 8.66667H16.6667C17.0347 8.66667 17.3333 8.966 17.3333 9.33334V10H6.66668V9.33334ZM16.6667 7.33334H7.33334C6.23068 7.33334 5.33334 8.23067 5.33334 9.33334V14.6667C5.33334 15.7693 6.23068 16.6667 7.33334 16.6667H16.6667C17.7693 16.6667 18.6667 15.7693 18.6667 14.6667V9.33334C18.6667 8.23067 17.7693 7.33334 16.6667 7.33334Z" fill="white"/>
</mask>
<g mask="url(#mask0_471:1313)">
</g>
</svg>
