<svg width="94" height="94" viewBox="0 0 94 94" fill="none" xmlns="http://www.w3.org/2000/svg">
<path fill-rule="evenodd" clip-rule="evenodd" d="M47 94C72.9574 94 94 72.9574 94 47C94 21.0426 72.9574 0 47 0C21.0426 0 0 21.0426 0 47C0 72.9574 21.0426 94 47 94Z" fill="#CD2A16"/>
<path fill-rule="evenodd" clip-rule="evenodd" d="M28.1525 67.5347C27.7414 67.7076 27.2734 67.6804 26.885 67.4611C26.1918 67.0697 25.9471 66.1904 26.3386 65.4972C26.6424 64.959 27.9451 64.0717 30.2465 62.8352L27.351 61.2083C25.9121 62.4262 24.9071 63.1448 24.336 63.364C23.7649 63.5832 22.4844 63.1828 20.4943 62.1628L26.4537 57.5746L28.0386 57.9031L28.1216 57.7683C24.9126 56.3643 23.1371 55.3779 22.795 54.8088C22.5298 54.3677 22.5194 53.8188 22.7675 53.3679C23.1523 52.669 24.0308 52.4142 24.7297 52.7989L29.4308 55.3863L29.5321 55.2343C26.293 53.0847 24.6314 51.8348 24.5473 51.4846C24.4829 51.2164 24.501 50.9351 24.5993 50.6775C24.8686 49.9716 25.6592 49.6177 26.365 49.8871L36.505 53.7559C37.7473 54.2299 38.7503 55.1781 39.2932 56.3918C39.5864 57.0472 39.7644 57.5676 39.8274 57.953C40.1227 59.7612 38.5585 61.5315 38.0788 62.2276C37.346 63.2911 34.0372 65.0601 28.1525 67.5347ZM57.3589 26.698C54.3997 33.0136 53.091 36.9339 53.433 38.459C53.7213 39.7447 54.7222 42.3654 56.4356 46.321C57.3476 48.4264 56.3802 50.8724 54.2748 51.7843C53.177 52.2599 51.9274 52.239 50.8461 51.7271L45.7503 49.3149C43.6516 49.6583 42.143 49.812 41.2245 49.7759C40.3061 49.7398 38.9922 49.5317 37.283 49.1517L35.6389 22.7652C35.4668 20.0027 37.5667 17.6238 40.3291 17.4516C40.4118 17.4465 40.4945 17.4434 40.5773 17.4423L51.3042 17.3065C54.9458 17.2604 57.9353 20.1751 57.9814 23.8166C57.994 24.8118 57.7812 25.7969 57.3589 26.698ZM58.1503 54.5361C58.4229 54.2312 58.8115 54.0555 59.2205 54.0523L66.2576 53.9979C67.4853 53.9884 68.5177 54.9166 68.6384 56.1384C68.641 56.1652 68.6438 56.1921 68.6467 56.2191C68.7338 57.0325 68.3616 57.7318 67.5299 58.3171C68.5108 58.6165 68.9903 59.287 68.9682 60.3286C68.9461 61.3703 68.4449 62.0852 67.4645 62.4733C68.3969 62.6412 68.9142 63.2664 69.0163 64.349C69.075 64.9715 69.0162 65.5354 68.6467 66.21C68.5503 66.386 68.1493 66.6161 67.4437 66.9005C67.3728 66.9291 67.3007 66.9543 67.2275 66.9761L64.3857 67.8217L64.3857 66.9762C64.2725 66.9762 63.8206 66.9658 63.03 66.9449C62.2395 66.924 61.2094 66.8893 59.9399 66.8408C58.6098 66.5068 57.9331 65.8431 57.9098 64.8499C57.8877 63.9128 58.3678 63.1508 59.3499 62.5639C58.3242 62.208 57.78 61.5569 57.7173 60.6105C57.65 59.5958 58.1371 58.9006 59.1784 58.5251C58.1871 58.0344 57.6644 57.2849 57.6105 56.2765C57.5722 55.5615 57.7522 54.9813 58.1503 54.5361Z" fill="#C6C6C6"/>
<path fill-rule="evenodd" clip-rule="evenodd" d="M66.1219 53.9987C66.1218 53.9987 66.1217 53.9987 66.1216 53.9987C65.8682 53.9987 65.7521 54.0022 65.4555 54.0043L65.6953 52.2631C65.7403 51.9365 65.8086 51.6135 65.8996 51.2967L67.0154 47.4111C67.0657 47.2361 67.2483 47.1349 67.4233 47.1852C67.5983 47.2354 67.6995 47.4181 67.6492 47.5931L66.5334 51.4787C66.451 51.7654 66.3893 52.0576 66.3486 52.3531L66.1219 53.9987ZM64.3852 66.9749V68.3456C64.3852 69.4108 64.6568 70.4585 65.1745 71.3896L66.3745 73.548C66.463 73.7071 66.4057 73.9079 66.2465 73.9964C66.0874 74.0848 65.8866 74.0275 65.7981 73.8684L64.5981 71.71C64.026 70.6809 63.7257 69.523 63.7257 68.3456V66.9595L64.3852 66.9749ZM66.8955 45.067C66.7134 45.067 66.5658 44.9194 66.5658 44.7373C66.5658 44.5552 66.7134 44.4076 66.8955 44.4076H68.2837C68.4658 44.4076 68.6134 44.5552 68.6134 44.7373C68.6134 44.9194 68.4658 45.067 68.2837 45.067H66.8955ZM35.5487 60.3834C35.7281 60.4144 35.8484 60.585 35.8174 60.7644C35.7864 60.9439 35.6158 61.0642 35.4364 61.0332C33.1314 60.6348 31.7784 58.9936 31.4059 56.1911C31.3819 56.0106 31.5088 55.8448 31.6893 55.8209C31.8698 55.7969 32.0356 55.9237 32.0596 56.1043C32.3964 58.6388 33.5499 60.038 35.5487 60.3834ZM20.8355 62.5438C20.6535 62.5467 20.5035 62.4014 20.5007 62.2193C20.4978 62.0373 20.643 61.8873 20.8251 61.8844C21.9785 61.8662 22.5827 61.3752 22.7364 60.3513C22.7634 60.1713 22.9313 60.0472 23.1113 60.0742C23.2914 60.1012 23.4155 60.2691 23.3885 60.4492C23.1854 61.8024 22.3016 62.5206 20.8355 62.5438ZM45.428 48.9513C45.6027 49.0027 45.7027 49.186 45.6513 49.3606C45.5998 49.5353 45.4166 49.6353 45.2419 49.5839C44.0693 49.2388 42.9456 48.5591 41.8711 47.5493C41.7384 47.4246 41.7319 47.2159 41.8566 47.0832C41.9813 46.9505 42.19 46.944 42.3226 47.0687C43.3253 48.0111 44.3603 48.6371 45.428 48.9513ZM63.8337 58.8305L59.1355 58.7873C58.9898 58.7859 58.8728 58.6668 58.8742 58.5211C58.8755 58.3754 58.9947 58.2584 59.1404 58.2598L63.8385 58.303C63.9842 58.3043 64.1012 58.4235 64.0999 58.5692C64.0985 58.7148 63.9794 58.8318 63.8337 58.8305ZM64.0779 62.8604L59.1934 62.9004C59.0477 62.9016 58.9287 62.7844 58.9275 62.6388C58.9263 62.4931 59.0434 62.374 59.1891 62.3728L64.0736 62.3328C64.2192 62.3316 64.3383 62.4488 64.3395 62.5944C64.3407 62.7401 64.2236 62.8592 64.0779 62.8604ZM41.627 29.9777L48.6693 30.6938L45.2076 35.3913L41.627 29.9777ZM52.9596 30.8317L55.4671 31.2903L53.7729 35.162L52.9596 30.8317ZM42.0697 28.8245L45.2462 20.4221L48.4227 29.9662C47.3225 30.212 46.3772 30.2639 45.5868 30.1219C44.7963 29.9798 43.624 29.5473 42.0697 28.8245ZM53.3603 30.1912L55.6075 21.6335L56.7524 27.9712L56.4074 28.9199L55.4879 31.1864L53.3603 30.1912ZM41.4898 37.7692C40.6802 37.8029 40.1344 37.7388 39.8524 37.5768C39.2794 37.2477 39.0343 36.6965 38.8892 36.0987C38.5109 34.5401 40.5662 33.5686 41.4898 33.7702C42.0694 33.8968 42.7392 34.7141 42.9354 35.6218C43.0129 35.9808 42.8348 36.5045 42.4009 37.1929C44.1395 38.7446 46.021 39.9107 48.0453 40.691C49.554 41.2725 49.7962 39.8933 51.1035 39.9219C51.975 39.9409 52.5757 40.607 52.9057 41.92C53.0903 40.9689 53.3166 40.353 53.5846 40.0723C53.9866 39.6512 54.4264 39.7097 54.7556 40.0314C54.931 40.2029 55.1183 40.9284 55.3175 42.2079C55.4352 42.964 55.4022 43.7358 55.2204 44.4791C54.7664 46.3353 54.1463 47.2772 53.3603 47.3046C51.9487 47.3539 46.9804 44.4162 45.5108 42.8047C44.531 41.7303 43.1907 40.0518 41.4898 37.7692ZM22.6449 67.4157L19.2662 70.1971C19.1918 70.2583 19.0842 70.2571 19.0113 70.1942C18.9285 70.1229 18.9193 69.9979 18.9906 69.9152L21.8596 66.5885L20.8017 65.4741C20.4883 65.1439 20.5019 64.6222 20.8321 64.3088C20.9514 64.1956 21.1018 64.1206 21.2641 64.0936L24.5903 63.5392V63.2033L27.0669 61.4746L29.3772 63.6888C29.7058 64.0038 29.7169 64.5256 29.4019 64.8542C29.2795 64.982 29.1192 65.0669 28.9447 65.0966L26.1299 65.5743L25.0655 68.2644C24.898 68.6877 24.4191 68.895 23.9958 68.7275C23.8843 68.6834 23.7838 68.6155 23.7012 68.5286L22.6449 67.4157ZM46.1232 68.1225C46.1232 68.1016 46.1243 68.0808 46.1265 68.0601C46.161 67.7341 46.4532 67.4978 46.7791 67.5323L51.9109 68.0752C52.9012 69.8096 53.8292 71.0161 54.695 71.6945C55.2966 72.166 57.0909 72.3675 57.6078 72.1555C59.9003 71.2155 61.5674 72.1774 62.6091 75.0412C62.6328 75.1062 62.6449 75.1749 62.6449 75.244C62.6449 75.5718 62.3792 75.8375 62.0514 75.8375H51.6696C51.505 75.8375 51.3463 75.776 51.2248 75.6649L49.8378 74.3976L49.4636 75.5128C49.4186 75.6472 49.2927 75.7377 49.1511 75.7377H46.3299C46.3257 75.7377 46.3215 75.7376 46.3174 75.7374C46.1354 75.7305 45.9935 75.5774 46.0004 75.3955L46.1232 72.1555V68.1225ZM36.0581 70.7196C36.4281 69.2988 37.8425 68.4136 39.2821 68.702L42.6903 69.3846V75.2717L38.0694 77.2176C37.9595 77.2638 37.8392 77.2794 37.7212 77.2627L33.438 76.6571C32.9665 76.5905 32.5526 76.3088 32.3177 75.8945C31.8996 75.1572 32.1583 74.2204 32.8957 73.8022L35.6641 72.2322L36.0581 70.7196ZM37.4357 56.186C37.7452 56.3958 38.1046 56.5501 38.5137 56.6488C39.6468 56.9222 41.3954 56.4536 43.7592 55.2432C45.0675 55.949 46.3396 56.2106 47.5753 56.0281C48.2655 55.9262 48.9011 55.7013 49.4823 55.3537V61.4366C49.4823 63.3327 48.1154 64.9527 46.2464 65.2717C45.8367 65.3416 45.3904 65.4011 44.9075 65.45C44.7062 65.4704 44.5062 65.4877 44.3075 65.5019C44.2288 64.6344 43.9897 63.8061 43.449 63.1862C42.5902 62.2015 41.0893 61.6843 39.657 61.6843C39.0068 61.6843 38.4063 61.7842 37.8641 61.985C37.7966 61.7119 37.7528 61.4293 37.7353 61.1394L37.4357 56.186Z" fill="#1B1B1B"/>
<path fill-rule="evenodd" clip-rule="evenodd" d="M38.7927 61.7234C39.0634 61.6832 39.3449 61.6631 39.6364 61.6631C41.0686 61.6631 42.5696 62.1803 43.4284 63.165C43.5807 63.3397 43.7353 63.5537 43.8576 63.7705C44.0644 64.1754 44.1913 64.6289 44.2626 65.102C44.2781 65.2265 44.2896 65.3526 44.2979 65.48C44.493 65.4659 44.6893 65.4489 44.8869 65.4289C45.3697 65.3799 45.816 65.3205 46.2257 65.2505C48.0948 64.9315 49.4617 63.3115 49.4617 61.4154V61.0352C50.6451 61.163 51.8008 61.6437 52.5082 62.448C53.1803 63.2123 53.3729 64.3054 53.3729 65.3857C53.3729 66.7945 52.7672 67.8516 51.6959 68.6539C50.9255 69.2308 49.8741 69.7709 48.823 69.7709C47.7571 69.7709 47.0391 69.2455 46.2636 68.6539C45.3729 67.9744 44.5645 67.1036 44.3367 66.0071C44.3382 66.0748 44.3389 66.1424 44.3389 66.21C44.3389 67.6718 43.7156 68.7686 42.6132 69.601C41.8205 70.1996 40.7386 70.76 39.6571 70.76C38.5603 70.76 37.8215 70.2149 37.0235 69.601C35.9402 68.7676 34.9752 67.657 34.9752 66.21C34.9752 65.1059 35.4727 63.9498 36.1457 63.1619C36.8274 62.3637 37.726 61.8864 38.7927 61.7234ZM66.5723 44.6526C63.9999 42.473 58.7497 32.9781 59.0267 30.342C59.3433 27.3301 60.9107 24.199 63.4851 22.8546C65.0861 22.0186 67.4699 21.105 69.4301 21.3111C71.8924 21.5699 73.8573 22.4302 75.3582 24.1025C76.9737 25.9026 77.9912 29.6992 77.7251 32.2315C77.4406 34.9379 71.4426 42.4856 68.56 44.5644C68.502 44.4703 68.3979 44.4075 68.2792 44.4075H66.891C66.7382 44.4075 66.6096 44.5115 66.5723 44.6526ZM68.4168 45.037L69.4433 47.4762C69.4648 47.5272 69.4731 47.5828 69.4674 47.6379C69.4487 47.819 69.2868 47.9507 69.1057 47.9321C68.8828 47.9091 68.6981 47.906 68.5518 47.9228C68.3225 47.9491 68.0075 48.0448 67.607 48.2099C67.5175 48.2468 67.4162 48.2425 67.3302 48.1981C67.026 48.0411 66.7583 47.9493 66.527 47.9228C66.3634 47.904 66.1392 47.9089 65.8545 47.9373C65.7939 47.9434 65.7327 47.9325 65.6779 47.9059C65.514 47.8264 65.4456 47.6292 65.5251 47.4654L66.7136 45.0152C66.7648 45.048 66.8257 45.067 66.891 45.067H68.2792C68.3283 45.067 68.3749 45.0562 68.4168 45.037ZM35.6445 22.4426L36.9721 44.0947C35.8385 45.2283 34.2724 45.9294 32.5426 45.9294C29.9429 45.9294 27.7132 44.3459 26.7651 42.0908C26.626 42.1001 26.4856 42.1048 26.3441 42.1048C22.8843 42.1048 20.0796 39.3001 20.0796 35.8403C20.0796 34.6856 20.392 33.6039 20.9369 32.6751C20.392 31.7463 20.0796 30.6646 20.0796 29.5099C20.0796 26.7627 21.8479 24.4286 24.3083 23.5836C25.1533 21.1232 27.4875 19.3549 30.2346 19.3549C32.5339 19.3549 34.5439 20.5936 35.6336 22.4402C35.6372 22.441 35.6409 22.4418 35.6445 22.4426ZM53.6537 39.2033C52.5684 39.2033 51.4188 39.0378 50.6008 38.6811C49.3463 38.1341 48.6983 37.1238 48.6983 36.1167C48.6983 35.0909 49.3065 33.9496 50.6008 33.4056C51.4057 33.0672 52.6226 32.6751 53.6769 32.6751C55.0012 32.6751 56.0945 32.8953 56.9864 33.4056C57.9464 33.9547 58.6555 35.2542 58.6555 36.1167C58.6555 37.2003 57.828 38.3316 56.409 38.8624C55.6492 39.1466 54.6126 39.2033 53.6537 39.2033ZM37.6814 49.2057C39.2006 49.5315 40.3837 49.711 41.2306 49.7443C42.1491 49.7804 43.6577 49.6267 45.7564 49.2832L50.8521 51.6955C51.9335 52.2074 53.183 52.2282 54.2809 51.7527C54.9579 51.4594 55.5172 51.0076 55.9342 50.4594L57.5896 50.9732C57.153 53.2124 56.0362 54.5248 54.239 54.9102C52.4419 55.2956 51.2753 55.0821 50.7394 54.2697C49.8404 55.3053 48.7766 55.9094 47.548 56.0821C46.3194 56.2548 45.0565 55.9751 43.7593 55.2431C41.3954 56.4536 39.6469 56.9222 38.5138 56.6488C37.3806 56.3754 36.6231 55.6662 36.2412 54.5211C34.5144 55.8008 33.0837 56.0018 31.9491 55.1243C30.8146 54.2467 30.28 53.3676 30.3454 52.4869L37.4539 49.1923C37.5303 49.1969 37.6061 49.2014 37.6814 49.2057Z" fill="#191A1E"/>
<path fill-rule="evenodd" clip-rule="evenodd" d="M44.9741 28.5504C44.7607 28.8187 44.6622 29.181 44.7941 29.5001C44.9504 29.8779 45.2477 30.0559 45.59 30.0559C46.0868 30.0559 46.4389 29.8319 46.4389 28.9866C46.4389 28.9089 46.4302 28.8384 46.4141 28.7746C47.6376 29.032 49.0245 29.4758 50.5748 30.1062C48.4394 31.2962 46.6636 31.8377 45.2475 31.7308C43.8314 31.6238 41.8374 30.5583 39.2654 28.5343C41.3698 28.4153 43.2096 28.4153 44.7848 28.5343C44.8473 28.539 44.9105 28.5444 44.9741 28.5504ZM54.4999 29.361C54.5083 29.4304 54.5259 29.4992 54.5535 29.566C54.7098 29.9438 55.007 30.1218 55.3494 30.1218C55.8462 30.1218 56.1983 29.8978 56.1983 29.0525C56.1983 29.021 56.1969 28.9906 56.1941 28.9615C56.264 28.9476 56.335 28.9337 56.4073 28.9199L55.467 31.2903C54.5822 31.3564 53.9371 31.3086 53.5317 31.1471C53.1264 30.9855 52.5596 30.6669 51.8314 30.1912C52.7512 29.9341 53.4836 29.7079 54.0286 29.5126C54.1692 29.4622 54.3263 29.4117 54.4999 29.361ZM45.6246 58.9564C45.4161 58.9564 45.2756 58.8537 45.1239 58.738C44.9179 58.581 44.7344 58.3718 44.7344 58.0991C44.7344 57.8911 44.829 57.6733 44.957 57.5249C45.1203 57.3354 45.349 57.2419 45.6246 57.2419C45.897 57.2419 46.1823 57.3393 46.3456 57.5249C46.4772 57.6743 46.5148 57.8879 46.5148 58.0991C46.5148 58.3746 46.3963 58.5812 46.1867 58.738C46.036 58.8508 45.8303 58.9564 45.6246 58.9564ZM45.7235 62.0556C45.5227 62.0556 45.3875 61.9529 45.2413 61.8373C45.043 61.6803 44.8663 61.471 44.8663 61.1984C44.8663 60.9904 44.9574 60.7726 45.0806 60.6241C45.2378 60.4347 45.4581 60.3412 45.7235 60.3412C45.9858 60.3412 46.2606 60.4386 46.4178 60.6241C46.5445 60.7735 46.5808 60.9872 46.5808 61.1984C46.5808 61.4738 46.4667 61.6805 46.2648 61.8373C46.1197 61.9501 45.9216 62.0556 45.7235 62.0556Z" fill="white"/>
</svg>
